solid OpenSCAD_Model
  facet normal 0 0 -1
    outer loop
      vertex -3.35823 -0.986064 0
      vertex -3.35823 0.986064 0
      vertex -2.29201 -2.64512 0
    endloop
  endfacet
  facet normal 0 0 -1
    outer loop
      vertex -2.29201 -2.64512 0
      vertex -3.35823 0.986064 0
      vertex -2.29201 2.64512 0
    endloop
  endfacet
  facet normal 0 0 -1
    outer loop
      vertex -2.29201 -2.64512 0
      vertex -2.29201 2.64512 0
      vertex -0.498102 3.46437 0
    endloop
  endfacet
  facet normal 0 0 -1
    outer loop
      vertex 0.463525 1.42658 0
      vertex -0.498102 3.46437 0
      vertex 19.5019 3.46437 0
    endloop
  endfacet
  facet normal 0 0 -1
    outer loop
      vertex -2.29201 -2.64512 0
      vertex 19.5019 3.46437 0
      vertex 21.454 3.18371 0
    endloop
  endfacet
  facet normal 0 0 -1
    outer loop
      vertex -2.29201 -2.64512 0
      vertex 21.454 3.18371 0
      vertex 22.9444 1.89224 0
    endloop
  endfacet
  facet normal 0 0 -1
    outer loop
      vertex 20.4635 1.42658 0
      vertex 23.5 0 0
      vertex 21.5 0 0
    endloop
  endfacet
  facet normal 0 0 -1
    outer loop
      vertex -2.29201 -2.64512 0
      vertex 22.9444 -1.89224 0
      vertex 21.454 -3.18371 0
    endloop
  endfacet
  facet normal 0 0 -1
    outer loop
      vertex -2.29201 -2.64512 0
      vertex 21.454 -3.18371 0
      vertex 19.5019 -3.46437 0
    endloop
  endfacet
  facet normal 0 0 -1
    outer loop
      vertex -2.29201 -2.64512 0
      vertex 19.5019 -3.46437 0
      vertex -0.498102 -3.46437 0
    endloop
  endfacet
  facet normal 0 0 -1
    outer loop
      vertex -2.29201 -2.64512 0
      vertex -0.498102 3.46437 0
      vertex -1.21352 0.881678 0
    endloop
  endfacet
  facet normal 0 0 -1
    outer loop
      vertex 20.4635 1.42658 0
      vertex 22.9444 1.89224 0
      vertex 23.5 0 0
    endloop
  endfacet
  facet normal 0 0 -1
    outer loop
      vertex -2.29201 -2.64512 0
      vertex -1.21352 0.881678 0
      vertex -1.21352 -0.881678 0
    endloop
  endfacet
  facet normal 0 0 -1
    outer loop
      vertex -2.29201 -2.64512 0
      vertex -1.21352 -0.881678 0
      vertex 0.463525 -1.42658 0
    endloop
  endfacet
  facet normal 0 0 -1
    outer loop
      vertex -2.29201 -2.64512 0
      vertex 0.463525 -1.42658 0
      vertex 19.5019 3.46437 0
    endloop
  endfacet
  facet normal 0 0 -1
    outer loop
      vertex 0.463525 1.42658 0
      vertex 19.5019 3.46437 0
      vertex 1.5 0 0
    endloop
  endfacet
  facet normal 0 0 -1
    outer loop
      vertex -1.21352 0.881678 0
      vertex -0.498102 3.46437 0
      vertex 0.463525 1.42658 0
    endloop
  endfacet
  facet normal 0 0 -1
    outer loop
      vertex 18.7865 -0.881678 0
      vertex -2.29201 -2.64512 0
      vertex 18.7865 0.881678 0
    endloop
  endfacet
  facet normal 0 0 -1
    outer loop
      vertex 21.5 0 0
      vertex 23.5 0 0
      vertex 22.9444 -1.89224 0
    endloop
  endfacet
  facet normal 0 0 -1
    outer loop
      vertex -2.29201 -2.64512 0
      vertex 18.7865 -0.881678 0
      vertex 20.4635 -1.42658 0
    endloop
  endfacet
  facet normal 0 0 -1
    outer loop
      vertex -2.29201 -2.64512 0
      vertex 20.4635 -1.42658 0
      vertex 22.9444 -1.89224 0
    endloop
  endfacet
  facet normal 0 0 -1
    outer loop
      vertex 21.5 0 0
      vertex 22.9444 -1.89224 0
      vertex 20.4635 -1.42658 0
    endloop
  endfacet
  facet normal 0 0 -1
    outer loop
      vertex -2.29201 -2.64512 0
      vertex 22.9444 1.89224 0
      vertex 20.4635 1.42658 0
    endloop
  endfacet
  facet normal 0 0 -1
    outer loop
      vertex -2.29201 -2.64512 0
      vertex 20.4635 1.42658 0
      vertex 18.7865 0.881678 0
    endloop
  endfacet
  facet normal 0 0 -1
    outer loop
      vertex 1.5 0 0
      vertex 19.5019 3.46437 0
      vertex 0.463525 -1.42658 0
    endloop
  endfacet
  facet normal -1 0 0
    outer loop
      vertex -3.35823 -0.986064 0
      vertex -3.35823 -0.986064 5
      vertex -3.35823 0.986064 0
    endloop
  endfacet
  facet normal -1 0 0
    outer loop
      vertex -3.35823 0.986064 0
      vertex -3.35823 -0.986064 5
      vertex -3.35823 0.986064 5
    endloop
  endfacet
  facet normal -0.841254 -0.54064 0
    outer loop
      vertex -3.35823 -0.986064 0
      vertex -2.29201 -2.64512 0
      vertex -3.35823 -0.986064 5
    endloop
  endfacet
  facet normal -0.841254 -0.54064 0
    outer loop
      vertex -3.35823 -0.986064 5
      vertex -2.29201 -2.64512 0
      vertex -2.29201 -2.64512 5
    endloop
  endfacet
  facet normal -0.415415 -0.909632 0
    outer loop
      vertex -2.29201 -2.64512 5
      vertex -2.29201 -2.64512 0
      vertex -0.498102 -3.46437 0
    endloop
  endfacet
  facet normal -0.415415 -0.909632 0
    outer loop
      vertex -0.498102 -3.46437 5
      vertex -2.29201 -2.64512 5
      vertex -0.498102 -3.46437 0
    endloop
  endfacet
  facet normal 0 -1 0
    outer loop
      vertex -0.498102 -3.46437 5
      vertex -0.498102 -3.46437 0
      vertex 19.5019 -3.46437 0
    endloop
  endfacet
  facet normal 0 -1 0
    outer loop
      vertex 19.5019 -3.46437 5
      vertex -0.498102 -3.46437 5
      vertex 19.5019 -3.46437 0
    endloop
  endfacet
  facet normal 0.142315 -0.989821 0
    outer loop
      vertex 19.5019 -3.46437 5
      vertex 19.5019 -3.46437 0
      vertex 21.454 -3.18371 0
    endloop
  endfacet
  facet normal 0.142315 -0.989821 0
    outer loop
      vertex 21.454 -3.18371 5
      vertex 19.5019 -3.46437 5
      vertex 21.454 -3.18371 0
    endloop
  endfacet
  facet normal 0.654861 -0.755749 0
    outer loop
      vertex 21.454 -3.18371 5
      vertex 21.454 -3.18371 0
      vertex 22.9444 -1.89224 0
    endloop
  endfacet
  facet normal 0.654861 -0.755749 0
    outer loop
      vertex 22.9444 -1.89224 5
      vertex 21.454 -3.18371 5
      vertex 22.9444 -1.89224 0
    endloop
  endfacet
  facet normal 0.959493 -0.281733 0
    outer loop
      vertex 22.9444 -1.89224 5
      vertex 22.9444 -1.89224 0
      vertex 23.5 0 0
    endloop
  endfacet
  facet normal 0.959493 -0.281733 0
    outer loop
      vertex 23.5 0 5
      vertex 22.9444 -1.89224 5
      vertex 23.5 0 0
    endloop
  endfacet
  facet normal 0.959493 0.281733 0
    outer loop
      vertex 23.5 0 0
      vertex 22.9444 1.89224 0
      vertex 22.9444 1.89224 5
    endloop
  endfacet
  facet normal 0.959493 0.281733 0
    outer loop
      vertex 23.5 0 5
      vertex 23.5 0 0
      vertex 22.9444 1.89224 5
    endloop
  endfacet
  facet normal 0.654861 0.755749 0
    outer loop
      vertex 21.454 3.18371 0
      vertex 21.454 3.18371 5
      vertex 22.9444 1.89224 0
    endloop
  endfacet
  facet normal 0.654861 0.755749 0
    outer loop
      vertex 22.9444 1.89224 0
      vertex 21.454 3.18371 5
      vertex 22.9444 1.89224 5
    endloop
  endfacet
  facet normal 0.142315 0.989821 0
    outer loop
      vertex 19.5019 3.46437 0
      vertex 19.5019 3.46437 5
      vertex 21.454 3.18371 0
    endloop
  endfacet
  facet normal 0.142315 0.989821 0
    outer loop
      vertex 21.454 3.18371 0
      vertex 19.5019 3.46437 5
      vertex 21.454 3.18371 5
    endloop
  endfacet
  facet normal 0 1 0
    outer loop
      vertex -0.498102 3.46437 0
      vertex -0.498102 3.46437 5
      vertex 19.5019 3.46437 0
    endloop
  endfacet
  facet normal 0 1 0
    outer loop
      vertex 19.5019 3.46437 0
      vertex -0.498102 3.46437 5
      vertex 19.5019 3.46437 5
    endloop
  endfacet
  facet normal -0.415415 0.909632 0
    outer loop
      vertex -2.29201 2.64512 0
      vertex -2.29201 2.64512 5
      vertex -0.498102 3.46437 0
    endloop
  endfacet
  facet normal -0.415415 0.909632 0
    outer loop
      vertex -0.498102 3.46437 0
      vertex -2.29201 2.64512 5
      vertex -0.498102 3.46437 5
    endloop
  endfacet
  facet normal -0.841254 0.54064 0
    outer loop
      vertex -3.35823 0.986064 0
      vertex -3.35823 0.986064 5
      vertex -2.29201 2.64512 0
    endloop
  endfacet
  facet normal -0.841254 0.54064 0
    outer loop
      vertex -2.29201 2.64512 0
      vertex -3.35823 0.986064 5
      vertex -2.29201 2.64512 5
    endloop
  endfacet
  facet normal 0.309017 -0.951056 0
    outer loop
      vertex 0.463525 1.42658 0
      vertex 0.463525 1.42658 5
      vertex -1.21352 0.881678 5
    endloop
  endfacet
  facet normal 0.309017 -0.951056 0
    outer loop
      vertex -1.21352 0.881678 0
      vertex 0.463525 1.42658 0
      vertex -1.21352 0.881678 5
    endloop
  endfacet
  facet normal 1 0 0
    outer loop
      vertex -1.21352 0.881678 0
      vertex -1.21352 0.881678 5
      vertex -1.21352 -0.881678 5
    endloop
  endfacet
  facet normal 1 0 0
    outer loop
      vertex -1.21352 -0.881678 0
      vertex -1.21352 0.881678 0
      vertex -1.21352 -0.881678 5
    endloop
  endfacet
  facet normal -0.809017 -0.587785 0
    outer loop
      vertex 1.5 0 5
      vertex 0.463525 1.42658 5
      vertex 1.5 0 0
    endloop
  endfacet
  facet normal -0.809017 -0.587785 0
    outer loop
      vertex 1.5 0 0
      vertex 0.463525 1.42658 5
      vertex 0.463525 1.42658 0
    endloop
  endfacet
  facet normal -0.809017 0.587785 0
    outer loop
      vertex 1.5 0 5
      vertex 1.5 0 0
      vertex 0.463525 -1.42658 5
    endloop
  endfacet
  facet normal -0.809017 0.587785 0
    outer loop
      vertex 0.463525 -1.42658 5
      vertex 1.5 0 0
      vertex 0.463525 -1.42658 0
    endloop
  endfacet
  facet normal 0.309017 0.951056 0
    outer loop
      vertex 0.463525 -1.42658 5
      vertex 0.463525 -1.42658 0
      vertex -1.21352 -0.881678 5
    endloop
  endfacet
  facet normal 0.309017 0.951056 0
    outer loop
      vertex -1.21352 -0.881678 5
      vertex 0.463525 -1.42658 0
      vertex -1.21352 -0.881678 0
    endloop
  endfacet
  facet normal 0.309017 -0.951056 0
    outer loop
      vertex 20.4635 1.42658 0
      vertex 20.4635 1.42658 5
      vertex 18.7865 0.881678 5
    endloop
  endfacet
  facet normal 0.309017 -0.951056 0
    outer loop
      vertex 18.7865 0.881678 0
      vertex 20.4635 1.42658 0
      vertex 18.7865 0.881678 5
    endloop
  endfacet
  facet normal 1 0 0
    outer loop
      vertex 18.7865 0.881678 0
      vertex 18.7865 0.881678 5
      vertex 18.7865 -0.881678 5
    endloop
  endfacet
  facet normal 1 0 0
    outer loop
      vertex 18.7865 -0.881678 0
      vertex 18.7865 0.881678 0
      vertex 18.7865 -0.881678 5
    endloop
  endfacet
  facet normal -0.809017 -0.587785 0
    outer loop
      vertex 21.5 0 5
      vertex 20.4635 1.42658 5
      vertex 21.5 0 0
    endloop
  endfacet
  facet normal -0.809017 -0.587785 0
    outer loop
      vertex 21.5 0 0
      vertex 20.4635 1.42658 5
      vertex 20.4635 1.42658 0
    endloop
  endfacet
  facet normal -0.809017 0.587785 0
    outer loop
      vertex 21.5 0 5
      vertex 21.5 0 0
      vertex 20.4635 -1.42658 5
    endloop
  endfacet
  facet normal -0.809017 0.587785 0
    outer loop
      vertex 20.4635 -1.42658 5
      vertex 21.5 0 0
      vertex 20.4635 -1.42658 0
    endloop
  endfacet
  facet normal 0.309017 0.951056 0
    outer loop
      vertex 20.4635 -1.42658 5
      vertex 20.4635 -1.42658 0
      vertex 18.7865 -0.881678 5
    endloop
  endfacet
  facet normal 0.309017 0.951056 0
    outer loop
      vertex 18.7865 -0.881678 5
      vertex 20.4635 -1.42658 0
      vertex 18.7865 -0.881678 0
    endloop
  endfacet
  facet normal 0 0 1
    outer loop
      vertex -3.35823 0.986064 5
      vertex -3.35823 -0.986064 5
      vertex -2.29201 -2.64512 5
    endloop
  endfacet
  facet normal 0 0 1
    outer loop
      vertex -1.21352 -0.881678 5
      vertex -3.35823 0.986064 5
      vertex -0.498102 -3.46437 5
    endloop
  endfacet
  facet normal 0 0 1
    outer loop
      vertex -0.498102 -3.46437 5
      vertex -3.35823 0.986064 5
      vertex -2.29201 -2.64512 5
    endloop
  endfacet
  facet normal 0 0 1
    outer loop
      vertex 0.463525 1.42658 5
      vertex 20.4635 1.42658 5
      vertex 22.9444 1.89224 5
    endloop
  endfacet
  facet normal 0 0 1
    outer loop
      vertex 0.463525 1.42658 5
      vertex 22.9444 1.89224 5
      vertex 21.454 3.18371 5
    endloop
  endfacet
  facet normal 0 0 1
    outer loop
      vertex 0.463525 1.42658 5
      vertex 21.454 3.18371 5
      vertex 19.5019 3.46437 5
    endloop
  endfacet
  facet normal 0 0 1
    outer loop
      vertex 0.463525 1.42658 5
      vertex 21.454 -3.18371 5
      vertex 22.9444 -1.89224 5
    endloop
  endfacet
  facet normal 0 0 1
    outer loop
      vertex 20.4635 1.42658 5
      vertex 21.5 0 5
      vertex 23.5 0 5
    endloop
  endfacet
  facet normal 0 0 1
    outer loop
      vertex 20.4635 1.42658 5
      vertex 23.5 0 5
      vertex 22.9444 1.89224 5
    endloop
  endfacet
  facet normal 0 0 1
    outer loop
      vertex -2.29201 2.64512 5
      vertex -3.35823 0.986064 5
      vertex -0.498102 3.46437 5
    endloop
  endfacet
  facet normal 0 0 1
    outer loop
      vertex 0.463525 -1.42658 5
      vertex -1.21352 -0.881678 5
      vertex -0.498102 -3.46437 5
    endloop
  endfacet
  facet normal 0 0 1
    outer loop
      vertex 0.463525 1.42658 5
      vertex 19.5019 -3.46437 5
      vertex 21.454 -3.18371 5
    endloop
  endfacet
  facet normal 0 0 1
    outer loop
      vertex -0.498102 3.46437 5
      vertex 0.463525 1.42658 5
      vertex 19.5019 3.46437 5
    endloop
  endfacet
  facet normal 0 0 1
    outer loop
      vertex -0.498102 3.46437 5
      vertex -3.35823 0.986064 5
      vertex 0.463525 1.42658 5
    endloop
  endfacet
  facet normal 0 0 1
    outer loop
      vertex 0.463525 1.42658 5
      vertex 18.7865 0.881678 5
      vertex 20.4635 1.42658 5
    endloop
  endfacet
  facet normal 0 0 1
    outer loop
      vertex 19.5019 -3.46437 5
      vertex 0.463525 -1.42658 5
      vertex -0.498102 -3.46437 5
    endloop
  endfacet
  facet normal 0 0 1
    outer loop
      vertex 21.5 0 5
      vertex 22.9444 -1.89224 5
      vertex 23.5 0 5
    endloop
  endfacet
  facet normal 0 0 1
    outer loop
      vertex 0.463525 1.42658 5
      vertex 22.9444 -1.89224 5
      vertex 20.4635 -1.42658 5
    endloop
  endfacet
  facet normal 0 0 1
    outer loop
      vertex 21.5 0 5
      vertex 20.4635 -1.42658 5
      vertex 22.9444 -1.89224 5
    endloop
  endfacet
  facet normal 0 0 1
    outer loop
      vertex 0.463525 1.42658 5
      vertex 20.4635 -1.42658 5
      vertex 18.7865 -0.881678 5
    endloop
  endfacet
  facet normal 0 0 1
    outer loop
      vertex 18.7865 -0.881678 5
      vertex 18.7865 0.881678 5
      vertex 0.463525 1.42658 5
    endloop
  endfacet
  facet normal 0 0 1
    outer loop
      vertex 1.5 0 5
      vertex 0.463525 -1.42658 5
      vertex 19.5019 -3.46437 5
    endloop
  endfacet
  facet normal 0 0 1
    outer loop
      vertex -1.21352 -0.881678 5
      vertex -1.21352 0.881678 5
      vertex -3.35823 0.986064 5
    endloop
  endfacet
  facet normal 0 0 1
    outer loop
      vertex -1.21352 0.881678 5
      vertex 0.463525 1.42658 5
      vertex -3.35823 0.986064 5
    endloop
  endfacet
  facet normal 0 0 1
    outer loop
      vertex 0.463525 1.42658 5
      vertex 1.5 0 5
      vertex 19.5019 -3.46437 5
    endloop
  endfacet
endsolid OpenSCAD_Model
