solid OpenSCAD_Model
  facet normal -1 0 0
    outer loop
      vertex -4.56469 -0.970255 0
      vertex -4.56469 -0.970255 25
      vertex -4.56469 0.970255 0
    endloop
  endfacet
  facet normal -1 0 0
    outer loop
      vertex -4.56469 0.970255 0
      vertex -4.56469 -0.970255 25
      vertex -4.56469 0.970255 25
    endloop
  endfacet
  facet normal -0.913545 -0.406737 0
    outer loop
      vertex -4.56469 -0.970255 0
      vertex -3.77541 -2.743 0
      vertex -4.56469 -0.970255 25
    endloop
  endfacet
  facet normal -0.913545 -0.406737 0
    outer loop
      vertex -4.56469 -0.970255 25
      vertex -3.77541 -2.743 0
      vertex -3.77541 -2.743 25
    endloop
  endfacet
  facet normal 0 0 -1
    outer loop
      vertex -4.56469 -0.970255 0
      vertex -4.56469 0.970255 0
      vertex -3.77541 -2.743 0
    endloop
  endfacet
  facet normal 0 0 -1
    outer loop
      vertex -3.77541 -2.743 0
      vertex -4.56469 0.970255 0
      vertex -3.77541 2.743 0
    endloop
  endfacet
  facet normal 0 0 -1
    outer loop
      vertex -3.77541 -2.743 0
      vertex -3.77541 2.743 0
      vertex -2.33333 4.04145 0
    endloop
  endfacet
  facet normal 0 0 -1
    outer loop
      vertex -3.77541 -2.743 0
      vertex -2.33333 4.04145 0
      vertex -0.487799 4.6411 0
    endloop
  endfacet
  facet normal 0 0 -1
    outer loop
      vertex 0.463525 1.42658 0
      vertex -0.487799 4.6411 0
      vertex 19.5122 4.6411 0
    endloop
  endfacet
  facet normal 0 0 -1
    outer loop
      vertex 0.463525 -1.42658 0
      vertex 19.5122 4.6411 0
      vertex 21.4421 4.43826 0
    endloop
  endfacet
  facet normal 0 0 -1
    outer loop
      vertex -3.77541 -2.743 0
      vertex 21.4421 4.43826 0
      vertex 23.1226 3.46801 0
    endloop
  endfacet
  facet normal 0 0 -1
    outer loop
      vertex -3.77541 -2.743 0
      vertex 23.1226 3.46801 0
      vertex 24.2632 1.8981 0
    endloop
  endfacet
  facet normal 0 0 -1
    outer loop
      vertex -3.77541 -2.743 0
      vertex 24.2632 1.8981 0
      vertex 24.6667 0 0
    endloop
  endfacet
  facet normal 0 0 -1
    outer loop
      vertex -3.77541 -2.743 0
      vertex 24.6667 0 0
      vertex 24.2632 -1.8981 0
    endloop
  endfacet
  facet normal 0 0 -1
    outer loop
      vertex -3.77541 -2.743 0
      vertex 24.2632 -1.8981 0
      vertex 23.1226 -3.46801 0
    endloop
  endfacet
  facet normal 0 0 -1
    outer loop
      vertex -3.77541 -2.743 0
      vertex 23.1226 -3.46801 0
      vertex 21.4421 -4.43826 0
    endloop
  endfacet
  facet normal 0 0 -1
    outer loop
      vertex -3.77541 -2.743 0
      vertex 21.4421 -4.43826 0
      vertex 19.5122 -4.6411 0
    endloop
  endfacet
  facet normal 0 0 -1
    outer loop
      vertex -3.77541 -2.743 0
      vertex 19.5122 -4.6411 0
      vertex -0.487799 -4.6411 0
    endloop
  endfacet
  facet normal 0 0 -1
    outer loop
      vertex -3.77541 -2.743 0
      vertex -0.487799 -4.6411 0
      vertex -2.33333 -4.04145 0
    endloop
  endfacet
  facet normal 0 0 -1
    outer loop
      vertex -3.77541 -2.743 0
      vertex -0.487799 4.6411 0
      vertex -1.21352 0.881678 0
    endloop
  endfacet
  facet normal 0 0 -1
    outer loop
      vertex -3.77541 -2.743 0
      vertex -1.21352 0.881678 0
      vertex -1.21352 -0.881678 0
    endloop
  endfacet
  facet normal 0 0 -1
    outer loop
      vertex 1.5 0 0
      vertex 19.5122 4.6411 0
      vertex 0.463525 -1.42658 0
    endloop
  endfacet
  facet normal 0 0 -1
    outer loop
      vertex -3.77541 -2.743 0
      vertex 0.463525 -1.42658 0
      vertex 21.4421 4.43826 0
    endloop
  endfacet
  facet normal 0 0 -1
    outer loop
      vertex 0.463525 1.42658 0
      vertex 19.5122 4.6411 0
      vertex 1.5 0 0
    endloop
  endfacet
  facet normal 0 0 -1
    outer loop
      vertex -1.21352 0.881678 0
      vertex -0.487799 4.6411 0
      vertex 0.463525 1.42658 0
    endloop
  endfacet
  facet normal 0 0 -1
    outer loop
      vertex 0.463525 -1.42658 0
      vertex -3.77541 -2.743 0
      vertex -1.21352 -0.881678 0
    endloop
  endfacet
  facet normal -0.913545 0.406737 0
    outer loop
      vertex -4.56469 0.970255 0
      vertex -4.56469 0.970255 25
      vertex -3.77541 2.743 0
    endloop
  endfacet
  facet normal -0.913545 0.406737 0
    outer loop
      vertex -3.77541 2.743 0
      vertex -4.56469 0.970255 25
      vertex -3.77541 2.743 25
    endloop
  endfacet
  facet normal 0 0 1
    outer loop
      vertex -4.56469 0.970255 25
      vertex -4.56469 -0.970255 25
      vertex -3.77541 -2.743 25
    endloop
  endfacet
  facet normal 0 0 1
    outer loop
      vertex -0.487799 -4.6411 25
      vertex -4.56469 0.970255 25
      vertex -2.33333 -4.04145 25
    endloop
  endfacet
  facet normal 0 0 1
    outer loop
      vertex -2.33333 -4.04145 25
      vertex -4.56469 0.970255 25
      vertex -3.77541 -2.743 25
    endloop
  endfacet
  facet normal 0 0 1
    outer loop
      vertex 4.17887 -4.6411 25
      vertex -4.56469 0.970255 25
      vertex -0.487799 -4.6411 25
    endloop
  endfacet
  facet normal 0 0 1
    outer loop
      vertex -1.21352 -0.881678 25
      vertex -4.56469 0.970255 25
      vertex 4.17887 -4.6411 25
    endloop
  endfacet
  facet normal 0 0 1
    outer loop
      vertex 1.5 0 25
      vertex 7.78928 -3.46801 25
      vertex 8.92988 -1.8981 25
    endloop
  endfacet
  facet normal 0 0 1
    outer loop
      vertex 0.463525 1.42658 25
      vertex 1.5 0 25
      vertex 9.33333 0 25
    endloop
  endfacet
  facet normal 0 0 1
    outer loop
      vertex 6.10875 4.43826 25
      vertex -4.56469 0.970255 25
      vertex 7.78928 3.46801 25
    endloop
  endfacet
  facet normal 0 0 1
    outer loop
      vertex 4.17887 4.6411 25
      vertex -4.56469 0.970255 25
      vertex 6.10875 4.43826 25
    endloop
  endfacet
  facet normal 0 0 1
    outer loop
      vertex -0.487799 4.6411 25
      vertex -4.56469 0.970255 25
      vertex 4.17887 4.6411 25
    endloop
  endfacet
  facet normal 0 0 1
    outer loop
      vertex -2.33333 4.04145 25
      vertex -4.56469 0.970255 25
      vertex -0.487799 4.6411 25
    endloop
  endfacet
  facet normal 0 0 1
    outer loop
      vertex -3.77541 2.743 25
      vertex -4.56469 0.970255 25
      vertex -2.33333 4.04145 25
    endloop
  endfacet
  facet normal 0 0 1
    outer loop
      vertex 6.10875 -4.43826 25
      vertex -1.21352 -0.881678 25
      vertex 4.17887 -4.6411 25
    endloop
  endfacet
  facet normal 0 0 1
    outer loop
      vertex 1.5 0 25
      vertex 0.463525 -1.42658 25
      vertex 7.78928 -3.46801 25
    endloop
  endfacet
  facet normal 0 0 1
    outer loop
      vertex 0.463525 1.42658 25
      vertex 9.33333 0 25
      vertex 8.92988 1.8981 25
    endloop
  endfacet
  facet normal 0 0 1
    outer loop
      vertex 7.78928 3.46801 25
      vertex 0.463525 1.42658 25
      vertex 8.92988 1.8981 25
    endloop
  endfacet
  facet normal 0 0 1
    outer loop
      vertex 7.78928 3.46801 25
      vertex -4.56469 0.970255 25
      vertex 0.463525 1.42658 25
    endloop
  endfacet
  facet normal 0 0 1
    outer loop
      vertex 9.33333 0 25
      vertex 1.5 0 25
      vertex 8.92988 -1.8981 25
    endloop
  endfacet
  facet normal 0 0 1
    outer loop
      vertex -1.21352 0.881678 25
      vertex 0.463525 1.42658 25
      vertex -4.56469 0.970255 25
    endloop
  endfacet
  facet normal 0 0 1
    outer loop
      vertex 7.78928 -3.46801 25
      vertex 0.463525 -1.42658 25
      vertex 6.10875 -4.43826 25
    endloop
  endfacet
  facet normal 0 0 1
    outer loop
      vertex 0.463525 -1.42658 25
      vertex -1.21352 -0.881678 25
      vertex 6.10875 -4.43826 25
    endloop
  endfacet
  facet normal 0 0 1
    outer loop
      vertex -1.21352 -0.881678 25
      vertex -1.21352 0.881678 25
      vertex -4.56469 0.970255 25
    endloop
  endfacet
  facet normal -0.66913 -0.743145 0
    outer loop
      vertex -3.77541 -2.743 25
      vertex -3.77541 -2.743 0
      vertex -2.33333 -4.04145 0
    endloop
  endfacet
  facet normal -0.66913 -0.743145 0
    outer loop
      vertex -2.33333 -4.04145 25
      vertex -3.77541 -2.743 25
      vertex -2.33333 -4.04145 0
    endloop
  endfacet
  facet normal -0.309017 -0.951057 0
    outer loop
      vertex -2.33333 -4.04145 25
      vertex -2.33333 -4.04145 0
      vertex -0.487799 -4.6411 0
    endloop
  endfacet
  facet normal -0.309017 -0.951057 0
    outer loop
      vertex -0.487799 -4.6411 25
      vertex -2.33333 -4.04145 25
      vertex -0.487799 -4.6411 0
    endloop
  endfacet
  facet normal 0 -1 0
    outer loop
      vertex -0.487799 -4.6411 25
      vertex -0.487799 -4.6411 0
      vertex 19.5122 -4.6411 0
    endloop
  endfacet
  facet normal 0 -1 0
    outer loop
      vertex 4.17887 -4.6411 23.2
      vertex -0.487799 -4.6411 25
      vertex 19.5122 -4.6411 0
    endloop
  endfacet
  facet normal 0 -1 0
    outer loop
      vertex 19.5122 -4.6411 23.2
      vertex 4.17887 -4.6411 23.2
      vertex 19.5122 -4.6411 0
    endloop
  endfacet
  facet normal 0 -1 0
    outer loop
      vertex 4.17887 -4.6411 23.2
      vertex 4.17887 -4.6411 25
      vertex -0.487799 -4.6411 25
    endloop
  endfacet
  facet normal 0.104528 -0.994522 0
    outer loop
      vertex 19.5122 -4.6411 23.2
      vertex 19.5122 -4.6411 0
      vertex 21.4421 -4.43826 0
    endloop
  endfacet
  facet normal 0.104528 -0.994522 0
    outer loop
      vertex 21.4421 -4.43826 23.2
      vertex 19.5122 -4.6411 23.2
      vertex 21.4421 -4.43826 0
    endloop
  endfacet
  facet normal 0.5 -0.866025 0
    outer loop
      vertex 21.4421 -4.43826 23.2
      vertex 21.4421 -4.43826 0
      vertex 23.1226 -3.46801 0
    endloop
  endfacet
  facet normal 0.5 -0.866025 0
    outer loop
      vertex 23.1226 -3.46801 23.2
      vertex 21.4421 -4.43826 23.2
      vertex 23.1226 -3.46801 0
    endloop
  endfacet
  facet normal 0.809017 -0.587785 0
    outer loop
      vertex 23.1226 -3.46801 23.2
      vertex 23.1226 -3.46801 0
      vertex 24.2632 -1.8981 0
    endloop
  endfacet
  facet normal 0.809017 -0.587785 0
    outer loop
      vertex 24.2632 -1.8981 23.2
      vertex 23.1226 -3.46801 23.2
      vertex 24.2632 -1.8981 0
    endloop
  endfacet
  facet normal 0.978148 -0.207912 0
    outer loop
      vertex 24.2632 -1.8981 23.2
      vertex 24.2632 -1.8981 0
      vertex 24.6667 0 0
    endloop
  endfacet
  facet normal 0.978148 -0.207912 0
    outer loop
      vertex 24.6667 0 23.2
      vertex 24.2632 -1.8981 23.2
      vertex 24.6667 0 0
    endloop
  endfacet
  facet normal 0.978148 0.207912 0
    outer loop
      vertex 24.6667 0 0
      vertex 24.2632 1.8981 0
      vertex 24.2632 1.8981 23.2
    endloop
  endfacet
  facet normal 0.978148 0.207912 0
    outer loop
      vertex 24.6667 0 23.2
      vertex 24.6667 0 0
      vertex 24.2632 1.8981 23.2
    endloop
  endfacet
  facet normal 0.809017 0.587785 0
    outer loop
      vertex 24.2632 1.8981 0
      vertex 23.1226 3.46801 0
      vertex 23.1226 3.46801 23.2
    endloop
  endfacet
  facet normal 0.809017 0.587785 0
    outer loop
      vertex 24.2632 1.8981 23.2
      vertex 24.2632 1.8981 0
      vertex 23.1226 3.46801 23.2
    endloop
  endfacet
  facet normal 0.5 0.866025 0
    outer loop
      vertex 21.4421 4.43826 0
      vertex 21.4421 4.43826 23.2
      vertex 23.1226 3.46801 0
    endloop
  endfacet
  facet normal 0.5 0.866025 0
    outer loop
      vertex 23.1226 3.46801 0
      vertex 21.4421 4.43826 23.2
      vertex 23.1226 3.46801 23.2
    endloop
  endfacet
  facet normal 0.104528 0.994522 0
    outer loop
      vertex 19.5122 4.6411 0
      vertex 19.5122 4.6411 23.2
      vertex 21.4421 4.43826 0
    endloop
  endfacet
  facet normal 0.104528 0.994522 0
    outer loop
      vertex 21.4421 4.43826 0
      vertex 19.5122 4.6411 23.2
      vertex 21.4421 4.43826 23.2
    endloop
  endfacet
  facet normal 0 1 0
    outer loop
      vertex -0.487799 4.6411 0
      vertex -0.487799 4.6411 25
      vertex 19.5122 4.6411 0
    endloop
  endfacet
  facet normal 0 1 0
    outer loop
      vertex 4.17887 4.6411 23.2
      vertex -0.487799 4.6411 25
      vertex 4.17887 4.6411 25
    endloop
  endfacet
  facet normal 0 1 0
    outer loop
      vertex 19.5122 4.6411 0
      vertex -0.487799 4.6411 25
      vertex 4.17887 4.6411 23.2
    endloop
  endfacet
  facet normal 0 1 0
    outer loop
      vertex 19.5122 4.6411 23.2
      vertex 19.5122 4.6411 0
      vertex 4.17887 4.6411 23.2
    endloop
  endfacet
  facet normal -0.309017 0.951057 0
    outer loop
      vertex -2.33333 4.04145 0
      vertex -2.33333 4.04145 25
      vertex -0.487799 4.6411 0
    endloop
  endfacet
  facet normal -0.309017 0.951057 0
    outer loop
      vertex -0.487799 4.6411 0
      vertex -2.33333 4.04145 25
      vertex -0.487799 4.6411 25
    endloop
  endfacet
  facet normal -0.66913 0.743145 0
    outer loop
      vertex -3.77541 2.743 0
      vertex -3.77541 2.743 25
      vertex -2.33333 4.04145 0
    endloop
  endfacet
  facet normal -0.66913 0.743145 0
    outer loop
      vertex -2.33333 4.04145 0
      vertex -3.77541 2.743 25
      vertex -2.33333 4.04145 25
    endloop
  endfacet
  facet normal 0.309017 -0.951056 0
    outer loop
      vertex 0.463525 1.42658 0
      vertex 0.463525 1.42658 25
      vertex -1.21352 0.881678 25
    endloop
  endfacet
  facet normal 0.309017 -0.951056 0
    outer loop
      vertex -1.21352 0.881678 0
      vertex 0.463525 1.42658 0
      vertex -1.21352 0.881678 25
    endloop
  endfacet
  facet normal 1 0 0
    outer loop
      vertex -1.21352 0.881678 0
      vertex -1.21352 0.881678 25
      vertex -1.21352 -0.881678 25
    endloop
  endfacet
  facet normal 1 0 0
    outer loop
      vertex -1.21352 -0.881678 0
      vertex -1.21352 0.881678 0
      vertex -1.21352 -0.881678 25
    endloop
  endfacet
  facet normal -0.809017 -0.587785 0
    outer loop
      vertex 1.5 0 25
      vertex 0.463525 1.42658 25
      vertex 1.5 0 0
    endloop
  endfacet
  facet normal -0.809017 -0.587785 0
    outer loop
      vertex 1.5 0 0
      vertex 0.463525 1.42658 25
      vertex 0.463525 1.42658 0
    endloop
  endfacet
  facet normal -0.809017 0.587785 0
    outer loop
      vertex 1.5 0 25
      vertex 1.5 0 0
      vertex 0.463525 -1.42658 25
    endloop
  endfacet
  facet normal -0.809017 0.587785 0
    outer loop
      vertex 0.463525 -1.42658 25
      vertex 1.5 0 0
      vertex 0.463525 -1.42658 0
    endloop
  endfacet
  facet normal 0.309017 0.951056 0
    outer loop
      vertex 0.463525 -1.42658 25
      vertex 0.463525 -1.42658 0
      vertex -1.21352 -0.881678 25
    endloop
  endfacet
  facet normal 0.309017 0.951056 0
    outer loop
      vertex -1.21352 -0.881678 25
      vertex 0.463525 -1.42658 0
      vertex -1.21352 -0.881678 0
    endloop
  endfacet
  facet normal 0.104528 0.994522 0
    outer loop
      vertex 4.17887 4.6411 23.2
      vertex 4.17887 4.6411 25
      vertex 6.10875 4.43826 23.2
    endloop
  endfacet
  facet normal 0.104528 0.994522 0
    outer loop
      vertex 6.10875 4.43826 23.2
      vertex 4.17887 4.6411 25
      vertex 6.10875 4.43826 25
    endloop
  endfacet
  facet normal 0.5 0.866025 0
    outer loop
      vertex 6.10875 4.43826 23.2
      vertex 6.10875 4.43826 25
      vertex 7.78928 3.46801 23.2
    endloop
  endfacet
  facet normal 0.5 0.866025 0
    outer loop
      vertex 7.78928 3.46801 23.2
      vertex 6.10875 4.43826 25
      vertex 7.78928 3.46801 25
    endloop
  endfacet
  facet normal 0.809017 0.587785 0
    outer loop
      vertex 8.92988 1.8981 23.2
      vertex 7.78928 3.46801 23.2
      vertex 7.78928 3.46801 25
    endloop
  endfacet
  facet normal 0.809017 0.587785 0
    outer loop
      vertex 8.92988 1.8981 25
      vertex 8.92988 1.8981 23.2
      vertex 7.78928 3.46801 25
    endloop
  endfacet
  facet normal 0.978148 0.207912 0
    outer loop
      vertex 9.33333 0 23.2
      vertex 8.92988 1.8981 23.2
      vertex 8.92988 1.8981 25
    endloop
  endfacet
  facet normal 0.978148 0.207912 0
    outer loop
      vertex 9.33333 0 25
      vertex 9.33333 0 23.2
      vertex 8.92988 1.8981 25
    endloop
  endfacet
  facet normal 0.978148 -0.207912 0
    outer loop
      vertex 8.92988 -1.8981 25
      vertex 8.92988 -1.8981 23.2
      vertex 9.33333 0 23.2
    endloop
  endfacet
  facet normal 0.978148 -0.207912 0
    outer loop
      vertex 9.33333 0 25
      vertex 8.92988 -1.8981 25
      vertex 9.33333 0 23.2
    endloop
  endfacet
  facet normal 0.809017 -0.587785 0
    outer loop
      vertex 7.78928 -3.46801 25
      vertex 7.78928 -3.46801 23.2
      vertex 8.92988 -1.8981 23.2
    endloop
  endfacet
  facet normal 0.809017 -0.587785 0
    outer loop
      vertex 8.92988 -1.8981 25
      vertex 7.78928 -3.46801 25
      vertex 8.92988 -1.8981 23.2
    endloop
  endfacet
  facet normal 0.5 -0.866025 0
    outer loop
      vertex 6.10875 -4.43826 25
      vertex 6.10875 -4.43826 23.2
      vertex 7.78928 -3.46801 23.2
    endloop
  endfacet
  facet normal 0.5 -0.866025 0
    outer loop
      vertex 7.78928 -3.46801 25
      vertex 6.10875 -4.43826 25
      vertex 7.78928 -3.46801 23.2
    endloop
  endfacet
  facet normal 0.104528 -0.994522 0
    outer loop
      vertex 4.17887 -4.6411 25
      vertex 4.17887 -4.6411 23.2
      vertex 6.10875 -4.43826 23.2
    endloop
  endfacet
  facet normal 0.104528 -0.994522 0
    outer loop
      vertex 6.10875 -4.43826 25
      vertex 4.17887 -4.6411 25
      vertex 6.10875 -4.43826 23.2
    endloop
  endfacet
  facet normal 0 0 1
    outer loop
      vertex 6.10875 -4.43826 23.2
      vertex 4.17887 -4.6411 23.2
      vertex 19.5122 -4.6411 23.2
    endloop
  endfacet
  facet normal 0 0 1
    outer loop
      vertex 23.1226 -3.46801 23.2
      vertex 6.10875 -4.43826 23.2
      vertex 21.4421 -4.43826 23.2
    endloop
  endfacet
  facet normal 0 0 1
    outer loop
      vertex 21.4421 -4.43826 23.2
      vertex 6.10875 -4.43826 23.2
      vertex 19.5122 -4.6411 23.2
    endloop
  endfacet
  facet normal 0 0 1
    outer loop
      vertex 24.2632 -1.8981 23.2
      vertex 6.10875 -4.43826 23.2
      vertex 23.1226 -3.46801 23.2
    endloop
  endfacet
  facet normal 0 0 1
    outer loop
      vertex 9.33333 0 23.2
      vertex 8.92988 -1.8981 23.2
      vertex 19.5122 4.6411 23.2
    endloop
  endfacet
  facet normal 0 0 1
    outer loop
      vertex 8.92988 -1.8981 23.2
      vertex 24.2632 1.8981 23.2
      vertex 23.1226 3.46801 23.2
    endloop
  endfacet
  facet normal 0 0 1
    outer loop
      vertex 8.92988 -1.8981 23.2
      vertex 23.1226 3.46801 23.2
      vertex 21.4421 4.43826 23.2
    endloop
  endfacet
  facet normal 0 0 1
    outer loop
      vertex 4.17887 4.6411 23.2
      vertex 6.10875 4.43826 23.2
      vertex 19.5122 4.6411 23.2
    endloop
  endfacet
  facet normal 0 0 1
    outer loop
      vertex 6.10875 4.43826 23.2
      vertex 7.78928 3.46801 23.2
      vertex 19.5122 4.6411 23.2
    endloop
  endfacet
  facet normal 0 0 1
    outer loop
      vertex 7.78928 3.46801 23.2
      vertex 8.92988 1.8981 23.2
      vertex 19.5122 4.6411 23.2
    endloop
  endfacet
  facet normal 0 0 1
    outer loop
      vertex 8.92988 1.8981 23.2
      vertex 9.33333 0 23.2
      vertex 19.5122 4.6411 23.2
    endloop
  endfacet
  facet normal 0 0 1
    outer loop
      vertex 19.5122 4.6411 23.2
      vertex 8.92988 -1.8981 23.2
      vertex 21.4421 4.43826 23.2
    endloop
  endfacet
  facet normal 0 0 1
    outer loop
      vertex 24.2632 1.8981 23.2
      vertex 7.78928 -3.46801 23.2
      vertex 24.6667 0 23.2
    endloop
  endfacet
  facet normal 0 0 1
    outer loop
      vertex 7.78928 -3.46801 23.2
      vertex 24.2632 -1.8981 23.2
      vertex 24.6667 0 23.2
    endloop
  endfacet
  facet normal 0 0 1
    outer loop
      vertex 7.78928 -3.46801 23.2
      vertex 6.10875 -4.43826 23.2
      vertex 24.2632 -1.8981 23.2
    endloop
  endfacet
  facet normal 0 0 1
    outer loop
      vertex 8.92988 -1.8981 23.2
      vertex 7.78928 -3.46801 23.2
      vertex 24.2632 1.8981 23.2
    endloop
  endfacet
endsolid OpenSCAD_Model
