solid OpenSCAD_Model
  facet normal -0.994522 0.104528 0
    outer loop
      vertex -10 0 0
      vertex -10 0 10
      vertex -9.78148 2.07912 0
    endloop
  endfacet
  facet normal -0.994522 0.104528 0
    outer loop
      vertex -9.78148 2.07912 0
      vertex -10 0 10
      vertex -9.78148 2.07912 10
    endloop
  endfacet
  facet normal 0 -1 0
    outer loop
      vertex -4.17836 0 0
      vertex -4.17836 0 10
      vertex -10 0 10
    endloop
  endfacet
  facet normal 0 -1 0
    outer loop
      vertex -10 0 0
      vertex -4.17836 0 0
      vertex -10 0 10
    endloop
  endfacet
  facet normal 0 0 -1
    outer loop
      vertex -10 0 0
      vertex -9.78148 2.07912 0
      vertex -4.17836 0 0
    endloop
  endfacet
  facet normal 0 0 -1
    outer loop
      vertex -4.17836 0 0
      vertex -9.78148 2.07912 0
      vertex -9.13546 4.06737 0
    endloop
  endfacet
  facet normal 0 0 -1
    outer loop
      vertex -4.17836 0 0
      vertex -9.13546 4.06737 0
      vertex -8.09017 5.87785 0
    endloop
  endfacet
  facet normal 0 0 -1
    outer loop
      vertex -4.17836 0 0
      vertex -8.09017 5.87785 0
      vertex -6.69131 7.43145 0
    endloop
  endfacet
  facet normal 0 0 -1
    outer loop
      vertex -4.17836 0 0
      vertex -6.69131 7.43145 0
      vertex -5 8.66025 0
    endloop
  endfacet
  facet normal 0 0 -1
    outer loop
      vertex -4.17836 0 0
      vertex -5 8.66025 0
      vertex -3.09017 9.51056 0
    endloop
  endfacet
  facet normal 0 0 -1
    outer loop
      vertex -3.86031 1.59899 0
      vertex -3.09017 9.51056 0
      vertex -1.04529 9.94522 0
    endloop
  endfacet
  facet normal 0 0 -1
    outer loop
      vertex 1.59899 3.86031 0
      vertex -1.04529 9.94522 0
      vertex 19.24 9.94522 0
    endloop
  endfacet
  facet normal 0 0 -1
    outer loop
      vertex 19.24 27.375 0
      vertex 19.4956 29.3161 0
      vertex 19.24 9.94522 0
    endloop
  endfacet
  facet normal 0 0 -1
    outer loop
      vertex 19.24 9.94522 0
      vertex 19.4956 29.3161 0
      vertex 20.2448 31.125 0
    endloop
  endfacet
  facet normal 0 0 -1
    outer loop
      vertex 19.24 9.94522 0
      vertex 20.2448 31.125 0
      vertex 21.4367 32.6783 0
    endloop
  endfacet
  facet normal 0 0 -1
    outer loop
      vertex 19.24 9.94522 0
      vertex 21.4367 32.6783 0
      vertex 22.99 33.8702 0
    endloop
  endfacet
  facet normal 0 0 -1
    outer loop
      vertex 19.24 9.94522 0
      vertex 22.99 33.8702 0
      vertex 24.7989 34.6194 0
    endloop
  endfacet
  facet normal 0 0 -1
    outer loop
      vertex 19.24 9.94522 0
      vertex 24.7989 34.6194 0
      vertex 26.74 34.875 0
    endloop
  endfacet
  facet normal 0 0 -1
    outer loop
      vertex 24.9079 27.375 0
      vertex 26.74 34.875 0
      vertex 28.6811 34.6194 0
    endloop
  endfacet
  facet normal 0 0 -1
    outer loop
      vertex 27.656 28.9616 0
      vertex 28.6811 34.6194 0
      vertex 30.49 33.8702 0
    endloop
  endfacet
  facet normal 0 0 -1
    outer loop
      vertex 28.5721 27.375 0
      vertex 30.49 33.8702 0
      vertex 32.0433 32.6783 0
    endloop
  endfacet
  facet normal 0 0 -1
    outer loop
      vertex 19.24 9.94522 0
      vertex 32.0433 32.6783 0
      vertex 33.2352 31.125 0
    endloop
  endfacet
  facet normal 0 0 -1
    outer loop
      vertex 19.24 9.94522 0
      vertex 33.2352 31.125 0
      vertex 33.9844 29.3161 0
    endloop
  endfacet
  facet normal 0 0 -1
    outer loop
      vertex 19.24 9.94522 0
      vertex 33.9844 29.3161 0
      vertex 34.24 27.375 0
    endloop
  endfacet
  facet normal 0 0 -1
    outer loop
      vertex 28.5721 10 0
      vertex 34.24 27.375 0
      vertex 34.24 9.94522 0
    endloop
  endfacet
  facet normal 0 0 -1
    outer loop
      vertex 27.656 8.4134 0
      vertex 34.24 9.94522 0
      vertex 3.86031 1.59899 0
    endloop
  endfacet
  facet normal 0 0 -1
    outer loop
      vertex 115.76 27.375 0
      vertex 116.016 29.3161 0
      vertex 115.76 9.94522 0
    endloop
  endfacet
  facet normal 0 0 -1
    outer loop
      vertex 115.76 9.94522 0
      vertex 116.016 29.3161 0
      vertex 116.765 31.125 0
    endloop
  endfacet
  facet normal 0 0 -1
    outer loop
      vertex 115.76 9.94522 0
      vertex 116.765 31.125 0
      vertex 117.957 32.6783 0
    endloop
  endfacet
  facet normal 0 0 -1
    outer loop
      vertex 115.76 9.94522 0
      vertex 117.957 32.6783 0
      vertex 119.51 33.8702 0
    endloop
  endfacet
  facet normal 0 0 -1
    outer loop
      vertex 115.76 9.94522 0
      vertex 119.51 33.8702 0
      vertex 121.319 34.6194 0
    endloop
  endfacet
  facet normal 0 0 -1
    outer loop
      vertex 115.76 9.94522 0
      vertex 121.319 34.6194 0
      vertex 123.26 34.875 0
    endloop
  endfacet
  facet normal 0 0 -1
    outer loop
      vertex 121.428 27.375 0
      vertex 123.26 34.875 0
      vertex 125.201 34.6194 0
    endloop
  endfacet
  facet normal 0 0 -1
    outer loop
      vertex 124.176 28.9616 0
      vertex 125.201 34.6194 0
      vertex 127.01 33.8702 0
    endloop
  endfacet
  facet normal 0 0 -1
    outer loop
      vertex 125.092 27.375 0
      vertex 127.01 33.8702 0
      vertex 128.563 32.6783 0
    endloop
  endfacet
  facet normal 0 0 -1
    outer loop
      vertex 115.76 9.94522 0
      vertex 128.563 32.6783 0
      vertex 129.755 31.125 0
    endloop
  endfacet
  facet normal 0 0 -1
    outer loop
      vertex 115.76 9.94522 0
      vertex 129.755 31.125 0
      vertex 130.504 29.3161 0
    endloop
  endfacet
  facet normal 0 0 -1
    outer loop
      vertex 115.76 9.94522 0
      vertex 130.504 29.3161 0
      vertex 130.76 27.375 0
    endloop
  endfacet
  facet normal 0 0 -1
    outer loop
      vertex 125.092 10 0
      vertex 130.76 27.375 0
      vertex 130.76 9.94522 0
    endloop
  endfacet
  facet normal 0 0 -1
    outer loop
      vertex 2.95455 2.95455 0
      vertex 27.656 8.4134 0
      vertex 3.86031 1.59899 0
    endloop
  endfacet
  facet normal 0 0 -1
    outer loop
      vertex 150 4.17836 0
      vertex 158.09 5.87785 0
      vertex 159.135 4.06737 0
    endloop
  endfacet
  facet normal 0 0 -1
    outer loop
      vertex 152.955 2.95455 0
      vertex 159.135 4.06737 0
      vertex 159.781 2.07912 0
    endloop
  endfacet
  facet normal 0 0 -1
    outer loop
      vertex 154.178 0 0
      vertex 159.781 2.07912 0
      vertex 160 0 0
    endloop
  endfacet
  facet normal 0 0 -1
    outer loop
      vertex 153.86 1.59899 0
      vertex 159.781 2.07912 0
      vertex 154.178 0 0
    endloop
  endfacet
  facet normal 0 0 -1
    outer loop
      vertex 151.599 3.86031 0
      vertex 159.135 4.06737 0
      vertex 152.955 2.95455 0
    endloop
  endfacet
  facet normal 0 0 -1
    outer loop
      vertex 150 4.17836 0
      vertex 159.135 4.06737 0
      vertex 151.599 3.86031 0
    endloop
  endfacet
  facet normal 0 0 -1
    outer loop
      vertex 123.26 0 0
      vertex 26.74 0 0
      vertex 146.14 1.59899 0
    endloop
  endfacet
  facet normal 0 0 -1
    outer loop
      vertex 26.74 0 0
      vertex 4.17836 0 0
      vertex 146.14 1.59899 0
    endloop
  endfacet
  facet normal 0 0 -1
    outer loop
      vertex 3.86031 1.59899 0
      vertex 124.176 8.4134 0
      vertex 153.09 9.51056 0
    endloop
  endfacet
  facet normal 0 0 -1
    outer loop
      vertex 125.092 10 0
      vertex 130.76 9.94522 0
      vertex 124.176 8.4134 0
    endloop
  endfacet
  facet normal 0 0 -1
    outer loop
      vertex 130.76 9.94522 0
      vertex 151.045 9.94522 0
      vertex 124.176 8.4134 0
    endloop
  endfacet
  facet normal 0 0 -1
    outer loop
      vertex 3.86031 1.59899 0
      vertex 122.344 8.4134 0
      vertex 124.176 8.4134 0
    endloop
  endfacet
  facet normal 0 0 -1
    outer loop
      vertex 124.176 8.4134 0
      vertex 151.045 9.94522 0
      vertex 153.09 9.51056 0
    endloop
  endfacet
  facet normal 0 0 -1
    outer loop
      vertex 34.24 9.94522 0
      vertex 115.76 9.94522 0
      vertex 3.86031 1.59899 0
    endloop
  endfacet
  facet normal 0 0 -1
    outer loop
      vertex 0 4.17836 0
      vertex -1.04529 9.94522 0
      vertex 1.59899 3.86031 0
    endloop
  endfacet
  facet normal 0 0 -1
    outer loop
      vertex -3.86031 1.59899 0
      vertex -1.04529 9.94522 0
      vertex -2.95455 2.95455 0
    endloop
  endfacet
  facet normal 0 0 -1
    outer loop
      vertex -1.59899 3.86031 0
      vertex -1.04529 9.94522 0
      vertex 0 4.17836 0
    endloop
  endfacet
  facet normal 0 0 -1
    outer loop
      vertex -2.95455 2.95455 0
      vertex -1.04529 9.94522 0
      vertex -1.59899 3.86031 0
    endloop
  endfacet
  facet normal 0 0 -1
    outer loop
      vertex 122.344 8.4134 0
      vertex 3.86031 1.59899 0
      vertex 115.76 9.94522 0
    endloop
  endfacet
  facet normal 0 0 -1
    outer loop
      vertex -4.17836 0 0
      vertex -3.09017 9.51056 0
      vertex -3.86031 1.59899 0
    endloop
  endfacet
  facet normal 0 0 -1
    outer loop
      vertex 25.824 8.4134 0
      vertex 19.24 9.94522 0
      vertex 24.9079 10 0
    endloop
  endfacet
  facet normal 0 0 -1
    outer loop
      vertex 19.24 9.94522 0
      vertex 34.24 27.375 0
      vertex 24.9079 10 0
    endloop
  endfacet
  facet normal 0 0 -1
    outer loop
      vertex 27.656 8.4134 0
      vertex 2.95455 2.95455 0
      vertex 25.824 8.4134 0
    endloop
  endfacet
  facet normal 0 0 -1
    outer loop
      vertex 19.24 9.94522 0
      vertex 25.824 8.4134 0
      vertex 2.95455 2.95455 0
    endloop
  endfacet
  facet normal 0 0 -1
    outer loop
      vertex 28.5721 10 0
      vertex 34.24 9.94522 0
      vertex 27.656 8.4134 0
    endloop
  endfacet
  facet normal 0 0 -1
    outer loop
      vertex 1.59899 3.86031 0
      vertex 19.24 9.94522 0
      vertex 2.95455 2.95455 0
    endloop
  endfacet
  facet normal 0 0 -1
    outer loop
      vertex 27.656 11.5866 0
      vertex 34.24 27.375 0
      vertex 28.5721 10 0
    endloop
  endfacet
  facet normal 0 0 -1
    outer loop
      vertex 25.824 25.7884 0
      vertex 19.24 9.94522 0
      vertex 24.9079 27.375 0
    endloop
  endfacet
  facet normal 0 0 -1
    outer loop
      vertex 25.824 11.5866 0
      vertex 34.24 27.375 0
      vertex 27.656 11.5866 0
    endloop
  endfacet
  facet normal 0 0 -1
    outer loop
      vertex 24.9079 10 0
      vertex 34.24 27.375 0
      vertex 25.824 11.5866 0
    endloop
  endfacet
  facet normal 0 0 -1
    outer loop
      vertex 19.24 9.94522 0
      vertex 26.74 34.875 0
      vertex 24.9079 27.375 0
    endloop
  endfacet
  facet normal 0 0 -1
    outer loop
      vertex 25.824 28.9616 0
      vertex 24.9079 27.375 0
      vertex 28.6811 34.6194 0
    endloop
  endfacet
  facet normal 0 0 -1
    outer loop
      vertex 27.656 25.7884 0
      vertex 19.24 9.94522 0
      vertex 25.824 25.7884 0
    endloop
  endfacet
  facet normal 0 0 -1
    outer loop
      vertex 27.656 28.9616 0
      vertex 30.49 33.8702 0
      vertex 28.5721 27.375 0
    endloop
  endfacet
  facet normal 0 0 -1
    outer loop
      vertex 19.24 9.94522 0
      vertex 27.656 25.7884 0
      vertex 32.0433 32.6783 0
    endloop
  endfacet
  facet normal 0 0 -1
    outer loop
      vertex 27.656 25.7884 0
      vertex 28.5721 27.375 0
      vertex 32.0433 32.6783 0
    endloop
  endfacet
  facet normal 0 0 -1
    outer loop
      vertex 122.344 8.4134 0
      vertex 115.76 9.94522 0
      vertex 121.428 10 0
    endloop
  endfacet
  facet normal 0 0 -1
    outer loop
      vertex 25.824 28.9616 0
      vertex 28.6811 34.6194 0
      vertex 27.656 28.9616 0
    endloop
  endfacet
  facet normal 0 0 -1
    outer loop
      vertex 115.76 9.94522 0
      vertex 130.76 27.375 0
      vertex 121.428 10 0
    endloop
  endfacet
  facet normal 0 0 -1
    outer loop
      vertex 124.176 11.5866 0
      vertex 130.76 27.375 0
      vertex 125.092 10 0
    endloop
  endfacet
  facet normal 0 0 -1
    outer loop
      vertex 122.344 25.7884 0
      vertex 115.76 9.94522 0
      vertex 121.428 27.375 0
    endloop
  endfacet
  facet normal 0 0 -1
    outer loop
      vertex 122.344 11.5866 0
      vertex 130.76 27.375 0
      vertex 124.176 11.5866 0
    endloop
  endfacet
  facet normal 0 0 -1
    outer loop
      vertex 121.428 10 0
      vertex 130.76 27.375 0
      vertex 122.344 11.5866 0
    endloop
  endfacet
  facet normal 0 0 -1
    outer loop
      vertex 115.76 9.94522 0
      vertex 123.26 34.875 0
      vertex 121.428 27.375 0
    endloop
  endfacet
  facet normal 0 0 -1
    outer loop
      vertex 122.344 28.9616 0
      vertex 121.428 27.375 0
      vertex 125.201 34.6194 0
    endloop
  endfacet
  facet normal 0 0 -1
    outer loop
      vertex 124.176 25.7884 0
      vertex 115.76 9.94522 0
      vertex 122.344 25.7884 0
    endloop
  endfacet
  facet normal 0 0 -1
    outer loop
      vertex 124.176 28.9616 0
      vertex 127.01 33.8702 0
      vertex 125.092 27.375 0
    endloop
  endfacet
  facet normal 0 0 -1
    outer loop
      vertex 115.76 9.94522 0
      vertex 124.176 25.7884 0
      vertex 128.563 32.6783 0
    endloop
  endfacet
  facet normal 0 0 -1
    outer loop
      vertex 124.176 25.7884 0
      vertex 125.092 27.375 0
      vertex 128.563 32.6783 0
    endloop
  endfacet
  facet normal 0 0 -1
    outer loop
      vertex 122.344 28.9616 0
      vertex 125.201 34.6194 0
      vertex 124.176 28.9616 0
    endloop
  endfacet
  facet normal 0 0 -1
    outer loop
      vertex 152.955 2.95455 0
      vertex 159.781 2.07912 0
      vertex 153.86 1.59899 0
    endloop
  endfacet
  facet normal 0 0 -1
    outer loop
      vertex 145.822 0 0
      vertex 123.26 0 0
      vertex 146.14 1.59899 0
    endloop
  endfacet
  facet normal 0 0 -1
    outer loop
      vertex 3.86031 1.59899 0
      vertex 153.09 9.51056 0
      vertex 155 8.66025 0
    endloop
  endfacet
  facet normal 0 0 -1
    outer loop
      vertex 3.86031 1.59899 0
      vertex 155 8.66025 0
      vertex 156.691 7.43145 0
    endloop
  endfacet
  facet normal 0 0 -1
    outer loop
      vertex 3.86031 1.59899 0
      vertex 156.691 7.43145 0
      vertex 158.09 5.87785 0
    endloop
  endfacet
  facet normal 0 0 -1
    outer loop
      vertex 3.86031 1.59899 0
      vertex 158.09 5.87785 0
      vertex 150 4.17836 0
    endloop
  endfacet
  facet normal 0 0 -1
    outer loop
      vertex 3.86031 1.59899 0
      vertex 150 4.17836 0
      vertex 148.401 3.86031 0
    endloop
  endfacet
  facet normal 0 0 -1
    outer loop
      vertex 3.86031 1.59899 0
      vertex 148.401 3.86031 0
      vertex 147.045 2.95455 0
    endloop
  endfacet
  facet normal 0 0 -1
    outer loop
      vertex 3.86031 1.59899 0
      vertex 147.045 2.95455 0
      vertex 146.14 1.59899 0
    endloop
  endfacet
  facet normal 0 0 -1
    outer loop
      vertex 3.86031 1.59899 0
      vertex 146.14 1.59899 0
      vertex 4.17836 0 0
    endloop
  endfacet
  facet normal -0.951057 0.309017 0
    outer loop
      vertex -9.78148 2.07912 0
      vertex -9.78148 2.07912 10
      vertex -9.13546 4.06737 0
    endloop
  endfacet
  facet normal -0.951057 0.309017 0
    outer loop
      vertex -9.13546 4.06737 0
      vertex -9.78148 2.07912 10
      vertex -9.13546 4.06737 10
    endloop
  endfacet
  facet normal 0 0 1
    outer loop
      vertex -9.78148 2.07912 10
      vertex -10 0 10
      vertex -4.17836 0 10
    endloop
  endfacet
  facet normal 0 0 1
    outer loop
      vertex -2.95455 2.95455 10
      vertex -9.78148 2.07912 10
      vertex -3.86031 1.59899 10
    endloop
  endfacet
  facet normal 0 0 1
    outer loop
      vertex -3.86031 1.59899 10
      vertex -9.78148 2.07912 10
      vertex -4.17836 0 10
    endloop
  endfacet
  facet normal 0 0 1
    outer loop
      vertex -1.59899 3.86031 10
      vertex -9.78148 2.07912 10
      vertex -2.95455 2.95455 10
    endloop
  endfacet
  facet normal 0 0 1
    outer loop
      vertex 19.24 27.375 10
      vertex 19.24 9.94522 10
      vertex 25.824 25.7884 10
    endloop
  endfacet
  facet normal 0 0 1
    outer loop
      vertex 26.74 0 10
      vertex 0 4.17836 10
      vertex 1.59899 3.86031 10
    endloop
  endfacet
  facet normal 0 0 1
    outer loop
      vertex 26.74 0 10
      vertex 1.59899 3.86031 10
      vertex 2.95455 2.95455 10
    endloop
  endfacet
  facet normal 0 0 1
    outer loop
      vertex 26.74 0 10
      vertex 2.95455 2.95455 10
      vertex 3.86031 1.59899 10
    endloop
  endfacet
  facet normal 0 0 1
    outer loop
      vertex 26.74 0 10
      vertex 3.86031 1.59899 10
      vertex 4.17836 0 10
    endloop
  endfacet
  facet normal 0 0 1
    outer loop
      vertex 123.26 0 10
      vertex 0 4.17836 10
      vertex 26.74 0 10
    endloop
  endfacet
  facet normal 0 0 1
    outer loop
      vertex 145.822 0 10
      vertex 0 4.17836 10
      vertex 123.26 0 10
    endloop
  endfacet
  facet normal 0 0 1
    outer loop
      vertex 146.14 1.59899 10
      vertex 0 4.17836 10
      vertex 145.822 0 10
    endloop
  endfacet
  facet normal 0 0 1
    outer loop
      vertex 147.045 2.95455 10
      vertex 0 4.17836 10
      vertex 146.14 1.59899 10
    endloop
  endfacet
  facet normal 0 0 1
    outer loop
      vertex 148.401 3.86031 10
      vertex 0 4.17836 10
      vertex 147.045 2.95455 10
    endloop
  endfacet
  facet normal 0 0 1
    outer loop
      vertex 150 4.17836 10
      vertex 0 4.17836 10
      vertex 148.401 3.86031 10
    endloop
  endfacet
  facet normal 0 0 1
    outer loop
      vertex 158.09 5.87785 10
      vertex 0 4.17836 10
      vertex 150 4.17836 10
    endloop
  endfacet
  facet normal 0 0 1
    outer loop
      vertex 159.135 4.06737 10
      vertex 150 4.17836 10
      vertex 151.599 3.86031 10
    endloop
  endfacet
  facet normal 0 0 1
    outer loop
      vertex 160 0 10
      vertex 151.599 3.86031 10
      vertex 152.955 2.95455 10
    endloop
  endfacet
  facet normal 0 0 1
    outer loop
      vertex 160 0 10
      vertex 152.955 2.95455 10
      vertex 153.86 1.59899 10
    endloop
  endfacet
  facet normal 0 0 1
    outer loop
      vertex 160 0 10
      vertex 153.86 1.59899 10
      vertex 154.178 0 10
    endloop
  endfacet
  facet normal 0 0 1
    outer loop
      vertex 159.781 2.07912 10
      vertex 151.599 3.86031 10
      vertex 160 0 10
    endloop
  endfacet
  facet normal 0 0 1
    outer loop
      vertex 159.135 4.06737 10
      vertex 151.599 3.86031 10
      vertex 159.781 2.07912 10
    endloop
  endfacet
  facet normal 0 0 1
    outer loop
      vertex 158.09 5.87785 10
      vertex 150 4.17836 10
      vertex 159.135 4.06737 10
    endloop
  endfacet
  facet normal 0 0 1
    outer loop
      vertex 156.691 7.43145 10
      vertex 0 4.17836 10
      vertex 158.09 5.87785 10
    endloop
  endfacet
  facet normal 0 0 1
    outer loop
      vertex 155 8.66025 10
      vertex 0 4.17836 10
      vertex 156.691 7.43145 10
    endloop
  endfacet
  facet normal 0 0 1
    outer loop
      vertex 124.176 8.4134 10
      vertex 0 4.17836 10
      vertex 155 8.66025 10
    endloop
  endfacet
  facet normal 0 0 1
    outer loop
      vertex 125.092 10 10
      vertex 155 8.66025 10
      vertex 153.09 9.51056 10
    endloop
  endfacet
  facet normal 0 0 1
    outer loop
      vertex 125.092 10 10
      vertex 153.09 9.51056 10
      vertex 130.76 9.94522 10
    endloop
  endfacet
  facet normal 0 0 1
    outer loop
      vertex 124.176 11.5866 10
      vertex 125.092 10 10
      vertex 130.76 9.94522 10
    endloop
  endfacet
  facet normal 0 0 1
    outer loop
      vertex 24.9079 10 10
      vertex 25.824 11.5866 10
      vertex 19.24 9.94522 10
    endloop
  endfacet
  facet normal 0 0 1
    outer loop
      vertex 25.824 25.7884 10
      vertex 19.24 9.94522 10
      vertex 27.656 25.7884 10
    endloop
  endfacet
  facet normal 0 0 1
    outer loop
      vertex 117.957 32.6783 10
      vertex 116.765 31.125 10
      vertex 127.01 33.8702 10
    endloop
  endfacet
  facet normal 0 0 1
    outer loop
      vertex 119.51 33.8702 10
      vertex 117.957 32.6783 10
      vertex 125.201 34.6194 10
    endloop
  endfacet
  facet normal 0 0 1
    outer loop
      vertex 123.26 34.875 10
      vertex 119.51 33.8702 10
      vertex 125.201 34.6194 10
    endloop
  endfacet
  facet normal 0 0 1
    outer loop
      vertex 28.5721 27.375 10
      vertex 27.656 25.7884 10
      vertex 33.9844 29.3161 10
    endloop
  endfacet
  facet normal 0 0 1
    outer loop
      vertex 125.201 34.6194 10
      vertex 117.957 32.6783 10
      vertex 127.01 33.8702 10
    endloop
  endfacet
  facet normal 0 0 1
    outer loop
      vertex 19.24 27.375 10
      vertex 25.824 25.7884 10
      vertex 24.9079 27.375 10
    endloop
  endfacet
  facet normal 0 0 1
    outer loop
      vertex 127.01 33.8702 10
      vertex 116.765 31.125 10
      vertex 128.563 32.6783 10
    endloop
  endfacet
  facet normal 0 0 1
    outer loop
      vertex -1.59899 3.86031 10
      vertex 24.9079 10 10
      vertex -9.78148 2.07912 10
    endloop
  endfacet
  facet normal 0 0 1
    outer loop
      vertex 128.563 32.6783 10
      vertex 116.016 29.3161 10
      vertex 129.755 31.125 10
    endloop
  endfacet
  facet normal 0 0 1
    outer loop
      vertex 24.9079 10 10
      vertex 19.24 9.94522 10
      vertex -9.78148 2.07912 10
    endloop
  endfacet
  facet normal 0 0 1
    outer loop
      vertex 124.176 28.9616 10
      vertex 125.092 27.375 10
      vertex 130.504 29.3161 10
    endloop
  endfacet
  facet normal 0 0 1
    outer loop
      vertex 27.656 8.4134 10
      vertex 0 4.17836 10
      vertex 115.76 9.94522 10
    endloop
  endfacet
  facet normal 0 0 1
    outer loop
      vertex 19.24 9.94522 10
      vertex -1.04529 9.94522 10
      vertex -9.78148 2.07912 10
    endloop
  endfacet
  facet normal 0 0 1
    outer loop
      vertex 19.24 27.375 10
      vertex 30.49 33.8702 10
      vertex 28.6811 34.6194 10
    endloop
  endfacet
  facet normal 0 0 1
    outer loop
      vertex 20.2448 31.125 10
      vertex 19.4956 29.3161 10
      vertex 24.7989 34.6194 10
    endloop
  endfacet
  facet normal 0 0 1
    outer loop
      vertex 122.344 8.4134 10
      vertex 115.76 9.94522 10
      vertex 0 4.17836 10
    endloop
  endfacet
  facet normal 0 0 1
    outer loop
      vertex 22.99 33.8702 10
      vertex 20.2448 31.125 10
      vertex 24.7989 34.6194 10
    endloop
  endfacet
  facet normal 0 0 1
    outer loop
      vertex 0 4.17836 10
      vertex 24.9079 10 10
      vertex -1.59899 3.86031 10
    endloop
  endfacet
  facet normal 0 0 1
    outer loop
      vertex 24.7989 34.6194 10
      vertex 19.4956 29.3161 10
      vertex 26.74 34.875 10
    endloop
  endfacet
  facet normal 0 0 1
    outer loop
      vertex 26.74 34.875 10
      vertex 19.24 27.375 10
      vertex 28.6811 34.6194 10
    endloop
  endfacet
  facet normal 0 0 1
    outer loop
      vertex 21.4367 32.6783 10
      vertex 20.2448 31.125 10
      vertex 22.99 33.8702 10
    endloop
  endfacet
  facet normal 0 0 1
    outer loop
      vertex 19.24 27.375 10
      vertex 25.824 28.9616 10
      vertex 30.49 33.8702 10
    endloop
  endfacet
  facet normal 0 0 1
    outer loop
      vertex 25.824 8.4134 10
      vertex 24.9079 10 10
      vertex 0 4.17836 10
    endloop
  endfacet
  facet normal 0 0 1
    outer loop
      vertex -5 8.66025 10
      vertex -9.78148 2.07912 10
      vertex -3.09017 9.51056 10
    endloop
  endfacet
  facet normal 0 0 1
    outer loop
      vertex -6.69131 7.43145 10
      vertex -9.78148 2.07912 10
      vertex -5 8.66025 10
    endloop
  endfacet
  facet normal 0 0 1
    outer loop
      vertex -8.09017 5.87785 10
      vertex -9.78148 2.07912 10
      vertex -6.69131 7.43145 10
    endloop
  endfacet
  facet normal 0 0 1
    outer loop
      vertex -9.13546 4.06737 10
      vertex -9.78148 2.07912 10
      vertex -8.09017 5.87785 10
    endloop
  endfacet
  facet normal 0 0 1
    outer loop
      vertex 25.824 28.9616 10
      vertex 27.656 28.9616 10
      vertex 32.0433 32.6783 10
    endloop
  endfacet
  facet normal 0 0 1
    outer loop
      vertex 28.5721 10 10
      vertex 27.656 8.4134 10
      vertex 34.24 9.94522 10
    endloop
  endfacet
  facet normal 0 0 1
    outer loop
      vertex 116.016 29.3161 10
      vertex 115.76 27.375 10
      vertex 129.755 31.125 10
    endloop
  endfacet
  facet normal 0 0 1
    outer loop
      vertex 27.656 25.7884 10
      vertex 34.24 27.375 10
      vertex 33.9844 29.3161 10
    endloop
  endfacet
  facet normal 0 0 1
    outer loop
      vertex 27.656 28.9616 10
      vertex 28.5721 27.375 10
      vertex 33.2352 31.125 10
    endloop
  endfacet
  facet normal 0 0 1
    outer loop
      vertex 34.24 27.375 10
      vertex 19.24 9.94522 10
      vertex 25.824 11.5866 10
    endloop
  endfacet
  facet normal 0 0 1
    outer loop
      vertex 19.4956 29.3161 10
      vertex 19.24 27.375 10
      vertex 26.74 34.875 10
    endloop
  endfacet
  facet normal 0 0 1
    outer loop
      vertex 25.824 8.4134 10
      vertex 0 4.17836 10
      vertex 27.656 8.4134 10
    endloop
  endfacet
  facet normal 0 0 1
    outer loop
      vertex 122.344 8.4134 10
      vertex 121.428 10 10
      vertex 115.76 9.94522 10
    endloop
  endfacet
  facet normal 0 0 1
    outer loop
      vertex 121.428 27.375 10
      vertex 122.344 28.9616 10
      vertex 115.76 27.375 10
    endloop
  endfacet
  facet normal 0 0 1
    outer loop
      vertex 30.49 33.8702 10
      vertex 25.824 28.9616 10
      vertex 32.0433 32.6783 10
    endloop
  endfacet
  facet normal 0 0 1
    outer loop
      vertex 32.0433 32.6783 10
      vertex 27.656 28.9616 10
      vertex 33.2352 31.125 10
    endloop
  endfacet
  facet normal 0 0 1
    outer loop
      vertex 33.2352 31.125 10
      vertex 28.5721 27.375 10
      vertex 33.9844 29.3161 10
    endloop
  endfacet
  facet normal 0 0 1
    outer loop
      vertex 130.76 9.94522 10
      vertex 153.09 9.51056 10
      vertex 151.045 9.94522 10
    endloop
  endfacet
  facet normal 0 0 1
    outer loop
      vertex -1.04529 9.94522 10
      vertex -3.09017 9.51056 10
      vertex -9.78148 2.07912 10
    endloop
  endfacet
  facet normal 0 0 1
    outer loop
      vertex 125.092 10 10
      vertex 124.176 8.4134 10
      vertex 155 8.66025 10
    endloop
  endfacet
  facet normal 0 0 1
    outer loop
      vertex 130.76 27.375 10
      vertex 115.76 9.94522 10
      vertex 121.428 10 10
    endloop
  endfacet
  facet normal 0 0 1
    outer loop
      vertex 130.76 27.375 10
      vertex 121.428 10 10
      vertex 122.344 11.5866 10
    endloop
  endfacet
  facet normal 0 0 1
    outer loop
      vertex 130.76 27.375 10
      vertex 124.176 11.5866 10
      vertex 130.76 9.94522 10
    endloop
  endfacet
  facet normal 0 0 1
    outer loop
      vertex 130.76 27.375 10
      vertex 122.344 11.5866 10
      vertex 124.176 11.5866 10
    endloop
  endfacet
  facet normal 0 0 1
    outer loop
      vertex 125.092 27.375 10
      vertex 124.176 25.7884 10
      vertex 130.76 27.375 10
    endloop
  endfacet
  facet normal 0 0 1
    outer loop
      vertex 122.344 8.4134 10
      vertex 0 4.17836 10
      vertex 124.176 8.4134 10
    endloop
  endfacet
  facet normal 0 0 1
    outer loop
      vertex 124.176 25.7884 10
      vertex 122.344 25.7884 10
      vertex 115.76 9.94522 10
    endloop
  endfacet
  facet normal 0 0 1
    outer loop
      vertex 129.755 31.125 10
      vertex 122.344 28.9616 10
      vertex 130.504 29.3161 10
    endloop
  endfacet
  facet normal 0 0 1
    outer loop
      vertex 129.755 31.125 10
      vertex 115.76 27.375 10
      vertex 122.344 28.9616 10
    endloop
  endfacet
  facet normal 0 0 1
    outer loop
      vertex 122.344 28.9616 10
      vertex 124.176 28.9616 10
      vertex 130.504 29.3161 10
    endloop
  endfacet
  facet normal 0 0 1
    outer loop
      vertex 130.504 29.3161 10
      vertex 125.092 27.375 10
      vertex 130.76 27.375 10
    endloop
  endfacet
  facet normal 0 0 1
    outer loop
      vertex 130.76 27.375 10
      vertex 124.176 25.7884 10
      vertex 115.76 9.94522 10
    endloop
  endfacet
  facet normal 0 0 1
    outer loop
      vertex 19.24 27.375 10
      vertex 24.9079 27.375 10
      vertex 25.824 28.9616 10
    endloop
  endfacet
  facet normal 0 0 1
    outer loop
      vertex 121.319 34.6194 10
      vertex 119.51 33.8702 10
      vertex 123.26 34.875 10
    endloop
  endfacet
  facet normal 0 0 1
    outer loop
      vertex 27.656 25.7884 10
      vertex 19.24 9.94522 10
      vertex 34.24 27.375 10
    endloop
  endfacet
  facet normal 0 0 1
    outer loop
      vertex 116.765 31.125 10
      vertex 116.016 29.3161 10
      vertex 128.563 32.6783 10
    endloop
  endfacet
  facet normal 0 0 1
    outer loop
      vertex 115.76 27.375 10
      vertex 122.344 25.7884 10
      vertex 121.428 27.375 10
    endloop
  endfacet
  facet normal 0 0 1
    outer loop
      vertex 115.76 27.375 10
      vertex 115.76 9.94522 10
      vertex 122.344 25.7884 10
    endloop
  endfacet
  facet normal 0 0 1
    outer loop
      vertex 34.24 9.94522 10
      vertex 27.656 8.4134 10
      vertex 115.76 9.94522 10
    endloop
  endfacet
  facet normal 0 0 1
    outer loop
      vertex 34.24 9.94522 10
      vertex 27.656 11.5866 10
      vertex 28.5721 10 10
    endloop
  endfacet
  facet normal 0 0 1
    outer loop
      vertex 27.656 11.5866 10
      vertex 34.24 27.375 10
      vertex 25.824 11.5866 10
    endloop
  endfacet
  facet normal 0 0 1
    outer loop
      vertex 34.24 9.94522 10
      vertex 34.24 27.375 10
      vertex 27.656 11.5866 10
    endloop
  endfacet
  facet normal 0.980785 -0.19509 0
    outer loop
      vertex -3.86031 1.59899 0
      vertex -3.86031 1.59899 10
      vertex -4.17836 0 10
    endloop
  endfacet
  facet normal 0.980785 -0.19509 0
    outer loop
      vertex -4.17836 0 0
      vertex -3.86031 1.59899 0
      vertex -4.17836 0 10
    endloop
  endfacet
  facet normal 0.831469 -0.55557 0
    outer loop
      vertex -2.95455 2.95455 0
      vertex -2.95455 2.95455 10
      vertex -3.86031 1.59899 10
    endloop
  endfacet
  facet normal 0.831469 -0.55557 0
    outer loop
      vertex -3.86031 1.59899 0
      vertex -2.95455 2.95455 0
      vertex -3.86031 1.59899 10
    endloop
  endfacet
  facet normal 0.55557 -0.831469 0
    outer loop
      vertex -1.59899 3.86031 0
      vertex -1.59899 3.86031 10
      vertex -2.95455 2.95455 10
    endloop
  endfacet
  facet normal 0.55557 -0.831469 0
    outer loop
      vertex -2.95455 2.95455 0
      vertex -1.59899 3.86031 0
      vertex -2.95455 2.95455 10
    endloop
  endfacet
  facet normal 0.19509 -0.980785 0
    outer loop
      vertex 0 4.17836 0
      vertex 0 4.17836 10
      vertex -1.59899 3.86031 10
    endloop
  endfacet
  facet normal 0.19509 -0.980785 0
    outer loop
      vertex -1.59899 3.86031 0
      vertex 0 4.17836 0
      vertex -1.59899 3.86031 10
    endloop
  endfacet
  facet normal -0.19509 -0.980785 0
    outer loop
      vertex 1.59899 3.86031 0
      vertex 1.59899 3.86031 10
      vertex 0 4.17836 10
    endloop
  endfacet
  facet normal -0.19509 -0.980785 0
    outer loop
      vertex 0 4.17836 0
      vertex 1.59899 3.86031 0
      vertex 0 4.17836 10
    endloop
  endfacet
  facet normal -0.55557 -0.831469 0
    outer loop
      vertex 2.95455 2.95455 0
      vertex 2.95455 2.95455 10
      vertex 1.59899 3.86031 10
    endloop
  endfacet
  facet normal -0.55557 -0.831469 0
    outer loop
      vertex 1.59899 3.86031 0
      vertex 2.95455 2.95455 0
      vertex 1.59899 3.86031 10
    endloop
  endfacet
  facet normal -0.831469 -0.55557 0
    outer loop
      vertex 3.86031 1.59899 10
      vertex 2.95455 2.95455 10
      vertex 3.86031 1.59899 0
    endloop
  endfacet
  facet normal -0.831469 -0.55557 0
    outer loop
      vertex 3.86031 1.59899 0
      vertex 2.95455 2.95455 10
      vertex 2.95455 2.95455 0
    endloop
  endfacet
  facet normal -0.980785 -0.19509 0
    outer loop
      vertex 4.17836 0 10
      vertex 3.86031 1.59899 10
      vertex 4.17836 0 0
    endloop
  endfacet
  facet normal -0.980785 -0.19509 0
    outer loop
      vertex 4.17836 0 0
      vertex 3.86031 1.59899 10
      vertex 3.86031 1.59899 0
    endloop
  endfacet
  facet normal 0 -1 0
    outer loop
      vertex 14.084 0 6.5866
      vertex 26.74 0 10
      vertex 4.17836 0 10
    endloop
  endfacet
  facet normal 0 -1 0
    outer loop
      vertex 4.17836 0 0
      vertex 13.1679 0 5
      vertex 4.17836 0 10
    endloop
  endfacet
  facet normal 0 -1 0
    outer loop
      vertex 15.916 0 6.5866
      vertex 26.74 0 10
      vertex 14.084 0 6.5866
    endloop
  endfacet
  facet normal 0 -1 0
    outer loop
      vertex 16.8321 0 5
      vertex 15.916 0 3.4134
      vertex 26.74 0 0
    endloop
  endfacet
  facet normal 0 -1 0
    outer loop
      vertex 26.74 0 0
      vertex 26.74 0 10
      vertex 15.916 0 6.5866
    endloop
  endfacet
  facet normal 0 -1 0
    outer loop
      vertex 15.916 0 6.5866
      vertex 16.8321 0 5
      vertex 26.74 0 0
    endloop
  endfacet
  facet normal 0 -1 0
    outer loop
      vertex 4.17836 0 0
      vertex 26.74 0 0
      vertex 15.916 0 3.4134
    endloop
  endfacet
  facet normal 0 -1 0
    outer loop
      vertex 4.17836 0 0
      vertex 14.084 0 3.4134
      vertex 13.1679 0 5
    endloop
  endfacet
  facet normal 0 -1 0
    outer loop
      vertex 4.17836 0 0
      vertex 15.916 0 3.4134
      vertex 14.084 0 3.4134
    endloop
  endfacet
  facet normal 0 -1 0
    outer loop
      vertex 13.1679 0 5
      vertex 14.084 0 6.5866
      vertex 4.17836 0 10
    endloop
  endfacet
  facet normal 0 -1 0
    outer loop
      vertex 74.084 0 6.5866
      vertex 123.26 0 10
      vertex 26.74 0 10
    endloop
  endfacet
  facet normal 0 -1 0
    outer loop
      vertex 26.74 0 0
      vertex 43.1679 0 5
      vertex 26.74 0 10
    endloop
  endfacet
  facet normal 0 -1 0
    outer loop
      vertex 43.1679 0 5
      vertex 44.084 0 6.5866
      vertex 26.74 0 10
    endloop
  endfacet
  facet normal 0 -1 0
    outer loop
      vertex 46.8321 0 5
      vertex 45.916 0 3.4134
      vertex 123.26 0 0
    endloop
  endfacet
  facet normal 0 -1 0
    outer loop
      vertex 44.084 0 6.5866
      vertex 45.916 0 6.5866
      vertex 26.74 0 10
    endloop
  endfacet
  facet normal 0 -1 0
    outer loop
      vertex 74.084 0 3.4134
      vertex 45.916 0 6.5866
      vertex 46.8321 0 5
    endloop
  endfacet
  facet normal 0 -1 0
    outer loop
      vertex 26.74 0 0
      vertex 123.26 0 0
      vertex 45.916 0 3.4134
    endloop
  endfacet
  facet normal 0 -1 0
    outer loop
      vertex 26.74 0 0
      vertex 44.084 0 3.4134
      vertex 43.1679 0 5
    endloop
  endfacet
  facet normal 0 -1 0
    outer loop
      vertex 26.74 0 0
      vertex 45.916 0 3.4134
      vertex 44.084 0 3.4134
    endloop
  endfacet
  facet normal 0 -1 0
    outer loop
      vertex 45.916 0 6.5866
      vertex 73.1679 0 5
      vertex 26.74 0 10
    endloop
  endfacet
  facet normal 0 -1 0
    outer loop
      vertex 104.084 0 3.4134
      vertex 103.168 0 5
      vertex 75.916 0 6.5866
    endloop
  endfacet
  facet normal 0 -1 0
    outer loop
      vertex 75.916 0 6.5866
      vertex 123.26 0 10
      vertex 74.084 0 6.5866
    endloop
  endfacet
  facet normal 0 -1 0
    outer loop
      vertex 76.8321 0 5
      vertex 75.916 0 3.4134
      vertex 123.26 0 0
    endloop
  endfacet
  facet normal 0 -1 0
    outer loop
      vertex 104.084 0 6.5866
      vertex 123.26 0 10
      vertex 75.916 0 6.5866
    endloop
  endfacet
  facet normal 0 -1 0
    outer loop
      vertex 75.916 0 6.5866
      vertex 76.8321 0 5
      vertex 123.26 0 0
    endloop
  endfacet
  facet normal 0 -1 0
    outer loop
      vertex 74.084 0 3.4134
      vertex 123.26 0 0
      vertex 75.916 0 3.4134
    endloop
  endfacet
  facet normal 0 -1 0
    outer loop
      vertex 46.8321 0 5
      vertex 123.26 0 0
      vertex 74.084 0 3.4134
    endloop
  endfacet
  facet normal 0 -1 0
    outer loop
      vertex 103.168 0 5
      vertex 104.084 0 6.5866
      vertex 75.916 0 6.5866
    endloop
  endfacet
  facet normal 0 -1 0
    outer loop
      vertex 105.916 0 6.5866
      vertex 123.26 0 10
      vertex 104.084 0 6.5866
    endloop
  endfacet
  facet normal 0 -1 0
    outer loop
      vertex 106.832 0 5
      vertex 105.916 0 3.4134
      vertex 123.26 0 0
    endloop
  endfacet
  facet normal 0 -1 0
    outer loop
      vertex 123.26 0 0
      vertex 123.26 0 10
      vertex 106.832 0 5
    endloop
  endfacet
  facet normal 0 -1 0
    outer loop
      vertex 105.916 0 6.5866
      vertex 106.832 0 5
      vertex 123.26 0 10
    endloop
  endfacet
  facet normal 0 -1 0
    outer loop
      vertex 123.26 0 0
      vertex 104.084 0 3.4134
      vertex 75.916 0 6.5866
    endloop
  endfacet
  facet normal 0 -1 0
    outer loop
      vertex 123.26 0 0
      vertex 105.916 0 3.4134
      vertex 104.084 0 3.4134
    endloop
  endfacet
  facet normal 0 -1 0
    outer loop
      vertex 73.1679 0 5
      vertex 74.084 0 6.5866
      vertex 26.74 0 10
    endloop
  endfacet
  facet normal 0 -1 0
    outer loop
      vertex 74.084 0 3.4134
      vertex 73.1679 0 5
      vertex 45.916 0 6.5866
    endloop
  endfacet
  facet normal 0 -1 0
    outer loop
      vertex 134.084 0 6.5866
      vertex 145.822 0 10
      vertex 123.26 0 10
    endloop
  endfacet
  facet normal 0 -1 0
    outer loop
      vertex 123.26 0 0
      vertex 133.168 0 5
      vertex 123.26 0 10
    endloop
  endfacet
  facet normal 0 -1 0
    outer loop
      vertex 135.916 0 6.5866
      vertex 145.822 0 10
      vertex 134.084 0 6.5866
    endloop
  endfacet
  facet normal 0 -1 0
    outer loop
      vertex 136.832 0 5
      vertex 135.916 0 3.4134
      vertex 145.822 0 0
    endloop
  endfacet
  facet normal 0 -1 0
    outer loop
      vertex 145.822 0 0
      vertex 145.822 0 10
      vertex 135.916 0 6.5866
    endloop
  endfacet
  facet normal 0 -1 0
    outer loop
      vertex 135.916 0 6.5866
      vertex 136.832 0 5
      vertex 145.822 0 0
    endloop
  endfacet
  facet normal 0 -1 0
    outer loop
      vertex 123.26 0 0
      vertex 145.822 0 0
      vertex 135.916 0 3.4134
    endloop
  endfacet
  facet normal 0 -1 0
    outer loop
      vertex 123.26 0 0
      vertex 134.084 0 3.4134
      vertex 133.168 0 5
    endloop
  endfacet
  facet normal 0 -1 0
    outer loop
      vertex 123.26 0 0
      vertex 135.916 0 3.4134
      vertex 134.084 0 3.4134
    endloop
  endfacet
  facet normal 0 -1 0
    outer loop
      vertex 133.168 0 5
      vertex 134.084 0 6.5866
      vertex 123.26 0 10
    endloop
  endfacet
  facet normal 0.980785 -0.19509 0
    outer loop
      vertex 146.14 1.59899 0
      vertex 146.14 1.59899 10
      vertex 145.822 0 10
    endloop
  endfacet
  facet normal 0.980785 -0.19509 0
    outer loop
      vertex 145.822 0 0
      vertex 146.14 1.59899 0
      vertex 145.822 0 10
    endloop
  endfacet
  facet normal 0.831469 -0.55557 0
    outer loop
      vertex 147.045 2.95455 0
      vertex 147.045 2.95455 10
      vertex 146.14 1.59899 10
    endloop
  endfacet
  facet normal 0.831469 -0.55557 0
    outer loop
      vertex 146.14 1.59899 0
      vertex 147.045 2.95455 0
      vertex 146.14 1.59899 10
    endloop
  endfacet
  facet normal 0.55557 -0.831469 0
    outer loop
      vertex 148.401 3.86031 0
      vertex 148.401 3.86031 10
      vertex 147.045 2.95455 10
    endloop
  endfacet
  facet normal 0.55557 -0.831469 0
    outer loop
      vertex 147.045 2.95455 0
      vertex 148.401 3.86031 0
      vertex 147.045 2.95455 10
    endloop
  endfacet
  facet normal 0.19509 -0.980785 0
    outer loop
      vertex 150 4.17836 0
      vertex 150 4.17836 10
      vertex 148.401 3.86031 10
    endloop
  endfacet
  facet normal 0.19509 -0.980785 0
    outer loop
      vertex 148.401 3.86031 0
      vertex 150 4.17836 0
      vertex 148.401 3.86031 10
    endloop
  endfacet
  facet normal -0.19509 -0.980785 0
    outer loop
      vertex 151.599 3.86031 0
      vertex 151.599 3.86031 10
      vertex 150 4.17836 10
    endloop
  endfacet
  facet normal -0.19509 -0.980785 0
    outer loop
      vertex 150 4.17836 0
      vertex 151.599 3.86031 0
      vertex 150 4.17836 10
    endloop
  endfacet
  facet normal -0.55557 -0.831469 0
    outer loop
      vertex 152.955 2.95455 0
      vertex 152.955 2.95455 10
      vertex 151.599 3.86031 10
    endloop
  endfacet
  facet normal -0.55557 -0.831469 0
    outer loop
      vertex 151.599 3.86031 0
      vertex 152.955 2.95455 0
      vertex 151.599 3.86031 10
    endloop
  endfacet
  facet normal -0.831469 -0.55557 0
    outer loop
      vertex 153.86 1.59899 10
      vertex 152.955 2.95455 10
      vertex 153.86 1.59899 0
    endloop
  endfacet
  facet normal -0.831469 -0.55557 0
    outer loop
      vertex 153.86 1.59899 0
      vertex 152.955 2.95455 10
      vertex 152.955 2.95455 0
    endloop
  endfacet
  facet normal -0.980785 -0.19509 0
    outer loop
      vertex 154.178 0 10
      vertex 153.86 1.59899 10
      vertex 154.178 0 0
    endloop
  endfacet
  facet normal -0.980785 -0.19509 0
    outer loop
      vertex 154.178 0 0
      vertex 153.86 1.59899 10
      vertex 153.86 1.59899 0
    endloop
  endfacet
  facet normal 0 -1 0
    outer loop
      vertex 160 0 0
      vertex 160 0 10
      vertex 154.178 0 10
    endloop
  endfacet
  facet normal 0 -1 0
    outer loop
      vertex 154.178 0 0
      vertex 160 0 0
      vertex 154.178 0 10
    endloop
  endfacet
  facet normal 0.994522 0.104528 0
    outer loop
      vertex 160 0 0
      vertex 159.781 2.07912 0
      vertex 159.781 2.07912 10
    endloop
  endfacet
  facet normal 0.994522 0.104528 0
    outer loop
      vertex 160 0 10
      vertex 160 0 0
      vertex 159.781 2.07912 10
    endloop
  endfacet
  facet normal 0.951057 0.309017 0
    outer loop
      vertex 159.781 2.07912 0
      vertex 159.135 4.06737 0
      vertex 159.135 4.06737 10
    endloop
  endfacet
  facet normal 0.951057 0.309017 0
    outer loop
      vertex 159.781 2.07912 10
      vertex 159.781 2.07912 0
      vertex 159.135 4.06737 10
    endloop
  endfacet
  facet normal 0.866025 0.5 0
    outer loop
      vertex 159.135 4.06737 0
      vertex 158.09 5.87785 0
      vertex 158.09 5.87785 10
    endloop
  endfacet
  facet normal 0.866025 0.5 0
    outer loop
      vertex 159.135 4.06737 10
      vertex 159.135 4.06737 0
      vertex 158.09 5.87785 10
    endloop
  endfacet
  facet normal 0.743145 0.669131 0
    outer loop
      vertex 158.09 5.87785 0
      vertex 156.691 7.43145 0
      vertex 156.691 7.43145 10
    endloop
  endfacet
  facet normal 0.743145 0.669131 0
    outer loop
      vertex 158.09 5.87785 10
      vertex 158.09 5.87785 0
      vertex 156.691 7.43145 10
    endloop
  endfacet
  facet normal 0.587785 0.809017 0
    outer loop
      vertex 155 8.66025 0
      vertex 155 8.66025 10
      vertex 156.691 7.43145 0
    endloop
  endfacet
  facet normal 0.587785 0.809017 0
    outer loop
      vertex 156.691 7.43145 0
      vertex 155 8.66025 10
      vertex 156.691 7.43145 10
    endloop
  endfacet
  facet normal 0.406737 0.913545 0
    outer loop
      vertex 153.09 9.51056 0
      vertex 153.09 9.51056 10
      vertex 155 8.66025 0
    endloop
  endfacet
  facet normal 0.406737 0.913545 0
    outer loop
      vertex 155 8.66025 0
      vertex 153.09 9.51056 10
      vertex 155 8.66025 10
    endloop
  endfacet
  facet normal 0.207912 0.978148 0
    outer loop
      vertex 151.045 9.94522 0
      vertex 151.045 9.94522 10
      vertex 153.09 9.51056 0
    endloop
  endfacet
  facet normal 0.207912 0.978148 0
    outer loop
      vertex 153.09 9.51056 0
      vertex 151.045 9.94522 10
      vertex 153.09 9.51056 10
    endloop
  endfacet
  facet normal 0 1 0
    outer loop
      vertex 135.916 9.94522 6.5866
      vertex 130.76 9.94522 10
      vertex 151.045 9.94522 0
    endloop
  endfacet
  facet normal 0 1 0
    outer loop
      vertex 151.045 9.94522 0
      vertex 130.76 9.94522 10
      vertex 151.045 9.94522 10
    endloop
  endfacet
  facet normal 0 1 0
    outer loop
      vertex 130.76 9.94522 0
      vertex 130.76 9.94522 10
      vertex 133.168 9.94522 5
    endloop
  endfacet
  facet normal 0 1 0
    outer loop
      vertex 130.76 9.94522 0
      vertex 133.168 9.94522 5
      vertex 134.084 9.94522 3.4134
    endloop
  endfacet
  facet normal 0 1 0
    outer loop
      vertex 130.76 9.94522 0
      vertex 134.084 9.94522 3.4134
      vertex 151.045 9.94522 0
    endloop
  endfacet
  facet normal 0 1 0
    outer loop
      vertex 134.084 9.94522 3.4134
      vertex 135.916 9.94522 3.4134
      vertex 151.045 9.94522 0
    endloop
  endfacet
  facet normal 0 1 0
    outer loop
      vertex 134.084 9.94522 6.5866
      vertex 130.76 9.94522 10
      vertex 135.916 9.94522 6.5866
    endloop
  endfacet
  facet normal 0 1 0
    outer loop
      vertex 136.832 9.94522 5
      vertex 135.916 9.94522 6.5866
      vertex 151.045 9.94522 0
    endloop
  endfacet
  facet normal 0 1 0
    outer loop
      vertex 133.168 9.94522 5
      vertex 130.76 9.94522 10
      vertex 134.084 9.94522 6.5866
    endloop
  endfacet
  facet normal 0 1 0
    outer loop
      vertex 136.832 9.94522 5
      vertex 151.045 9.94522 0
      vertex 135.916 9.94522 3.4134
    endloop
  endfacet
  facet normal 1 0 0
    outer loop
      vertex 130.76 9.94522 10
      vertex 130.76 9.94522 0
      vertex 130.76 27.375 0
    endloop
  endfacet
  facet normal 1 0 0
    outer loop
      vertex 130.76 27.375 10
      vertex 130.76 9.94522 10
      vertex 130.76 27.375 0
    endloop
  endfacet
  facet normal 0.991445 0.130526 0
    outer loop
      vertex 130.76 27.375 0
      vertex 130.504 29.3161 0
      vertex 130.504 29.3161 10
    endloop
  endfacet
  facet normal 0.991445 0.130526 0
    outer loop
      vertex 130.76 27.375 10
      vertex 130.76 27.375 0
      vertex 130.504 29.3161 10
    endloop
  endfacet
  facet normal 0.92388 0.382683 0
    outer loop
      vertex 130.504 29.3161 0
      vertex 129.755 31.125 0
      vertex 129.755 31.125 10
    endloop
  endfacet
  facet normal 0.92388 0.382683 0
    outer loop
      vertex 130.504 29.3161 10
      vertex 130.504 29.3161 0
      vertex 129.755 31.125 10
    endloop
  endfacet
  facet normal 0.793353 0.608762 0
    outer loop
      vertex 129.755 31.125 0
      vertex 128.563 32.6783 0
      vertex 128.563 32.6783 10
    endloop
  endfacet
  facet normal 0.793353 0.608762 0
    outer loop
      vertex 129.755 31.125 10
      vertex 129.755 31.125 0
      vertex 128.563 32.6783 10
    endloop
  endfacet
  facet normal 0.608762 0.793353 0
    outer loop
      vertex 127.01 33.8702 0
      vertex 127.01 33.8702 10
      vertex 128.563 32.6783 0
    endloop
  endfacet
  facet normal 0.608762 0.793353 0
    outer loop
      vertex 128.563 32.6783 0
      vertex 127.01 33.8702 10
      vertex 128.563 32.6783 10
    endloop
  endfacet
  facet normal 0.382683 0.92388 0
    outer loop
      vertex 125.201 34.6194 0
      vertex 125.201 34.6194 10
      vertex 127.01 33.8702 0
    endloop
  endfacet
  facet normal 0.382683 0.92388 0
    outer loop
      vertex 127.01 33.8702 0
      vertex 125.201 34.6194 10
      vertex 127.01 33.8702 10
    endloop
  endfacet
  facet normal 0.130526 0.991445 0
    outer loop
      vertex 123.26 34.875 0
      vertex 123.26 34.875 10
      vertex 125.201 34.6194 0
    endloop
  endfacet
  facet normal 0.130526 0.991445 0
    outer loop
      vertex 125.201 34.6194 0
      vertex 123.26 34.875 10
      vertex 125.201 34.6194 10
    endloop
  endfacet
  facet normal -0.130526 0.991445 0
    outer loop
      vertex 121.319 34.6194 0
      vertex 121.319 34.6194 10
      vertex 123.26 34.875 0
    endloop
  endfacet
  facet normal -0.130526 0.991445 0
    outer loop
      vertex 123.26 34.875 0
      vertex 121.319 34.6194 10
      vertex 123.26 34.875 10
    endloop
  endfacet
  facet normal -0.382683 0.92388 0
    outer loop
      vertex 119.51 33.8702 0
      vertex 119.51 33.8702 10
      vertex 121.319 34.6194 0
    endloop
  endfacet
  facet normal -0.382683 0.92388 0
    outer loop
      vertex 121.319 34.6194 0
      vertex 119.51 33.8702 10
      vertex 121.319 34.6194 10
    endloop
  endfacet
  facet normal -0.608762 0.793353 0
    outer loop
      vertex 117.957 32.6783 0
      vertex 117.957 32.6783 10
      vertex 119.51 33.8702 0
    endloop
  endfacet
  facet normal -0.608762 0.793353 0
    outer loop
      vertex 119.51 33.8702 0
      vertex 117.957 32.6783 10
      vertex 119.51 33.8702 10
    endloop
  endfacet
  facet normal -0.793353 0.608762 0
    outer loop
      vertex 116.765 31.125 0
      vertex 116.765 31.125 10
      vertex 117.957 32.6783 0
    endloop
  endfacet
  facet normal -0.793353 0.608762 0
    outer loop
      vertex 117.957 32.6783 0
      vertex 116.765 31.125 10
      vertex 117.957 32.6783 10
    endloop
  endfacet
  facet normal -0.92388 0.382683 0
    outer loop
      vertex 116.016 29.3161 0
      vertex 116.016 29.3161 10
      vertex 116.765 31.125 0
    endloop
  endfacet
  facet normal -0.92388 0.382683 0
    outer loop
      vertex 116.765 31.125 0
      vertex 116.016 29.3161 10
      vertex 116.765 31.125 10
    endloop
  endfacet
  facet normal -0.991445 0.130526 0
    outer loop
      vertex 115.76 27.375 0
      vertex 115.76 27.375 10
      vertex 116.016 29.3161 0
    endloop
  endfacet
  facet normal -0.991445 0.130526 0
    outer loop
      vertex 116.016 29.3161 0
      vertex 115.76 27.375 10
      vertex 116.016 29.3161 10
    endloop
  endfacet
  facet normal -1 0 0
    outer loop
      vertex 115.76 9.94522 0
      vertex 115.76 9.94522 10
      vertex 115.76 27.375 0
    endloop
  endfacet
  facet normal -1 0 0
    outer loop
      vertex 115.76 27.375 0
      vertex 115.76 9.94522 10
      vertex 115.76 27.375 10
    endloop
  endfacet
  facet normal 0 1 0
    outer loop
      vertex 74.084 9.94522 3.4134
      vertex 45.916 9.94522 6.5866
      vertex 73.1679 9.94522 5
    endloop
  endfacet
  facet normal 0 1 0
    outer loop
      vertex 75.916 9.94522 6.5866
      vertex 34.24 9.94522 10
      vertex 115.76 9.94522 10
    endloop
  endfacet
  facet normal 0 1 0
    outer loop
      vertex 34.24 9.94522 0
      vertex 34.24 9.94522 10
      vertex 43.1679 9.94522 5
    endloop
  endfacet
  facet normal 0 1 0
    outer loop
      vertex 103.168 9.94522 5
      vertex 76.8321 9.94522 5
      vertex 104.084 9.94522 6.5866
    endloop
  endfacet
  facet normal 0 1 0
    outer loop
      vertex 34.24 9.94522 0
      vertex 43.1679 9.94522 5
      vertex 44.084 9.94522 3.4134
    endloop
  endfacet
  facet normal 0 1 0
    outer loop
      vertex 34.24 9.94522 0
      vertex 44.084 9.94522 3.4134
      vertex 115.76 9.94522 0
    endloop
  endfacet
  facet normal 0 1 0
    outer loop
      vertex 44.084 9.94522 3.4134
      vertex 45.916 9.94522 3.4134
      vertex 115.76 9.94522 0
    endloop
  endfacet
  facet normal 0 1 0
    outer loop
      vertex 46.8321 9.94522 5
      vertex 115.76 9.94522 0
      vertex 45.916 9.94522 3.4134
    endloop
  endfacet
  facet normal 0 1 0
    outer loop
      vertex 73.1679 9.94522 5
      vertex 34.24 9.94522 10
      vertex 74.084 9.94522 6.5866
    endloop
  endfacet
  facet normal 0 1 0
    outer loop
      vertex 44.084 9.94522 6.5866
      vertex 34.24 9.94522 10
      vertex 45.916 9.94522 6.5866
    endloop
  endfacet
  facet normal 0 1 0
    outer loop
      vertex 45.916 9.94522 6.5866
      vertex 34.24 9.94522 10
      vertex 73.1679 9.94522 5
    endloop
  endfacet
  facet normal 0 1 0
    outer loop
      vertex 46.8321 9.94522 5
      vertex 45.916 9.94522 6.5866
      vertex 74.084 9.94522 3.4134
    endloop
  endfacet
  facet normal 0 1 0
    outer loop
      vertex 46.8321 9.94522 5
      vertex 74.084 9.94522 3.4134
      vertex 115.76 9.94522 0
    endloop
  endfacet
  facet normal 0 1 0
    outer loop
      vertex 76.8321 9.94522 5
      vertex 115.76 9.94522 0
      vertex 75.916 9.94522 3.4134
    endloop
  endfacet
  facet normal 0 1 0
    outer loop
      vertex 74.084 9.94522 3.4134
      vertex 75.916 9.94522 3.4134
      vertex 115.76 9.94522 0
    endloop
  endfacet
  facet normal 0 1 0
    outer loop
      vertex 104.084 9.94522 6.5866
      vertex 76.8321 9.94522 5
      vertex 115.76 9.94522 10
    endloop
  endfacet
  facet normal 0 1 0
    outer loop
      vertex 74.084 9.94522 6.5866
      vertex 34.24 9.94522 10
      vertex 75.916 9.94522 6.5866
    endloop
  endfacet
  facet normal 0 1 0
    outer loop
      vertex 76.8321 9.94522 5
      vertex 75.916 9.94522 6.5866
      vertex 115.76 9.94522 10
    endloop
  endfacet
  facet normal 0 1 0
    outer loop
      vertex 104.084 9.94522 3.4134
      vertex 76.8321 9.94522 5
      vertex 103.168 9.94522 5
    endloop
  endfacet
  facet normal 0 1 0
    outer loop
      vertex 115.76 9.94522 0
      vertex 76.8321 9.94522 5
      vertex 104.084 9.94522 3.4134
    endloop
  endfacet
  facet normal 0 1 0
    outer loop
      vertex 115.76 9.94522 0
      vertex 104.084 9.94522 3.4134
      vertex 105.916 9.94522 3.4134
    endloop
  endfacet
  facet normal 0 1 0
    outer loop
      vertex 105.916 9.94522 6.5866
      vertex 115.76 9.94522 10
      vertex 106.832 9.94522 5
    endloop
  endfacet
  facet normal 0 1 0
    outer loop
      vertex 115.76 9.94522 0
      vertex 106.832 9.94522 5
      vertex 115.76 9.94522 10
    endloop
  endfacet
  facet normal 0 1 0
    outer loop
      vertex 106.832 9.94522 5
      vertex 115.76 9.94522 0
      vertex 105.916 9.94522 3.4134
    endloop
  endfacet
  facet normal 0 1 0
    outer loop
      vertex 105.916 9.94522 6.5866
      vertex 104.084 9.94522 6.5866
      vertex 115.76 9.94522 10
    endloop
  endfacet
  facet normal 0 1 0
    outer loop
      vertex 43.1679 9.94522 5
      vertex 34.24 9.94522 10
      vertex 44.084 9.94522 6.5866
    endloop
  endfacet
  facet normal 1 0 0
    outer loop
      vertex 34.24 9.94522 10
      vertex 34.24 9.94522 0
      vertex 34.24 27.375 0
    endloop
  endfacet
  facet normal 1 0 0
    outer loop
      vertex 34.24 27.375 10
      vertex 34.24 9.94522 10
      vertex 34.24 27.375 0
    endloop
  endfacet
  facet normal 0.991445 0.130526 0
    outer loop
      vertex 34.24 27.375 0
      vertex 33.9844 29.3161 0
      vertex 33.9844 29.3161 10
    endloop
  endfacet
  facet normal 0.991445 0.130526 0
    outer loop
      vertex 34.24 27.375 10
      vertex 34.24 27.375 0
      vertex 33.9844 29.3161 10
    endloop
  endfacet
  facet normal 0.92388 0.382683 0
    outer loop
      vertex 33.9844 29.3161 0
      vertex 33.2352 31.125 0
      vertex 33.2352 31.125 10
    endloop
  endfacet
  facet normal 0.92388 0.382683 0
    outer loop
      vertex 33.9844 29.3161 10
      vertex 33.9844 29.3161 0
      vertex 33.2352 31.125 10
    endloop
  endfacet
  facet normal 0.793353 0.608762 0
    outer loop
      vertex 33.2352 31.125 0
      vertex 32.0433 32.6783 0
      vertex 32.0433 32.6783 10
    endloop
  endfacet
  facet normal 0.793353 0.608762 0
    outer loop
      vertex 33.2352 31.125 10
      vertex 33.2352 31.125 0
      vertex 32.0433 32.6783 10
    endloop
  endfacet
  facet normal 0.608762 0.793353 0
    outer loop
      vertex 30.49 33.8702 0
      vertex 30.49 33.8702 10
      vertex 32.0433 32.6783 0
    endloop
  endfacet
  facet normal 0.608762 0.793353 0
    outer loop
      vertex 32.0433 32.6783 0
      vertex 30.49 33.8702 10
      vertex 32.0433 32.6783 10
    endloop
  endfacet
  facet normal 0.382683 0.92388 0
    outer loop
      vertex 28.6811 34.6194 0
      vertex 28.6811 34.6194 10
      vertex 30.49 33.8702 0
    endloop
  endfacet
  facet normal 0.382683 0.92388 0
    outer loop
      vertex 30.49 33.8702 0
      vertex 28.6811 34.6194 10
      vertex 30.49 33.8702 10
    endloop
  endfacet
  facet normal 0.130526 0.991445 0
    outer loop
      vertex 26.74 34.875 0
      vertex 26.74 34.875 10
      vertex 28.6811 34.6194 0
    endloop
  endfacet
  facet normal 0.130526 0.991445 0
    outer loop
      vertex 28.6811 34.6194 0
      vertex 26.74 34.875 10
      vertex 28.6811 34.6194 10
    endloop
  endfacet
  facet normal -0.130526 0.991445 0
    outer loop
      vertex 24.7989 34.6194 0
      vertex 24.7989 34.6194 10
      vertex 26.74 34.875 0
    endloop
  endfacet
  facet normal -0.130526 0.991445 0
    outer loop
      vertex 26.74 34.875 0
      vertex 24.7989 34.6194 10
      vertex 26.74 34.875 10
    endloop
  endfacet
  facet normal -0.382683 0.92388 0
    outer loop
      vertex 22.99 33.8702 0
      vertex 22.99 33.8702 10
      vertex 24.7989 34.6194 0
    endloop
  endfacet
  facet normal -0.382683 0.92388 0
    outer loop
      vertex 24.7989 34.6194 0
      vertex 22.99 33.8702 10
      vertex 24.7989 34.6194 10
    endloop
  endfacet
  facet normal -0.608762 0.793353 0
    outer loop
      vertex 21.4367 32.6783 0
      vertex 21.4367 32.6783 10
      vertex 22.99 33.8702 0
    endloop
  endfacet
  facet normal -0.608762 0.793353 0
    outer loop
      vertex 22.99 33.8702 0
      vertex 21.4367 32.6783 10
      vertex 22.99 33.8702 10
    endloop
  endfacet
  facet normal -0.793353 0.608762 0
    outer loop
      vertex 20.2448 31.125 0
      vertex 20.2448 31.125 10
      vertex 21.4367 32.6783 0
    endloop
  endfacet
  facet normal -0.793353 0.608762 0
    outer loop
      vertex 21.4367 32.6783 0
      vertex 20.2448 31.125 10
      vertex 21.4367 32.6783 10
    endloop
  endfacet
  facet normal -0.92388 0.382683 0
    outer loop
      vertex 19.4956 29.3161 0
      vertex 19.4956 29.3161 10
      vertex 20.2448 31.125 0
    endloop
  endfacet
  facet normal -0.92388 0.382683 0
    outer loop
      vertex 20.2448 31.125 0
      vertex 19.4956 29.3161 10
      vertex 20.2448 31.125 10
    endloop
  endfacet
  facet normal -0.991445 0.130526 0
    outer loop
      vertex 19.24 27.375 0
      vertex 19.24 27.375 10
      vertex 19.4956 29.3161 0
    endloop
  endfacet
  facet normal -0.991445 0.130526 0
    outer loop
      vertex 19.4956 29.3161 0
      vertex 19.24 27.375 10
      vertex 19.4956 29.3161 10
    endloop
  endfacet
  facet normal -1 0 0
    outer loop
      vertex 19.24 9.94522 0
      vertex 19.24 9.94522 10
      vertex 19.24 27.375 0
    endloop
  endfacet
  facet normal -1 0 0
    outer loop
      vertex 19.24 27.375 0
      vertex 19.24 9.94522 10
      vertex 19.24 27.375 10
    endloop
  endfacet
  facet normal 0 1 0
    outer loop
      vertex -1.04529 9.94522 0
      vertex -1.04529 9.94522 10
      vertex 19.24 9.94522 0
    endloop
  endfacet
  facet normal 0 1 0
    outer loop
      vertex 14.084 9.94522 6.5866
      vertex -1.04529 9.94522 10
      vertex 19.24 9.94522 10
    endloop
  endfacet
  facet normal 0 1 0
    outer loop
      vertex 14.084 9.94522 3.4134
      vertex -1.04529 9.94522 10
      vertex 13.1679 9.94522 5
    endloop
  endfacet
  facet normal 0 1 0
    outer loop
      vertex 19.24 9.94522 0
      vertex -1.04529 9.94522 10
      vertex 14.084 9.94522 3.4134
    endloop
  endfacet
  facet normal 0 1 0
    outer loop
      vertex 15.916 9.94522 6.5866
      vertex 19.24 9.94522 10
      vertex 16.8321 9.94522 5
    endloop
  endfacet
  facet normal 0 1 0
    outer loop
      vertex 19.24 9.94522 0
      vertex 15.916 9.94522 3.4134
      vertex 16.8321 9.94522 5
    endloop
  endfacet
  facet normal 0 1 0
    outer loop
      vertex 19.24 9.94522 0
      vertex 16.8321 9.94522 5
      vertex 19.24 9.94522 10
    endloop
  endfacet
  facet normal 0 1 0
    outer loop
      vertex 14.084 9.94522 6.5866
      vertex 19.24 9.94522 10
      vertex 15.916 9.94522 6.5866
    endloop
  endfacet
  facet normal 0 1 0
    outer loop
      vertex 13.1679 9.94522 5
      vertex -1.04529 9.94522 10
      vertex 14.084 9.94522 6.5866
    endloop
  endfacet
  facet normal 0 1 0
    outer loop
      vertex 15.916 9.94522 3.4134
      vertex 19.24 9.94522 0
      vertex 14.084 9.94522 3.4134
    endloop
  endfacet
  facet normal -0.207912 0.978148 0
    outer loop
      vertex -3.09017 9.51056 0
      vertex -3.09017 9.51056 10
      vertex -1.04529 9.94522 0
    endloop
  endfacet
  facet normal -0.207912 0.978148 0
    outer loop
      vertex -1.04529 9.94522 0
      vertex -3.09017 9.51056 10
      vertex -1.04529 9.94522 10
    endloop
  endfacet
  facet normal -0.406737 0.913545 0
    outer loop
      vertex -5 8.66025 0
      vertex -5 8.66025 10
      vertex -3.09017 9.51056 0
    endloop
  endfacet
  facet normal -0.406737 0.913545 0
    outer loop
      vertex -3.09017 9.51056 0
      vertex -5 8.66025 10
      vertex -3.09017 9.51056 10
    endloop
  endfacet
  facet normal -0.587785 0.809017 0
    outer loop
      vertex -6.69131 7.43145 0
      vertex -6.69131 7.43145 10
      vertex -5 8.66025 0
    endloop
  endfacet
  facet normal -0.587785 0.809017 0
    outer loop
      vertex -5 8.66025 0
      vertex -6.69131 7.43145 10
      vertex -5 8.66025 10
    endloop
  endfacet
  facet normal -0.743145 0.669131 0
    outer loop
      vertex -8.09017 5.87785 0
      vertex -8.09017 5.87785 10
      vertex -6.69131 7.43145 0
    endloop
  endfacet
  facet normal -0.743145 0.669131 0
    outer loop
      vertex -6.69131 7.43145 0
      vertex -8.09017 5.87785 10
      vertex -6.69131 7.43145 10
    endloop
  endfacet
  facet normal -0.866025 0.5 0
    outer loop
      vertex -9.13546 4.06737 0
      vertex -9.13546 4.06737 10
      vertex -8.09017 5.87785 0
    endloop
  endfacet
  facet normal -0.866025 0.5 0
    outer loop
      vertex -8.09017 5.87785 0
      vertex -9.13546 4.06737 10
      vertex -8.09017 5.87785 10
    endloop
  endfacet
  facet normal 0.866025 -0.5 0
    outer loop
      vertex 25.824 11.5866 0
      vertex 25.824 11.5866 10
      vertex 24.9079 10 10
    endloop
  endfacet
  facet normal 0.866025 -0.5 0
    outer loop
      vertex 24.9079 10 0
      vertex 25.824 11.5866 0
      vertex 24.9079 10 10
    endloop
  endfacet
  facet normal 0.866025 0.5 0
    outer loop
      vertex 24.9079 10 10
      vertex 25.824 8.4134 10
      vertex 25.824 8.4134 0
    endloop
  endfacet
  facet normal 0.866025 0.5 0
    outer loop
      vertex 24.9079 10 0
      vertex 24.9079 10 10
      vertex 25.824 8.4134 0
    endloop
  endfacet
  facet normal 0 -1 0
    outer loop
      vertex 27.656 11.5866 0
      vertex 27.656 11.5866 10
      vertex 25.824 11.5866 10
    endloop
  endfacet
  facet normal 0 -1 0
    outer loop
      vertex 25.824 11.5866 0
      vertex 27.656 11.5866 0
      vertex 25.824 11.5866 10
    endloop
  endfacet
  facet normal -0.866025 -0.5 0
    outer loop
      vertex 28.5721 10 10
      vertex 27.656 11.5866 10
      vertex 28.5721 10 0
    endloop
  endfacet
  facet normal -0.866025 -0.5 0
    outer loop
      vertex 28.5721 10 0
      vertex 27.656 11.5866 10
      vertex 27.656 11.5866 0
    endloop
  endfacet
  facet normal -0.866025 0.5 0
    outer loop
      vertex 28.5721 10 10
      vertex 28.5721 10 0
      vertex 27.656 8.4134 10
    endloop
  endfacet
  facet normal -0.866025 0.5 0
    outer loop
      vertex 27.656 8.4134 10
      vertex 28.5721 10 0
      vertex 27.656 8.4134 0
    endloop
  endfacet
  facet normal 0 1 0
    outer loop
      vertex 27.656 8.4134 10
      vertex 27.656 8.4134 0
      vertex 25.824 8.4134 10
    endloop
  endfacet
  facet normal 0 1 0
    outer loop
      vertex 25.824 8.4134 10
      vertex 27.656 8.4134 0
      vertex 25.824 8.4134 0
    endloop
  endfacet
  facet normal 0.866025 -0.5 0
    outer loop
      vertex 25.824 28.9616 0
      vertex 25.824 28.9616 10
      vertex 24.9079 27.375 10
    endloop
  endfacet
  facet normal 0.866025 -0.5 0
    outer loop
      vertex 24.9079 27.375 0
      vertex 25.824 28.9616 0
      vertex 24.9079 27.375 10
    endloop
  endfacet
  facet normal 0.866025 0.5 0
    outer loop
      vertex 24.9079 27.375 10
      vertex 25.824 25.7884 10
      vertex 25.824 25.7884 0
    endloop
  endfacet
  facet normal 0.866025 0.5 0
    outer loop
      vertex 24.9079 27.375 0
      vertex 24.9079 27.375 10
      vertex 25.824 25.7884 0
    endloop
  endfacet
  facet normal 0 -1 0
    outer loop
      vertex 27.656 28.9616 0
      vertex 27.656 28.9616 10
      vertex 25.824 28.9616 10
    endloop
  endfacet
  facet normal 0 -1 0
    outer loop
      vertex 25.824 28.9616 0
      vertex 27.656 28.9616 0
      vertex 25.824 28.9616 10
    endloop
  endfacet
  facet normal -0.866025 -0.5 0
    outer loop
      vertex 28.5721 27.375 10
      vertex 27.656 28.9616 10
      vertex 28.5721 27.375 0
    endloop
  endfacet
  facet normal -0.866025 -0.5 0
    outer loop
      vertex 28.5721 27.375 0
      vertex 27.656 28.9616 10
      vertex 27.656 28.9616 0
    endloop
  endfacet
  facet normal -0.866025 0.5 0
    outer loop
      vertex 28.5721 27.375 10
      vertex 28.5721 27.375 0
      vertex 27.656 25.7884 10
    endloop
  endfacet
  facet normal -0.866025 0.5 0
    outer loop
      vertex 27.656 25.7884 10
      vertex 28.5721 27.375 0
      vertex 27.656 25.7884 0
    endloop
  endfacet
  facet normal 0 1 0
    outer loop
      vertex 27.656 25.7884 10
      vertex 27.656 25.7884 0
      vertex 25.824 25.7884 10
    endloop
  endfacet
  facet normal 0 1 0
    outer loop
      vertex 25.824 25.7884 10
      vertex 27.656 25.7884 0
      vertex 25.824 25.7884 0
    endloop
  endfacet
  facet normal 0.866025 -0.5 0
    outer loop
      vertex 122.344 11.5866 0
      vertex 122.344 11.5866 10
      vertex 121.428 10 10
    endloop
  endfacet
  facet normal 0.866025 -0.5 0
    outer loop
      vertex 121.428 10 0
      vertex 122.344 11.5866 0
      vertex 121.428 10 10
    endloop
  endfacet
  facet normal 0.866025 0.5 0
    outer loop
      vertex 121.428 10 10
      vertex 122.344 8.4134 10
      vertex 122.344 8.4134 0
    endloop
  endfacet
  facet normal 0.866025 0.5 0
    outer loop
      vertex 121.428 10 0
      vertex 121.428 10 10
      vertex 122.344 8.4134 0
    endloop
  endfacet
  facet normal 0 -1 0
    outer loop
      vertex 124.176 11.5866 0
      vertex 124.176 11.5866 10
      vertex 122.344 11.5866 10
    endloop
  endfacet
  facet normal 0 -1 0
    outer loop
      vertex 122.344 11.5866 0
      vertex 124.176 11.5866 0
      vertex 122.344 11.5866 10
    endloop
  endfacet
  facet normal -0.866025 -0.5 0
    outer loop
      vertex 125.092 10 10
      vertex 124.176 11.5866 10
      vertex 125.092 10 0
    endloop
  endfacet
  facet normal -0.866025 -0.5 0
    outer loop
      vertex 125.092 10 0
      vertex 124.176 11.5866 10
      vertex 124.176 11.5866 0
    endloop
  endfacet
  facet normal -0.866025 0.5 0
    outer loop
      vertex 125.092 10 10
      vertex 125.092 10 0
      vertex 124.176 8.4134 10
    endloop
  endfacet
  facet normal -0.866025 0.5 0
    outer loop
      vertex 124.176 8.4134 10
      vertex 125.092 10 0
      vertex 124.176 8.4134 0
    endloop
  endfacet
  facet normal 0 1 0
    outer loop
      vertex 124.176 8.4134 10
      vertex 124.176 8.4134 0
      vertex 122.344 8.4134 10
    endloop
  endfacet
  facet normal 0 1 0
    outer loop
      vertex 122.344 8.4134 10
      vertex 124.176 8.4134 0
      vertex 122.344 8.4134 0
    endloop
  endfacet
  facet normal 0.866025 -0.5 0
    outer loop
      vertex 122.344 28.9616 0
      vertex 122.344 28.9616 10
      vertex 121.428 27.375 10
    endloop
  endfacet
  facet normal 0.866025 -0.5 0
    outer loop
      vertex 121.428 27.375 0
      vertex 122.344 28.9616 0
      vertex 121.428 27.375 10
    endloop
  endfacet
  facet normal 0.866025 0.5 0
    outer loop
      vertex 121.428 27.375 10
      vertex 122.344 25.7884 10
      vertex 122.344 25.7884 0
    endloop
  endfacet
  facet normal 0.866025 0.5 0
    outer loop
      vertex 121.428 27.375 0
      vertex 121.428 27.375 10
      vertex 122.344 25.7884 0
    endloop
  endfacet
  facet normal 0 -1 0
    outer loop
      vertex 124.176 28.9616 0
      vertex 124.176 28.9616 10
      vertex 122.344 28.9616 10
    endloop
  endfacet
  facet normal 0 -1 0
    outer loop
      vertex 122.344 28.9616 0
      vertex 124.176 28.9616 0
      vertex 122.344 28.9616 10
    endloop
  endfacet
  facet normal -0.866025 -0.5 0
    outer loop
      vertex 125.092 27.375 10
      vertex 124.176 28.9616 10
      vertex 125.092 27.375 0
    endloop
  endfacet
  facet normal -0.866025 -0.5 0
    outer loop
      vertex 125.092 27.375 0
      vertex 124.176 28.9616 10
      vertex 124.176 28.9616 0
    endloop
  endfacet
  facet normal -0.866025 0.5 0
    outer loop
      vertex 125.092 27.375 10
      vertex 125.092 27.375 0
      vertex 124.176 25.7884 10
    endloop
  endfacet
  facet normal -0.866025 0.5 0
    outer loop
      vertex 124.176 25.7884 10
      vertex 125.092 27.375 0
      vertex 124.176 25.7884 0
    endloop
  endfacet
  facet normal 0 1 0
    outer loop
      vertex 124.176 25.7884 10
      vertex 124.176 25.7884 0
      vertex 122.344 25.7884 10
    endloop
  endfacet
  facet normal 0 1 0
    outer loop
      vertex 122.344 25.7884 10
      vertex 124.176 25.7884 0
      vertex 122.344 25.7884 0
    endloop
  endfacet
  facet normal 0.866025 -1.11022e-16 0.5
    outer loop
      vertex 14.084 0 3.4134
      vertex 14.084 9.94522 3.4134
      vertex 13.1679 9.94522 5
    endloop
  endfacet
  facet normal 0.866025 -1.11022e-16 0.5
    outer loop
      vertex 13.1679 0 5
      vertex 14.084 0 3.4134
      vertex 13.1679 9.94522 5
    endloop
  endfacet
  facet normal 0.866025 1.11022e-16 -0.5
    outer loop
      vertex 13.1679 9.94522 5
      vertex 14.084 9.94522 6.5866
      vertex 14.084 0 6.5866
    endloop
  endfacet
  facet normal 0.866025 1.11022e-16 -0.5
    outer loop
      vertex 13.1679 0 5
      vertex 13.1679 9.94522 5
      vertex 14.084 0 6.5866
    endloop
  endfacet
  facet normal 0 -2.22045e-16 1
    outer loop
      vertex 15.916 0 3.4134
      vertex 15.916 9.94522 3.4134
      vertex 14.084 9.94522 3.4134
    endloop
  endfacet
  facet normal 0 -2.22045e-16 1
    outer loop
      vertex 14.084 0 3.4134
      vertex 15.916 0 3.4134
      vertex 14.084 9.94522 3.4134
    endloop
  endfacet
  facet normal -0.866025 -1.11022e-16 0.5
    outer loop
      vertex 16.8321 9.94522 5
      vertex 15.916 9.94522 3.4134
      vertex 16.8321 0 5
    endloop
  endfacet
  facet normal -0.866025 -1.11022e-16 0.5
    outer loop
      vertex 16.8321 0 5
      vertex 15.916 9.94522 3.4134
      vertex 15.916 0 3.4134
    endloop
  endfacet
  facet normal -0.866025 1.11022e-16 -0.5
    outer loop
      vertex 16.8321 9.94522 5
      vertex 16.8321 0 5
      vertex 15.916 9.94522 6.5866
    endloop
  endfacet
  facet normal -0.866025 1.11022e-16 -0.5
    outer loop
      vertex 15.916 9.94522 6.5866
      vertex 16.8321 0 5
      vertex 15.916 0 6.5866
    endloop
  endfacet
  facet normal 0 2.22045e-16 -1
    outer loop
      vertex 15.916 9.94522 6.5866
      vertex 15.916 0 6.5866
      vertex 14.084 9.94522 6.5866
    endloop
  endfacet
  facet normal 0 2.22045e-16 -1
    outer loop
      vertex 14.084 9.94522 6.5866
      vertex 15.916 0 6.5866
      vertex 14.084 0 6.5866
    endloop
  endfacet
  facet normal 0.866025 1.11022e-16 -0.5
    outer loop
      vertex 43.1679 9.94522 5
      vertex 44.084 9.94522 6.5866
      vertex 44.084 0 6.5866
    endloop
  endfacet
  facet normal 0.866025 1.11022e-16 -0.5
    outer loop
      vertex 43.1679 0 5
      vertex 43.1679 9.94522 5
      vertex 44.084 0 6.5866
    endloop
  endfacet
  facet normal 0.866025 -1.11022e-16 0.5
    outer loop
      vertex 44.084 0 3.4134
      vertex 44.084 9.94522 3.4134
      vertex 43.1679 9.94522 5
    endloop
  endfacet
  facet normal 0.866025 -1.11022e-16 0.5
    outer loop
      vertex 43.1679 0 5
      vertex 44.084 0 3.4134
      vertex 43.1679 9.94522 5
    endloop
  endfacet
  facet normal 0 -2.22045e-16 1
    outer loop
      vertex 45.916 0 3.4134
      vertex 45.916 9.94522 3.4134
      vertex 44.084 9.94522 3.4134
    endloop
  endfacet
  facet normal 0 -2.22045e-16 1
    outer loop
      vertex 44.084 0 3.4134
      vertex 45.916 0 3.4134
      vertex 44.084 9.94522 3.4134
    endloop
  endfacet
  facet normal -0.866025 -1.11022e-16 0.5
    outer loop
      vertex 46.8321 9.94522 5
      vertex 45.916 9.94522 3.4134
      vertex 46.8321 0 5
    endloop
  endfacet
  facet normal -0.866025 -1.11022e-16 0.5
    outer loop
      vertex 46.8321 0 5
      vertex 45.916 9.94522 3.4134
      vertex 45.916 0 3.4134
    endloop
  endfacet
  facet normal -0.866025 1.11022e-16 -0.5
    outer loop
      vertex 46.8321 9.94522 5
      vertex 46.8321 0 5
      vertex 45.916 9.94522 6.5866
    endloop
  endfacet
  facet normal -0.866025 1.11022e-16 -0.5
    outer loop
      vertex 45.916 9.94522 6.5866
      vertex 46.8321 0 5
      vertex 45.916 0 6.5866
    endloop
  endfacet
  facet normal 0 2.22045e-16 -1
    outer loop
      vertex 45.916 9.94522 6.5866
      vertex 45.916 0 6.5866
      vertex 44.084 9.94522 6.5866
    endloop
  endfacet
  facet normal 0 2.22045e-16 -1
    outer loop
      vertex 44.084 9.94522 6.5866
      vertex 45.916 0 6.5866
      vertex 44.084 0 6.5866
    endloop
  endfacet
  facet normal 0.866025 -1.11022e-16 0.5
    outer loop
      vertex 74.084 0 3.4134
      vertex 74.084 9.94522 3.4134
      vertex 73.1679 9.94522 5
    endloop
  endfacet
  facet normal 0.866025 -1.11022e-16 0.5
    outer loop
      vertex 73.1679 0 5
      vertex 74.084 0 3.4134
      vertex 73.1679 9.94522 5
    endloop
  endfacet
  facet normal 0.866025 1.11022e-16 -0.5
    outer loop
      vertex 73.1679 9.94522 5
      vertex 74.084 9.94522 6.5866
      vertex 74.084 0 6.5866
    endloop
  endfacet
  facet normal 0.866025 1.11022e-16 -0.5
    outer loop
      vertex 73.1679 0 5
      vertex 73.1679 9.94522 5
      vertex 74.084 0 6.5866
    endloop
  endfacet
  facet normal 0 -2.22045e-16 1
    outer loop
      vertex 75.916 0 3.4134
      vertex 75.916 9.94522 3.4134
      vertex 74.084 9.94522 3.4134
    endloop
  endfacet
  facet normal 0 -2.22045e-16 1
    outer loop
      vertex 74.084 0 3.4134
      vertex 75.916 0 3.4134
      vertex 74.084 9.94522 3.4134
    endloop
  endfacet
  facet normal -0.866025 -1.11022e-16 0.5
    outer loop
      vertex 76.8321 9.94522 5
      vertex 75.916 9.94522 3.4134
      vertex 76.8321 0 5
    endloop
  endfacet
  facet normal -0.866025 -1.11022e-16 0.5
    outer loop
      vertex 76.8321 0 5
      vertex 75.916 9.94522 3.4134
      vertex 75.916 0 3.4134
    endloop
  endfacet
  facet normal -0.866025 1.11022e-16 -0.5
    outer loop
      vertex 76.8321 9.94522 5
      vertex 76.8321 0 5
      vertex 75.916 9.94522 6.5866
    endloop
  endfacet
  facet normal -0.866025 1.11022e-16 -0.5
    outer loop
      vertex 75.916 9.94522 6.5866
      vertex 76.8321 0 5
      vertex 75.916 0 6.5866
    endloop
  endfacet
  facet normal 0 2.22045e-16 -1
    outer loop
      vertex 75.916 9.94522 6.5866
      vertex 75.916 0 6.5866
      vertex 74.084 9.94522 6.5866
    endloop
  endfacet
  facet normal 0 2.22045e-16 -1
    outer loop
      vertex 74.084 9.94522 6.5866
      vertex 75.916 0 6.5866
      vertex 74.084 0 6.5866
    endloop
  endfacet
  facet normal 0.866025 -1.11022e-16 0.5
    outer loop
      vertex 104.084 0 3.4134
      vertex 104.084 9.94522 3.4134
      vertex 103.168 9.94522 5
    endloop
  endfacet
  facet normal 0.866025 -1.11022e-16 0.5
    outer loop
      vertex 103.168 0 5
      vertex 104.084 0 3.4134
      vertex 103.168 9.94522 5
    endloop
  endfacet
  facet normal 0.866025 1.11022e-16 -0.5
    outer loop
      vertex 103.168 9.94522 5
      vertex 104.084 9.94522 6.5866
      vertex 104.084 0 6.5866
    endloop
  endfacet
  facet normal 0.866025 1.11022e-16 -0.5
    outer loop
      vertex 103.168 0 5
      vertex 103.168 9.94522 5
      vertex 104.084 0 6.5866
    endloop
  endfacet
  facet normal 0 -2.22045e-16 1
    outer loop
      vertex 105.916 0 3.4134
      vertex 105.916 9.94522 3.4134
      vertex 104.084 9.94522 3.4134
    endloop
  endfacet
  facet normal 0 -2.22045e-16 1
    outer loop
      vertex 104.084 0 3.4134
      vertex 105.916 0 3.4134
      vertex 104.084 9.94522 3.4134
    endloop
  endfacet
  facet normal -0.866025 -1.11022e-16 0.5
    outer loop
      vertex 106.832 9.94522 5
      vertex 105.916 9.94522 3.4134
      vertex 106.832 0 5
    endloop
  endfacet
  facet normal -0.866025 -1.11022e-16 0.5
    outer loop
      vertex 106.832 0 5
      vertex 105.916 9.94522 3.4134
      vertex 105.916 0 3.4134
    endloop
  endfacet
  facet normal -0.866025 1.11022e-16 -0.5
    outer loop
      vertex 106.832 9.94522 5
      vertex 106.832 0 5
      vertex 105.916 9.94522 6.5866
    endloop
  endfacet
  facet normal -0.866025 1.11022e-16 -0.5
    outer loop
      vertex 105.916 9.94522 6.5866
      vertex 106.832 0 5
      vertex 105.916 0 6.5866
    endloop
  endfacet
  facet normal 0 2.22045e-16 -1
    outer loop
      vertex 105.916 9.94522 6.5866
      vertex 105.916 0 6.5866
      vertex 104.084 9.94522 6.5866
    endloop
  endfacet
  facet normal 0 2.22045e-16 -1
    outer loop
      vertex 104.084 9.94522 6.5866
      vertex 105.916 0 6.5866
      vertex 104.084 0 6.5866
    endloop
  endfacet
  facet normal 0.866025 1.11022e-16 -0.5
    outer loop
      vertex 133.168 9.94522 5
      vertex 134.084 9.94522 6.5866
      vertex 134.084 0 6.5866
    endloop
  endfacet
  facet normal 0.866025 1.11022e-16 -0.5
    outer loop
      vertex 133.168 0 5
      vertex 133.168 9.94522 5
      vertex 134.084 0 6.5866
    endloop
  endfacet
  facet normal 0.866025 -1.11022e-16 0.5
    outer loop
      vertex 134.084 0 3.4134
      vertex 134.084 9.94522 3.4134
      vertex 133.168 9.94522 5
    endloop
  endfacet
  facet normal 0.866025 -1.11022e-16 0.5
    outer loop
      vertex 133.168 0 5
      vertex 134.084 0 3.4134
      vertex 133.168 9.94522 5
    endloop
  endfacet
  facet normal 0 -2.22045e-16 1
    outer loop
      vertex 135.916 0 3.4134
      vertex 135.916 9.94522 3.4134
      vertex 134.084 9.94522 3.4134
    endloop
  endfacet
  facet normal 0 -2.22045e-16 1
    outer loop
      vertex 134.084 0 3.4134
      vertex 135.916 0 3.4134
      vertex 134.084 9.94522 3.4134
    endloop
  endfacet
  facet normal -0.866025 -1.11022e-16 0.5
    outer loop
      vertex 136.832 9.94522 5
      vertex 135.916 9.94522 3.4134
      vertex 136.832 0 5
    endloop
  endfacet
  facet normal -0.866025 -1.11022e-16 0.5
    outer loop
      vertex 136.832 0 5
      vertex 135.916 9.94522 3.4134
      vertex 135.916 0 3.4134
    endloop
  endfacet
  facet normal -0.866025 1.11022e-16 -0.5
    outer loop
      vertex 136.832 9.94522 5
      vertex 136.832 0 5
      vertex 135.916 9.94522 6.5866
    endloop
  endfacet
  facet normal -0.866025 1.11022e-16 -0.5
    outer loop
      vertex 135.916 9.94522 6.5866
      vertex 136.832 0 5
      vertex 135.916 0 6.5866
    endloop
  endfacet
  facet normal 0 2.22045e-16 -1
    outer loop
      vertex 135.916 9.94522 6.5866
      vertex 135.916 0 6.5866
      vertex 134.084 9.94522 6.5866
    endloop
  endfacet
  facet normal 0 2.22045e-16 -1
    outer loop
      vertex 134.084 9.94522 6.5866
      vertex 135.916 0 6.5866
      vertex 134.084 0 6.5866
    endloop
  endfacet
endsolid OpenSCAD_Model
