solid OpenSCAD_Model
  facet normal -0.994522 0.104528 0
    outer loop
      vertex -10 0 0
      vertex -10 0 10
      vertex -9.78148 2.07912 0
    endloop
  endfacet
  facet normal -0.994522 0.104528 0
    outer loop
      vertex -9.78148 2.07912 0
      vertex -10 0 10
      vertex -9.78148 2.07912 10
    endloop
  endfacet
  facet normal 0 -1 0
    outer loop
      vertex -4.17836 0 0
      vertex -4.17836 0 10
      vertex -10 0 10
    endloop
  endfacet
  facet normal 0 -1 0
    outer loop
      vertex -10 0 0
      vertex -4.17836 0 0
      vertex -10 0 10
    endloop
  endfacet
  facet normal 0 0 -1
    outer loop
      vertex -10 0 0
      vertex -9.78148 2.07912 0
      vertex -4.17836 0 0
    endloop
  endfacet
  facet normal 0 0 -1
    outer loop
      vertex -4.17836 0 0
      vertex -9.78148 2.07912 0
      vertex -9.13546 4.06737 0
    endloop
  endfacet
  facet normal 0 0 -1
    outer loop
      vertex -4.17836 0 0
      vertex -9.13546 4.06737 0
      vertex -8.09017 5.87785 0
    endloop
  endfacet
  facet normal 0 0 -1
    outer loop
      vertex -4.17836 0 0
      vertex -8.09017 5.87785 0
      vertex -6.69131 7.43145 0
    endloop
  endfacet
  facet normal 0 0 -1
    outer loop
      vertex -4.17836 0 0
      vertex -6.69131 7.43145 0
      vertex -5 8.66025 0
    endloop
  endfacet
  facet normal 0 0 -1
    outer loop
      vertex -4.17836 0 0
      vertex -5 8.66025 0
      vertex -3.09017 9.51056 0
    endloop
  endfacet
  facet normal 0 0 -1
    outer loop
      vertex -3.86031 1.59899 0
      vertex -3.09017 9.51056 0
      vertex -1.04529 9.94522 0
    endloop
  endfacet
  facet normal 0 0 -1
    outer loop
      vertex 3.86031 1.59899 0
      vertex -1.04529 9.94522 0
      vertex 151.045 9.94522 0
    endloop
  endfacet
  facet normal 0 0 -1
    outer loop
      vertex 150 4.17836 0
      vertex 158.09 5.87785 0
      vertex 159.135 4.06737 0
    endloop
  endfacet
  facet normal 0 0 -1
    outer loop
      vertex 152.955 2.95455 0
      vertex 159.135 4.06737 0
      vertex 159.781 2.07912 0
    endloop
  endfacet
  facet normal 0 0 -1
    outer loop
      vertex 154.178 0 0
      vertex 159.781 2.07912 0
      vertex 160 0 0
    endloop
  endfacet
  facet normal 0 0 -1
    outer loop
      vertex 153.86 1.59899 0
      vertex 159.781 2.07912 0
      vertex 154.178 0 0
    endloop
  endfacet
  facet normal 0 0 -1
    outer loop
      vertex 151.599 3.86031 0
      vertex 159.135 4.06737 0
      vertex 152.955 2.95455 0
    endloop
  endfacet
  facet normal 0 0 -1
    outer loop
      vertex 150 4.17836 0
      vertex 159.135 4.06737 0
      vertex 151.599 3.86031 0
    endloop
  endfacet
  facet normal 0 0 -1
    outer loop
      vertex 145.822 0 0
      vertex 4.17836 0 0
      vertex 146.14 1.59899 0
    endloop
  endfacet
  facet normal 0 0 -1
    outer loop
      vertex 3.86031 1.59899 0
      vertex 155 8.66025 0
      vertex 156.691 7.43145 0
    endloop
  endfacet
  facet normal 0 0 -1
    outer loop
      vertex 3.86031 1.59899 0
      vertex 151.045 9.94522 0
      vertex 153.09 9.51056 0
    endloop
  endfacet
  facet normal 0 0 -1
    outer loop
      vertex 3.86031 1.59899 0
      vertex 153.09 9.51056 0
      vertex 155 8.66025 0
    endloop
  endfacet
  facet normal 0 0 -1
    outer loop
      vertex 2.95455 2.95455 0
      vertex -1.04529 9.94522 0
      vertex 3.86031 1.59899 0
    endloop
  endfacet
  facet normal 0 0 -1
    outer loop
      vertex -3.86031 1.59899 0
      vertex -1.04529 9.94522 0
      vertex -2.95455 2.95455 0
    endloop
  endfacet
  facet normal 0 0 -1
    outer loop
      vertex 1.59899 3.86031 0
      vertex -1.04529 9.94522 0
      vertex 2.95455 2.95455 0
    endloop
  endfacet
  facet normal 0 0 -1
    outer loop
      vertex 0 4.17836 0
      vertex -1.04529 9.94522 0
      vertex 1.59899 3.86031 0
    endloop
  endfacet
  facet normal 0 0 -1
    outer loop
      vertex -1.59899 3.86031 0
      vertex -1.04529 9.94522 0
      vertex 0 4.17836 0
    endloop
  endfacet
  facet normal 0 0 -1
    outer loop
      vertex -2.95455 2.95455 0
      vertex -1.04529 9.94522 0
      vertex -1.59899 3.86031 0
    endloop
  endfacet
  facet normal 0 0 -1
    outer loop
      vertex -4.17836 0 0
      vertex -3.09017 9.51056 0
      vertex -3.86031 1.59899 0
    endloop
  endfacet
  facet normal 0 0 -1
    outer loop
      vertex 152.955 2.95455 0
      vertex 159.781 2.07912 0
      vertex 153.86 1.59899 0
    endloop
  endfacet
  facet normal 0 0 -1
    outer loop
      vertex 3.86031 1.59899 0
      vertex 156.691 7.43145 0
      vertex 158.09 5.87785 0
    endloop
  endfacet
  facet normal 0 0 -1
    outer loop
      vertex 3.86031 1.59899 0
      vertex 158.09 5.87785 0
      vertex 150 4.17836 0
    endloop
  endfacet
  facet normal 0 0 -1
    outer loop
      vertex 3.86031 1.59899 0
      vertex 150 4.17836 0
      vertex 148.401 3.86031 0
    endloop
  endfacet
  facet normal 0 0 -1
    outer loop
      vertex 3.86031 1.59899 0
      vertex 148.401 3.86031 0
      vertex 147.045 2.95455 0
    endloop
  endfacet
  facet normal 0 0 -1
    outer loop
      vertex 3.86031 1.59899 0
      vertex 147.045 2.95455 0
      vertex 146.14 1.59899 0
    endloop
  endfacet
  facet normal 0 0 -1
    outer loop
      vertex 3.86031 1.59899 0
      vertex 146.14 1.59899 0
      vertex 4.17836 0 0
    endloop
  endfacet
  facet normal -0.951057 0.309017 0
    outer loop
      vertex -9.78148 2.07912 0
      vertex -9.78148 2.07912 10
      vertex -9.13546 4.06737 0
    endloop
  endfacet
  facet normal -0.951057 0.309017 0
    outer loop
      vertex -9.13546 4.06737 0
      vertex -9.78148 2.07912 10
      vertex -9.13546 4.06737 10
    endloop
  endfacet
  facet normal 0 0 1
    outer loop
      vertex -9.78148 2.07912 10
      vertex -10 0 10
      vertex -4.17836 0 10
    endloop
  endfacet
  facet normal 0 0 1
    outer loop
      vertex -2.95455 2.95455 10
      vertex -9.78148 2.07912 10
      vertex -3.86031 1.59899 10
    endloop
  endfacet
  facet normal 0 0 1
    outer loop
      vertex -3.86031 1.59899 10
      vertex -9.78148 2.07912 10
      vertex -4.17836 0 10
    endloop
  endfacet
  facet normal 0 0 1
    outer loop
      vertex -1.59899 3.86031 10
      vertex -9.78148 2.07912 10
      vertex -2.95455 2.95455 10
    endloop
  endfacet
  facet normal 0 0 1
    outer loop
      vertex -1.04529 9.94522 10
      vertex -9.78148 2.07912 10
      vertex -1.59899 3.86031 10
    endloop
  endfacet
  facet normal 0 0 1
    outer loop
      vertex -1.04529 9.94522 10
      vertex -1.59899 3.86031 10
      vertex 0 4.17836 10
    endloop
  endfacet
  facet normal 0 0 1
    outer loop
      vertex 145.822 0 10
      vertex 0 4.17836 10
      vertex 1.59899 3.86031 10
    endloop
  endfacet
  facet normal 0 0 1
    outer loop
      vertex 145.822 0 10
      vertex 1.59899 3.86031 10
      vertex 2.95455 2.95455 10
    endloop
  endfacet
  facet normal 0 0 1
    outer loop
      vertex 145.822 0 10
      vertex 2.95455 2.95455 10
      vertex 3.86031 1.59899 10
    endloop
  endfacet
  facet normal 0 0 1
    outer loop
      vertex 145.822 0 10
      vertex 3.86031 1.59899 10
      vertex 4.17836 0 10
    endloop
  endfacet
  facet normal 0 0 1
    outer loop
      vertex 146.14 1.59899 10
      vertex 0 4.17836 10
      vertex 145.822 0 10
    endloop
  endfacet
  facet normal 0 0 1
    outer loop
      vertex 147.045 2.95455 10
      vertex 0 4.17836 10
      vertex 146.14 1.59899 10
    endloop
  endfacet
  facet normal 0 0 1
    outer loop
      vertex 148.401 3.86031 10
      vertex 0 4.17836 10
      vertex 147.045 2.95455 10
    endloop
  endfacet
  facet normal 0 0 1
    outer loop
      vertex 150 4.17836 10
      vertex 0 4.17836 10
      vertex 148.401 3.86031 10
    endloop
  endfacet
  facet normal 0 0 1
    outer loop
      vertex 158.09 5.87785 10
      vertex 0 4.17836 10
      vertex 150 4.17836 10
    endloop
  endfacet
  facet normal 0 0 1
    outer loop
      vertex 159.135 4.06737 10
      vertex 150 4.17836 10
      vertex 151.599 3.86031 10
    endloop
  endfacet
  facet normal 0 0 1
    outer loop
      vertex 160 0 10
      vertex 151.599 3.86031 10
      vertex 152.955 2.95455 10
    endloop
  endfacet
  facet normal 0 0 1
    outer loop
      vertex 160 0 10
      vertex 152.955 2.95455 10
      vertex 153.86 1.59899 10
    endloop
  endfacet
  facet normal 0 0 1
    outer loop
      vertex 160 0 10
      vertex 153.86 1.59899 10
      vertex 154.178 0 10
    endloop
  endfacet
  facet normal 0 0 1
    outer loop
      vertex 159.781 2.07912 10
      vertex 151.599 3.86031 10
      vertex 160 0 10
    endloop
  endfacet
  facet normal 0 0 1
    outer loop
      vertex 159.135 4.06737 10
      vertex 151.599 3.86031 10
      vertex 159.781 2.07912 10
    endloop
  endfacet
  facet normal 0 0 1
    outer loop
      vertex 158.09 5.87785 10
      vertex 150 4.17836 10
      vertex 159.135 4.06737 10
    endloop
  endfacet
  facet normal 0 0 1
    outer loop
      vertex 156.691 7.43145 10
      vertex 0 4.17836 10
      vertex 158.09 5.87785 10
    endloop
  endfacet
  facet normal 0 0 1
    outer loop
      vertex 155 8.66025 10
      vertex 0 4.17836 10
      vertex 156.691 7.43145 10
    endloop
  endfacet
  facet normal 0 0 1
    outer loop
      vertex 153.09 9.51056 10
      vertex 0 4.17836 10
      vertex 155 8.66025 10
    endloop
  endfacet
  facet normal 0 0 1
    outer loop
      vertex 151.045 9.94522 10
      vertex 0 4.17836 10
      vertex 153.09 9.51056 10
    endloop
  endfacet
  facet normal 0 0 1
    outer loop
      vertex -1.04529 9.94522 10
      vertex 0 4.17836 10
      vertex 151.045 9.94522 10
    endloop
  endfacet
  facet normal 0 0 1
    outer loop
      vertex -3.09017 9.51056 10
      vertex -9.78148 2.07912 10
      vertex -1.04529 9.94522 10
    endloop
  endfacet
  facet normal 0 0 1
    outer loop
      vertex -5 8.66025 10
      vertex -9.78148 2.07912 10
      vertex -3.09017 9.51056 10
    endloop
  endfacet
  facet normal 0 0 1
    outer loop
      vertex -6.69131 7.43145 10
      vertex -9.78148 2.07912 10
      vertex -5 8.66025 10
    endloop
  endfacet
  facet normal 0 0 1
    outer loop
      vertex -8.09017 5.87785 10
      vertex -9.78148 2.07912 10
      vertex -6.69131 7.43145 10
    endloop
  endfacet
  facet normal 0 0 1
    outer loop
      vertex -9.13546 4.06737 10
      vertex -9.78148 2.07912 10
      vertex -8.09017 5.87785 10
    endloop
  endfacet
  facet normal 0.980785 -0.19509 0
    outer loop
      vertex -3.86031 1.59899 0
      vertex -3.86031 1.59899 10
      vertex -4.17836 0 10
    endloop
  endfacet
  facet normal 0.980785 -0.19509 0
    outer loop
      vertex -4.17836 0 0
      vertex -3.86031 1.59899 0
      vertex -4.17836 0 10
    endloop
  endfacet
  facet normal 0.831469 -0.55557 0
    outer loop
      vertex -2.95455 2.95455 0
      vertex -2.95455 2.95455 10
      vertex -3.86031 1.59899 10
    endloop
  endfacet
  facet normal 0.831469 -0.55557 0
    outer loop
      vertex -3.86031 1.59899 0
      vertex -2.95455 2.95455 0
      vertex -3.86031 1.59899 10
    endloop
  endfacet
  facet normal 0.55557 -0.831469 0
    outer loop
      vertex -1.59899 3.86031 0
      vertex -1.59899 3.86031 10
      vertex -2.95455 2.95455 10
    endloop
  endfacet
  facet normal 0.55557 -0.831469 0
    outer loop
      vertex -2.95455 2.95455 0
      vertex -1.59899 3.86031 0
      vertex -2.95455 2.95455 10
    endloop
  endfacet
  facet normal 0.19509 -0.980785 0
    outer loop
      vertex 0 4.17836 0
      vertex 0 4.17836 10
      vertex -1.59899 3.86031 10
    endloop
  endfacet
  facet normal 0.19509 -0.980785 0
    outer loop
      vertex -1.59899 3.86031 0
      vertex 0 4.17836 0
      vertex -1.59899 3.86031 10
    endloop
  endfacet
  facet normal -0.19509 -0.980785 0
    outer loop
      vertex 1.59899 3.86031 0
      vertex 1.59899 3.86031 10
      vertex 0 4.17836 10
    endloop
  endfacet
  facet normal -0.19509 -0.980785 0
    outer loop
      vertex 0 4.17836 0
      vertex 1.59899 3.86031 0
      vertex 0 4.17836 10
    endloop
  endfacet
  facet normal -0.55557 -0.831469 0
    outer loop
      vertex 2.95455 2.95455 0
      vertex 2.95455 2.95455 10
      vertex 1.59899 3.86031 10
    endloop
  endfacet
  facet normal -0.55557 -0.831469 0
    outer loop
      vertex 1.59899 3.86031 0
      vertex 2.95455 2.95455 0
      vertex 1.59899 3.86031 10
    endloop
  endfacet
  facet normal -0.831469 -0.55557 0
    outer loop
      vertex 3.86031 1.59899 10
      vertex 2.95455 2.95455 10
      vertex 3.86031 1.59899 0
    endloop
  endfacet
  facet normal -0.831469 -0.55557 0
    outer loop
      vertex 3.86031 1.59899 0
      vertex 2.95455 2.95455 10
      vertex 2.95455 2.95455 0
    endloop
  endfacet
  facet normal -0.980785 -0.19509 0
    outer loop
      vertex 4.17836 0 10
      vertex 3.86031 1.59899 10
      vertex 4.17836 0 0
    endloop
  endfacet
  facet normal -0.980785 -0.19509 0
    outer loop
      vertex 4.17836 0 0
      vertex 3.86031 1.59899 10
      vertex 3.86031 1.59899 0
    endloop
  endfacet
  facet normal 0 -1 0
    outer loop
      vertex 74.084 0 6.5866
      vertex 145.822 0 10
      vertex 4.17836 0 10
    endloop
  endfacet
  facet normal 0 -1 0
    outer loop
      vertex 4.17836 0 0
      vertex 13.1679 0 5
      vertex 4.17836 0 10
    endloop
  endfacet
  facet normal 0 -1 0
    outer loop
      vertex 13.1679 0 5
      vertex 14.084 0 6.5866
      vertex 4.17836 0 10
    endloop
  endfacet
  facet normal 0 -1 0
    outer loop
      vertex 43.1679 0 5
      vertex 44.084 0 6.5866
      vertex 15.916 0 6.5866
    endloop
  endfacet
  facet normal 0 -1 0
    outer loop
      vertex 14.084 0 6.5866
      vertex 15.916 0 6.5866
      vertex 4.17836 0 10
    endloop
  endfacet
  facet normal 0 -1 0
    outer loop
      vertex 44.084 0 3.4134
      vertex 43.1679 0 5
      vertex 16.8321 0 5
    endloop
  endfacet
  facet normal 0 -1 0
    outer loop
      vertex 4.17836 0 0
      vertex 145.822 0 0
      vertex 15.916 0 3.4134
    endloop
  endfacet
  facet normal 0 -1 0
    outer loop
      vertex 4.17836 0 0
      vertex 14.084 0 3.4134
      vertex 13.1679 0 5
    endloop
  endfacet
  facet normal 0 -1 0
    outer loop
      vertex 4.17836 0 0
      vertex 15.916 0 3.4134
      vertex 14.084 0 3.4134
    endloop
  endfacet
  facet normal 0 -1 0
    outer loop
      vertex 15.916 0 6.5866
      vertex 44.084 0 6.5866
      vertex 4.17836 0 10
    endloop
  endfacet
  facet normal 0 -1 0
    outer loop
      vertex 44.084 0 6.5866
      vertex 45.916 0 6.5866
      vertex 4.17836 0 10
    endloop
  endfacet
  facet normal 0 -1 0
    outer loop
      vertex 75.916 0 3.4134
      vertex 74.084 0 3.4134
      vertex 145.822 0 0
    endloop
  endfacet
  facet normal 0 -1 0
    outer loop
      vertex 16.8321 0 5
      vertex 15.916 0 3.4134
      vertex 44.084 0 3.4134
    endloop
  endfacet
  facet normal 0 -1 0
    outer loop
      vertex 44.084 0 3.4134
      vertex 145.822 0 0
      vertex 45.916 0 3.4134
    endloop
  endfacet
  facet normal 0 -1 0
    outer loop
      vertex 74.084 0 3.4134
      vertex 45.916 0 3.4134
      vertex 145.822 0 0
    endloop
  endfacet
  facet normal 0 -1 0
    outer loop
      vertex 15.916 0 3.4134
      vertex 145.822 0 0
      vertex 44.084 0 3.4134
    endloop
  endfacet
  facet normal 0 -1 0
    outer loop
      vertex 45.916 0 6.5866
      vertex 73.1679 0 5
      vertex 4.17836 0 10
    endloop
  endfacet
  facet normal 0 -1 0
    outer loop
      vertex 75.916 0 6.5866
      vertex 145.822 0 10
      vertex 74.084 0 6.5866
    endloop
  endfacet
  facet normal 0 -1 0
    outer loop
      vertex 104.084 0 3.4134
      vertex 75.916 0 6.5866
      vertex 76.8321 0 5
    endloop
  endfacet
  facet normal 0 -1 0
    outer loop
      vertex 104.084 0 6.5866
      vertex 145.822 0 10
      vertex 75.916 0 6.5866
    endloop
  endfacet
  facet normal 0 -1 0
    outer loop
      vertex 105.916 0 6.5866
      vertex 106.832 0 5
      vertex 145.822 0 10
    endloop
  endfacet
  facet normal 0 -1 0
    outer loop
      vertex 74.084 0 3.4134
      vertex 45.916 0 6.5866
      vertex 46.8321 0 5
    endloop
  endfacet
  facet normal 0 -1 0
    outer loop
      vertex 74.084 0 3.4134
      vertex 73.1679 0 5
      vertex 45.916 0 6.5866
    endloop
  endfacet
  facet normal 0 -1 0
    outer loop
      vertex 103.168 0 5
      vertex 104.084 0 6.5866
      vertex 75.916 0 6.5866
    endloop
  endfacet
  facet normal 0 -1 0
    outer loop
      vertex 105.916 0 6.5866
      vertex 145.822 0 10
      vertex 104.084 0 6.5866
    endloop
  endfacet
  facet normal 0 -1 0
    outer loop
      vertex 106.832 0 5
      vertex 105.916 0 3.4134
      vertex 145.822 0 0
    endloop
  endfacet
  facet normal 0 -1 0
    outer loop
      vertex 134.084 0 3.4134
      vertex 133.168 0 5
      vertex 106.832 0 5
    endloop
  endfacet
  facet normal 0 -1 0
    outer loop
      vertex 134.084 0 6.5866
      vertex 145.822 0 10
      vertex 106.832 0 5
    endloop
  endfacet
  facet normal 0 -1 0
    outer loop
      vertex 76.8321 0 5
      vertex 75.916 0 3.4134
      vertex 145.822 0 0
    endloop
  endfacet
  facet normal 0 -1 0
    outer loop
      vertex 145.822 0 0
      vertex 104.084 0 3.4134
      vertex 76.8321 0 5
    endloop
  endfacet
  facet normal 0 -1 0
    outer loop
      vertex 145.822 0 0
      vertex 105.916 0 3.4134
      vertex 104.084 0 3.4134
    endloop
  endfacet
  facet normal 0 -1 0
    outer loop
      vertex 133.168 0 5
      vertex 134.084 0 6.5866
      vertex 106.832 0 5
    endloop
  endfacet
  facet normal 0 -1 0
    outer loop
      vertex 135.916 0 6.5866
      vertex 145.822 0 10
      vertex 134.084 0 6.5866
    endloop
  endfacet
  facet normal 0 -1 0
    outer loop
      vertex 136.832 0 5
      vertex 135.916 0 3.4134
      vertex 145.822 0 0
    endloop
  endfacet
  facet normal 0 -1 0
    outer loop
      vertex 145.822 0 0
      vertex 145.822 0 10
      vertex 136.832 0 5
    endloop
  endfacet
  facet normal 0 -1 0
    outer loop
      vertex 135.916 0 6.5866
      vertex 136.832 0 5
      vertex 145.822 0 10
    endloop
  endfacet
  facet normal 0 -1 0
    outer loop
      vertex 145.822 0 0
      vertex 134.084 0 3.4134
      vertex 106.832 0 5
    endloop
  endfacet
  facet normal 0 -1 0
    outer loop
      vertex 145.822 0 0
      vertex 135.916 0 3.4134
      vertex 134.084 0 3.4134
    endloop
  endfacet
  facet normal 0 -1 0
    outer loop
      vertex 73.1679 0 5
      vertex 74.084 0 6.5866
      vertex 4.17836 0 10
    endloop
  endfacet
  facet normal 0 -1 0
    outer loop
      vertex 104.084 0 3.4134
      vertex 103.168 0 5
      vertex 75.916 0 6.5866
    endloop
  endfacet
  facet normal 0 -1 0
    outer loop
      vertex 46.8321 0 5
      vertex 45.916 0 3.4134
      vertex 74.084 0 3.4134
    endloop
  endfacet
  facet normal 0 -1 0
    outer loop
      vertex 15.916 0 6.5866
      vertex 16.8321 0 5
      vertex 43.1679 0 5
    endloop
  endfacet
  facet normal 0.980785 -0.19509 0
    outer loop
      vertex 146.14 1.59899 0
      vertex 146.14 1.59899 10
      vertex 145.822 0 10
    endloop
  endfacet
  facet normal 0.980785 -0.19509 0
    outer loop
      vertex 145.822 0 0
      vertex 146.14 1.59899 0
      vertex 145.822 0 10
    endloop
  endfacet
  facet normal 0.831469 -0.55557 0
    outer loop
      vertex 147.045 2.95455 0
      vertex 147.045 2.95455 10
      vertex 146.14 1.59899 10
    endloop
  endfacet
  facet normal 0.831469 -0.55557 0
    outer loop
      vertex 146.14 1.59899 0
      vertex 147.045 2.95455 0
      vertex 146.14 1.59899 10
    endloop
  endfacet
  facet normal 0.55557 -0.831469 0
    outer loop
      vertex 148.401 3.86031 0
      vertex 148.401 3.86031 10
      vertex 147.045 2.95455 10
    endloop
  endfacet
  facet normal 0.55557 -0.831469 0
    outer loop
      vertex 147.045 2.95455 0
      vertex 148.401 3.86031 0
      vertex 147.045 2.95455 10
    endloop
  endfacet
  facet normal 0.19509 -0.980785 0
    outer loop
      vertex 150 4.17836 0
      vertex 150 4.17836 10
      vertex 148.401 3.86031 10
    endloop
  endfacet
  facet normal 0.19509 -0.980785 0
    outer loop
      vertex 148.401 3.86031 0
      vertex 150 4.17836 0
      vertex 148.401 3.86031 10
    endloop
  endfacet
  facet normal -0.19509 -0.980785 0
    outer loop
      vertex 151.599 3.86031 0
      vertex 151.599 3.86031 10
      vertex 150 4.17836 10
    endloop
  endfacet
  facet normal -0.19509 -0.980785 0
    outer loop
      vertex 150 4.17836 0
      vertex 151.599 3.86031 0
      vertex 150 4.17836 10
    endloop
  endfacet
  facet normal -0.55557 -0.831469 0
    outer loop
      vertex 152.955 2.95455 0
      vertex 152.955 2.95455 10
      vertex 151.599 3.86031 10
    endloop
  endfacet
  facet normal -0.55557 -0.831469 0
    outer loop
      vertex 151.599 3.86031 0
      vertex 152.955 2.95455 0
      vertex 151.599 3.86031 10
    endloop
  endfacet
  facet normal -0.831469 -0.55557 0
    outer loop
      vertex 153.86 1.59899 10
      vertex 152.955 2.95455 10
      vertex 153.86 1.59899 0
    endloop
  endfacet
  facet normal -0.831469 -0.55557 0
    outer loop
      vertex 153.86 1.59899 0
      vertex 152.955 2.95455 10
      vertex 152.955 2.95455 0
    endloop
  endfacet
  facet normal -0.980785 -0.19509 0
    outer loop
      vertex 154.178 0 10
      vertex 153.86 1.59899 10
      vertex 154.178 0 0
    endloop
  endfacet
  facet normal -0.980785 -0.19509 0
    outer loop
      vertex 154.178 0 0
      vertex 153.86 1.59899 10
      vertex 153.86 1.59899 0
    endloop
  endfacet
  facet normal 0 -1 0
    outer loop
      vertex 160 0 0
      vertex 160 0 10
      vertex 154.178 0 10
    endloop
  endfacet
  facet normal 0 -1 0
    outer loop
      vertex 154.178 0 0
      vertex 160 0 0
      vertex 154.178 0 10
    endloop
  endfacet
  facet normal 0.994522 0.104528 0
    outer loop
      vertex 160 0 0
      vertex 159.781 2.07912 0
      vertex 159.781 2.07912 10
    endloop
  endfacet
  facet normal 0.994522 0.104528 0
    outer loop
      vertex 160 0 10
      vertex 160 0 0
      vertex 159.781 2.07912 10
    endloop
  endfacet
  facet normal 0.951057 0.309017 0
    outer loop
      vertex 159.781 2.07912 0
      vertex 159.135 4.06737 0
      vertex 159.135 4.06737 10
    endloop
  endfacet
  facet normal 0.951057 0.309017 0
    outer loop
      vertex 159.781 2.07912 10
      vertex 159.781 2.07912 0
      vertex 159.135 4.06737 10
    endloop
  endfacet
  facet normal 0.866025 0.5 0
    outer loop
      vertex 159.135 4.06737 0
      vertex 158.09 5.87785 0
      vertex 158.09 5.87785 10
    endloop
  endfacet
  facet normal 0.866025 0.5 0
    outer loop
      vertex 159.135 4.06737 10
      vertex 159.135 4.06737 0
      vertex 158.09 5.87785 10
    endloop
  endfacet
  facet normal 0.743145 0.669131 0
    outer loop
      vertex 158.09 5.87785 0
      vertex 156.691 7.43145 0
      vertex 156.691 7.43145 10
    endloop
  endfacet
  facet normal 0.743145 0.669131 0
    outer loop
      vertex 158.09 5.87785 10
      vertex 158.09 5.87785 0
      vertex 156.691 7.43145 10
    endloop
  endfacet
  facet normal 0.587785 0.809017 0
    outer loop
      vertex 155 8.66025 0
      vertex 155 8.66025 10
      vertex 156.691 7.43145 0
    endloop
  endfacet
  facet normal 0.587785 0.809017 0
    outer loop
      vertex 156.691 7.43145 0
      vertex 155 8.66025 10
      vertex 156.691 7.43145 10
    endloop
  endfacet
  facet normal 0.406737 0.913545 0
    outer loop
      vertex 153.09 9.51056 0
      vertex 153.09 9.51056 10
      vertex 155 8.66025 0
    endloop
  endfacet
  facet normal 0.406737 0.913545 0
    outer loop
      vertex 155 8.66025 0
      vertex 153.09 9.51056 10
      vertex 155 8.66025 10
    endloop
  endfacet
  facet normal 0.207912 0.978148 0
    outer loop
      vertex 151.045 9.94522 0
      vertex 151.045 9.94522 10
      vertex 153.09 9.51056 0
    endloop
  endfacet
  facet normal 0.207912 0.978148 0
    outer loop
      vertex 153.09 9.51056 0
      vertex 151.045 9.94522 10
      vertex 153.09 9.51056 10
    endloop
  endfacet
  facet normal 0 1 0
    outer loop
      vertex 74.084 9.94522 3.4134
      vertex 46.8321 9.94522 5
      vertex 45.916 9.94522 6.5866
    endloop
  endfacet
  facet normal 0 1 0
    outer loop
      vertex 75.916 9.94522 6.5866
      vertex -1.04529 9.94522 10
      vertex 151.045 9.94522 10
    endloop
  endfacet
  facet normal 0 1 0
    outer loop
      vertex -1.04529 9.94522 0
      vertex -1.04529 9.94522 10
      vertex 13.1679 9.94522 5
    endloop
  endfacet
  facet normal 0 1 0
    outer loop
      vertex 103.168 9.94522 5
      vertex 76.8321 9.94522 5
      vertex 104.084 9.94522 6.5866
    endloop
  endfacet
  facet normal 0 1 0
    outer loop
      vertex -1.04529 9.94522 0
      vertex 13.1679 9.94522 5
      vertex 14.084 9.94522 3.4134
    endloop
  endfacet
  facet normal 0 1 0
    outer loop
      vertex -1.04529 9.94522 0
      vertex 14.084 9.94522 3.4134
      vertex 151.045 9.94522 0
    endloop
  endfacet
  facet normal 0 1 0
    outer loop
      vertex 14.084 9.94522 3.4134
      vertex 15.916 9.94522 3.4134
      vertex 151.045 9.94522 0
    endloop
  endfacet
  facet normal 0 1 0
    outer loop
      vertex 76.8321 9.94522 5
      vertex 151.045 9.94522 0
      vertex 75.916 9.94522 3.4134
    endloop
  endfacet
  facet normal 0 1 0
    outer loop
      vertex 43.1679 9.94522 5
      vertex 15.916 9.94522 6.5866
      vertex 44.084 9.94522 6.5866
    endloop
  endfacet
  facet normal 0 1 0
    outer loop
      vertex 14.084 9.94522 6.5866
      vertex -1.04529 9.94522 10
      vertex 15.916 9.94522 6.5866
    endloop
  endfacet
  facet normal 0 1 0
    outer loop
      vertex 74.084 9.94522 3.4134
      vertex 151.045 9.94522 0
      vertex 45.916 9.94522 3.4134
    endloop
  endfacet
  facet normal 0 1 0
    outer loop
      vertex 16.8321 9.94522 5
      vertex 15.916 9.94522 6.5866
      vertex 43.1679 9.94522 5
    endloop
  endfacet
  facet normal 0 1 0
    outer loop
      vertex 15.916 9.94522 3.4134
      vertex 44.084 9.94522 3.4134
      vertex 151.045 9.94522 0
    endloop
  endfacet
  facet normal 0 1 0
    outer loop
      vertex 44.084 9.94522 3.4134
      vertex 45.916 9.94522 3.4134
      vertex 151.045 9.94522 0
    endloop
  endfacet
  facet normal 0 1 0
    outer loop
      vertex 44.084 9.94522 3.4134
      vertex 16.8321 9.94522 5
      vertex 43.1679 9.94522 5
    endloop
  endfacet
  facet normal 0 1 0
    outer loop
      vertex 15.916 9.94522 6.5866
      vertex -1.04529 9.94522 10
      vertex 44.084 9.94522 6.5866
    endloop
  endfacet
  facet normal 0 1 0
    outer loop
      vertex 73.1679 9.94522 5
      vertex -1.04529 9.94522 10
      vertex 74.084 9.94522 6.5866
    endloop
  endfacet
  facet normal 0 1 0
    outer loop
      vertex -1.04529 9.94522 10
      vertex 45.916 9.94522 6.5866
      vertex 44.084 9.94522 6.5866
    endloop
  endfacet
  facet normal 0 1 0
    outer loop
      vertex 45.916 9.94522 6.5866
      vertex -1.04529 9.94522 10
      vertex 73.1679 9.94522 5
    endloop
  endfacet
  facet normal 0 1 0
    outer loop
      vertex 46.8321 9.94522 5
      vertex 74.084 9.94522 3.4134
      vertex 45.916 9.94522 3.4134
    endloop
  endfacet
  facet normal 0 1 0
    outer loop
      vertex 74.084 9.94522 3.4134
      vertex 75.916 9.94522 3.4134
      vertex 151.045 9.94522 0
    endloop
  endfacet
  facet normal 0 1 0
    outer loop
      vertex 74.084 9.94522 3.4134
      vertex 45.916 9.94522 6.5866
      vertex 73.1679 9.94522 5
    endloop
  endfacet
  facet normal 0 1 0
    outer loop
      vertex 104.084 9.94522 6.5866
      vertex 76.8321 9.94522 5
      vertex 151.045 9.94522 10
    endloop
  endfacet
  facet normal 0 1 0
    outer loop
      vertex 74.084 9.94522 6.5866
      vertex -1.04529 9.94522 10
      vertex 75.916 9.94522 6.5866
    endloop
  endfacet
  facet normal 0 1 0
    outer loop
      vertex 76.8321 9.94522 5
      vertex 75.916 9.94522 6.5866
      vertex 151.045 9.94522 10
    endloop
  endfacet
  facet normal 0 1 0
    outer loop
      vertex 104.084 9.94522 3.4134
      vertex 76.8321 9.94522 5
      vertex 103.168 9.94522 5
    endloop
  endfacet
  facet normal 0 1 0
    outer loop
      vertex 151.045 9.94522 0
      vertex 76.8321 9.94522 5
      vertex 104.084 9.94522 3.4134
    endloop
  endfacet
  facet normal 0 1 0
    outer loop
      vertex 151.045 9.94522 0
      vertex 104.084 9.94522 3.4134
      vertex 105.916 9.94522 3.4134
    endloop
  endfacet
  facet normal 0 1 0
    outer loop
      vertex 105.916 9.94522 6.5866
      vertex 151.045 9.94522 10
      vertex 106.832 9.94522 5
    endloop
  endfacet
  facet normal 0 1 0
    outer loop
      vertex 134.084 9.94522 6.5866
      vertex 106.832 9.94522 5
      vertex 151.045 9.94522 10
    endloop
  endfacet
  facet normal 0 1 0
    outer loop
      vertex 106.832 9.94522 5
      vertex 151.045 9.94522 0
      vertex 105.916 9.94522 3.4134
    endloop
  endfacet
  facet normal 0 1 0
    outer loop
      vertex 133.168 9.94522 5
      vertex 106.832 9.94522 5
      vertex 134.084 9.94522 6.5866
    endloop
  endfacet
  facet normal 0 1 0
    outer loop
      vertex 105.916 9.94522 6.5866
      vertex 104.084 9.94522 6.5866
      vertex 151.045 9.94522 10
    endloop
  endfacet
  facet normal 0 1 0
    outer loop
      vertex 134.084 9.94522 3.4134
      vertex 106.832 9.94522 5
      vertex 133.168 9.94522 5
    endloop
  endfacet
  facet normal 0 1 0
    outer loop
      vertex 151.045 9.94522 0
      vertex 106.832 9.94522 5
      vertex 134.084 9.94522 3.4134
    endloop
  endfacet
  facet normal 0 1 0
    outer loop
      vertex 151.045 9.94522 0
      vertex 134.084 9.94522 3.4134
      vertex 135.916 9.94522 3.4134
    endloop
  endfacet
  facet normal 0 1 0
    outer loop
      vertex 135.916 9.94522 6.5866
      vertex 151.045 9.94522 10
      vertex 136.832 9.94522 5
    endloop
  endfacet
  facet normal 0 1 0
    outer loop
      vertex 151.045 9.94522 0
      vertex 136.832 9.94522 5
      vertex 151.045 9.94522 10
    endloop
  endfacet
  facet normal 0 1 0
    outer loop
      vertex 136.832 9.94522 5
      vertex 151.045 9.94522 0
      vertex 135.916 9.94522 3.4134
    endloop
  endfacet
  facet normal 0 1 0
    outer loop
      vertex 135.916 9.94522 6.5866
      vertex 134.084 9.94522 6.5866
      vertex 151.045 9.94522 10
    endloop
  endfacet
  facet normal 0 1 0
    outer loop
      vertex 13.1679 9.94522 5
      vertex -1.04529 9.94522 10
      vertex 14.084 9.94522 6.5866
    endloop
  endfacet
  facet normal 0 1 0
    outer loop
      vertex 16.8321 9.94522 5
      vertex 44.084 9.94522 3.4134
      vertex 15.916 9.94522 3.4134
    endloop
  endfacet
  facet normal -0.207912 0.978148 0
    outer loop
      vertex -3.09017 9.51056 0
      vertex -3.09017 9.51056 10
      vertex -1.04529 9.94522 0
    endloop
  endfacet
  facet normal -0.207912 0.978148 0
    outer loop
      vertex -1.04529 9.94522 0
      vertex -3.09017 9.51056 10
      vertex -1.04529 9.94522 10
    endloop
  endfacet
  facet normal -0.406737 0.913545 0
    outer loop
      vertex -5 8.66025 0
      vertex -5 8.66025 10
      vertex -3.09017 9.51056 0
    endloop
  endfacet
  facet normal -0.406737 0.913545 0
    outer loop
      vertex -3.09017 9.51056 0
      vertex -5 8.66025 10
      vertex -3.09017 9.51056 10
    endloop
  endfacet
  facet normal -0.587785 0.809017 0
    outer loop
      vertex -6.69131 7.43145 0
      vertex -6.69131 7.43145 10
      vertex -5 8.66025 0
    endloop
  endfacet
  facet normal -0.587785 0.809017 0
    outer loop
      vertex -5 8.66025 0
      vertex -6.69131 7.43145 10
      vertex -5 8.66025 10
    endloop
  endfacet
  facet normal -0.743145 0.669131 0
    outer loop
      vertex -8.09017 5.87785 0
      vertex -8.09017 5.87785 10
      vertex -6.69131 7.43145 0
    endloop
  endfacet
  facet normal -0.743145 0.669131 0
    outer loop
      vertex -6.69131 7.43145 0
      vertex -8.09017 5.87785 10
      vertex -6.69131 7.43145 10
    endloop
  endfacet
  facet normal -0.866025 0.5 0
    outer loop
      vertex -9.13546 4.06737 0
      vertex -9.13546 4.06737 10
      vertex -8.09017 5.87785 0
    endloop
  endfacet
  facet normal -0.866025 0.5 0
    outer loop
      vertex -8.09017 5.87785 0
      vertex -9.13546 4.06737 10
      vertex -8.09017 5.87785 10
    endloop
  endfacet
  facet normal 0.866025 -1.11022e-16 0.5
    outer loop
      vertex 14.084 0 3.4134
      vertex 14.084 9.94522 3.4134
      vertex 13.1679 9.94522 5
    endloop
  endfacet
  facet normal 0.866025 -1.11022e-16 0.5
    outer loop
      vertex 13.1679 0 5
      vertex 14.084 0 3.4134
      vertex 13.1679 9.94522 5
    endloop
  endfacet
  facet normal 0.866025 1.11022e-16 -0.5
    outer loop
      vertex 13.1679 9.94522 5
      vertex 14.084 9.94522 6.5866
      vertex 14.084 0 6.5866
    endloop
  endfacet
  facet normal 0.866025 1.11022e-16 -0.5
    outer loop
      vertex 13.1679 0 5
      vertex 13.1679 9.94522 5
      vertex 14.084 0 6.5866
    endloop
  endfacet
  facet normal 0 -2.22045e-16 1
    outer loop
      vertex 15.916 0 3.4134
      vertex 15.916 9.94522 3.4134
      vertex 14.084 9.94522 3.4134
    endloop
  endfacet
  facet normal 0 -2.22045e-16 1
    outer loop
      vertex 14.084 0 3.4134
      vertex 15.916 0 3.4134
      vertex 14.084 9.94522 3.4134
    endloop
  endfacet
  facet normal -0.866025 -1.11022e-16 0.5
    outer loop
      vertex 16.8321 9.94522 5
      vertex 15.916 9.94522 3.4134
      vertex 16.8321 0 5
    endloop
  endfacet
  facet normal -0.866025 -1.11022e-16 0.5
    outer loop
      vertex 16.8321 0 5
      vertex 15.916 9.94522 3.4134
      vertex 15.916 0 3.4134
    endloop
  endfacet
  facet normal -0.866025 1.11022e-16 -0.5
    outer loop
      vertex 16.8321 9.94522 5
      vertex 16.8321 0 5
      vertex 15.916 9.94522 6.5866
    endloop
  endfacet
  facet normal -0.866025 1.11022e-16 -0.5
    outer loop
      vertex 15.916 9.94522 6.5866
      vertex 16.8321 0 5
      vertex 15.916 0 6.5866
    endloop
  endfacet
  facet normal 0 2.22045e-16 -1
    outer loop
      vertex 15.916 9.94522 6.5866
      vertex 15.916 0 6.5866
      vertex 14.084 9.94522 6.5866
    endloop
  endfacet
  facet normal 0 2.22045e-16 -1
    outer loop
      vertex 14.084 9.94522 6.5866
      vertex 15.916 0 6.5866
      vertex 14.084 0 6.5866
    endloop
  endfacet
  facet normal 0.866025 1.11022e-16 -0.5
    outer loop
      vertex 43.1679 9.94522 5
      vertex 44.084 9.94522 6.5866
      vertex 44.084 0 6.5866
    endloop
  endfacet
  facet normal 0.866025 1.11022e-16 -0.5
    outer loop
      vertex 43.1679 0 5
      vertex 43.1679 9.94522 5
      vertex 44.084 0 6.5866
    endloop
  endfacet
  facet normal 0.866025 -1.11022e-16 0.5
    outer loop
      vertex 44.084 0 3.4134
      vertex 44.084 9.94522 3.4134
      vertex 43.1679 9.94522 5
    endloop
  endfacet
  facet normal 0.866025 -1.11022e-16 0.5
    outer loop
      vertex 43.1679 0 5
      vertex 44.084 0 3.4134
      vertex 43.1679 9.94522 5
    endloop
  endfacet
  facet normal 0 -2.22045e-16 1
    outer loop
      vertex 45.916 0 3.4134
      vertex 45.916 9.94522 3.4134
      vertex 44.084 9.94522 3.4134
    endloop
  endfacet
  facet normal 0 -2.22045e-16 1
    outer loop
      vertex 44.084 0 3.4134
      vertex 45.916 0 3.4134
      vertex 44.084 9.94522 3.4134
    endloop
  endfacet
  facet normal -0.866025 -1.11022e-16 0.5
    outer loop
      vertex 46.8321 9.94522 5
      vertex 45.916 9.94522 3.4134
      vertex 46.8321 0 5
    endloop
  endfacet
  facet normal -0.866025 -1.11022e-16 0.5
    outer loop
      vertex 46.8321 0 5
      vertex 45.916 9.94522 3.4134
      vertex 45.916 0 3.4134
    endloop
  endfacet
  facet normal -0.866025 1.11022e-16 -0.5
    outer loop
      vertex 46.8321 9.94522 5
      vertex 46.8321 0 5
      vertex 45.916 9.94522 6.5866
    endloop
  endfacet
  facet normal -0.866025 1.11022e-16 -0.5
    outer loop
      vertex 45.916 9.94522 6.5866
      vertex 46.8321 0 5
      vertex 45.916 0 6.5866
    endloop
  endfacet
  facet normal 0 2.22045e-16 -1
    outer loop
      vertex 45.916 9.94522 6.5866
      vertex 45.916 0 6.5866
      vertex 44.084 9.94522 6.5866
    endloop
  endfacet
  facet normal 0 2.22045e-16 -1
    outer loop
      vertex 44.084 9.94522 6.5866
      vertex 45.916 0 6.5866
      vertex 44.084 0 6.5866
    endloop
  endfacet
  facet normal 0.866025 -1.11022e-16 0.5
    outer loop
      vertex 74.084 0 3.4134
      vertex 74.084 9.94522 3.4134
      vertex 73.1679 9.94522 5
    endloop
  endfacet
  facet normal 0.866025 -1.11022e-16 0.5
    outer loop
      vertex 73.1679 0 5
      vertex 74.084 0 3.4134
      vertex 73.1679 9.94522 5
    endloop
  endfacet
  facet normal 0.866025 1.11022e-16 -0.5
    outer loop
      vertex 73.1679 9.94522 5
      vertex 74.084 9.94522 6.5866
      vertex 74.084 0 6.5866
    endloop
  endfacet
  facet normal 0.866025 1.11022e-16 -0.5
    outer loop
      vertex 73.1679 0 5
      vertex 73.1679 9.94522 5
      vertex 74.084 0 6.5866
    endloop
  endfacet
  facet normal 0 -2.22045e-16 1
    outer loop
      vertex 75.916 0 3.4134
      vertex 75.916 9.94522 3.4134
      vertex 74.084 9.94522 3.4134
    endloop
  endfacet
  facet normal 0 -2.22045e-16 1
    outer loop
      vertex 74.084 0 3.4134
      vertex 75.916 0 3.4134
      vertex 74.084 9.94522 3.4134
    endloop
  endfacet
  facet normal -0.866025 -1.11022e-16 0.5
    outer loop
      vertex 76.8321 9.94522 5
      vertex 75.916 9.94522 3.4134
      vertex 76.8321 0 5
    endloop
  endfacet
  facet normal -0.866025 -1.11022e-16 0.5
    outer loop
      vertex 76.8321 0 5
      vertex 75.916 9.94522 3.4134
      vertex 75.916 0 3.4134
    endloop
  endfacet
  facet normal -0.866025 1.11022e-16 -0.5
    outer loop
      vertex 76.8321 9.94522 5
      vertex 76.8321 0 5
      vertex 75.916 9.94522 6.5866
    endloop
  endfacet
  facet normal -0.866025 1.11022e-16 -0.5
    outer loop
      vertex 75.916 9.94522 6.5866
      vertex 76.8321 0 5
      vertex 75.916 0 6.5866
    endloop
  endfacet
  facet normal 0 2.22045e-16 -1
    outer loop
      vertex 75.916 9.94522 6.5866
      vertex 75.916 0 6.5866
      vertex 74.084 9.94522 6.5866
    endloop
  endfacet
  facet normal 0 2.22045e-16 -1
    outer loop
      vertex 74.084 9.94522 6.5866
      vertex 75.916 0 6.5866
      vertex 74.084 0 6.5866
    endloop
  endfacet
  facet normal 0.866025 -1.11022e-16 0.5
    outer loop
      vertex 104.084 0 3.4134
      vertex 104.084 9.94522 3.4134
      vertex 103.168 9.94522 5
    endloop
  endfacet
  facet normal 0.866025 -1.11022e-16 0.5
    outer loop
      vertex 103.168 0 5
      vertex 104.084 0 3.4134
      vertex 103.168 9.94522 5
    endloop
  endfacet
  facet normal 0.866025 1.11022e-16 -0.5
    outer loop
      vertex 103.168 9.94522 5
      vertex 104.084 9.94522 6.5866
      vertex 104.084 0 6.5866
    endloop
  endfacet
  facet normal 0.866025 1.11022e-16 -0.5
    outer loop
      vertex 103.168 0 5
      vertex 103.168 9.94522 5
      vertex 104.084 0 6.5866
    endloop
  endfacet
  facet normal 0 -2.22045e-16 1
    outer loop
      vertex 105.916 0 3.4134
      vertex 105.916 9.94522 3.4134
      vertex 104.084 9.94522 3.4134
    endloop
  endfacet
  facet normal 0 -2.22045e-16 1
    outer loop
      vertex 104.084 0 3.4134
      vertex 105.916 0 3.4134
      vertex 104.084 9.94522 3.4134
    endloop
  endfacet
  facet normal -0.866025 -1.11022e-16 0.5
    outer loop
      vertex 106.832 9.94522 5
      vertex 105.916 9.94522 3.4134
      vertex 106.832 0 5
    endloop
  endfacet
  facet normal -0.866025 -1.11022e-16 0.5
    outer loop
      vertex 106.832 0 5
      vertex 105.916 9.94522 3.4134
      vertex 105.916 0 3.4134
    endloop
  endfacet
  facet normal -0.866025 1.11022e-16 -0.5
    outer loop
      vertex 106.832 9.94522 5
      vertex 106.832 0 5
      vertex 105.916 9.94522 6.5866
    endloop
  endfacet
  facet normal -0.866025 1.11022e-16 -0.5
    outer loop
      vertex 105.916 9.94522 6.5866
      vertex 106.832 0 5
      vertex 105.916 0 6.5866
    endloop
  endfacet
  facet normal 0 2.22045e-16 -1
    outer loop
      vertex 105.916 9.94522 6.5866
      vertex 105.916 0 6.5866
      vertex 104.084 9.94522 6.5866
    endloop
  endfacet
  facet normal 0 2.22045e-16 -1
    outer loop
      vertex 104.084 9.94522 6.5866
      vertex 105.916 0 6.5866
      vertex 104.084 0 6.5866
    endloop
  endfacet
  facet normal 0.866025 1.11022e-16 -0.5
    outer loop
      vertex 133.168 9.94522 5
      vertex 134.084 9.94522 6.5866
      vertex 134.084 0 6.5866
    endloop
  endfacet
  facet normal 0.866025 1.11022e-16 -0.5
    outer loop
      vertex 133.168 0 5
      vertex 133.168 9.94522 5
      vertex 134.084 0 6.5866
    endloop
  endfacet
  facet normal 0.866025 -1.11022e-16 0.5
    outer loop
      vertex 134.084 0 3.4134
      vertex 134.084 9.94522 3.4134
      vertex 133.168 9.94522 5
    endloop
  endfacet
  facet normal 0.866025 -1.11022e-16 0.5
    outer loop
      vertex 133.168 0 5
      vertex 134.084 0 3.4134
      vertex 133.168 9.94522 5
    endloop
  endfacet
  facet normal 0 -2.22045e-16 1
    outer loop
      vertex 135.916 0 3.4134
      vertex 135.916 9.94522 3.4134
      vertex 134.084 9.94522 3.4134
    endloop
  endfacet
  facet normal 0 -2.22045e-16 1
    outer loop
      vertex 134.084 0 3.4134
      vertex 135.916 0 3.4134
      vertex 134.084 9.94522 3.4134
    endloop
  endfacet
  facet normal -0.866025 -1.11022e-16 0.5
    outer loop
      vertex 136.832 9.94522 5
      vertex 135.916 9.94522 3.4134
      vertex 136.832 0 5
    endloop
  endfacet
  facet normal -0.866025 -1.11022e-16 0.5
    outer loop
      vertex 136.832 0 5
      vertex 135.916 9.94522 3.4134
      vertex 135.916 0 3.4134
    endloop
  endfacet
  facet normal -0.866025 1.11022e-16 -0.5
    outer loop
      vertex 136.832 9.94522 5
      vertex 136.832 0 5
      vertex 135.916 9.94522 6.5866
    endloop
  endfacet
  facet normal -0.866025 1.11022e-16 -0.5
    outer loop
      vertex 135.916 9.94522 6.5866
      vertex 136.832 0 5
      vertex 135.916 0 6.5866
    endloop
  endfacet
  facet normal 0 2.22045e-16 -1
    outer loop
      vertex 135.916 9.94522 6.5866
      vertex 135.916 0 6.5866
      vertex 134.084 9.94522 6.5866
    endloop
  endfacet
  facet normal 0 2.22045e-16 -1
    outer loop
      vertex 134.084 9.94522 6.5866
      vertex 135.916 0 6.5866
      vertex 134.084 0 6.5866
    endloop
  endfacet
endsolid OpenSCAD_Model
