solid OpenSCAD_Model
  facet normal 0 -1 0
    outer loop
      vertex -20.916 75 4.4134
      vertex -30 75 0
      vertex -10 75 0
    endloop
  endfacet
  facet normal 0 -1 0
    outer loop
      vertex -20.916 75 16.4134
      vertex -30 75 24
      vertex -10 75 0
    endloop
  endfacet
  facet normal 0 -1 0
    outer loop
      vertex -19.084 75 4.4134
      vertex -20.916 75 4.4134
      vertex -10 75 0
    endloop
  endfacet
  facet normal 0 -1 0
    outer loop
      vertex -21.8321 75 6
      vertex -30 75 0
      vertex -20.916 75 4.4134
    endloop
  endfacet
  facet normal 0 -1 0
    outer loop
      vertex -18.1679 75 6
      vertex -19.084 75 4.4134
      vertex -10 75 0
    endloop
  endfacet
  facet normal 0 -1 0
    outer loop
      vertex -30 75 24
      vertex -30 75 0
      vertex -21.8321 75 6
    endloop
  endfacet
  facet normal 0 -1 0
    outer loop
      vertex -30 75 24
      vertex -19.084 75 7.5866
      vertex -10 75 0
    endloop
  endfacet
  facet normal 0 -1 0
    outer loop
      vertex -30 75 24
      vertex -20.916 75 7.5866
      vertex -19.084 75 7.5866
    endloop
  endfacet
  facet normal 0 -1 0
    outer loop
      vertex -19.084 75 7.5866
      vertex -18.1679 75 6
      vertex -10 75 0
    endloop
  endfacet
  facet normal 0 -1 0
    outer loop
      vertex -19.084 75 16.4134
      vertex -20.916 75 16.4134
      vertex -10 75 0
    endloop
  endfacet
  facet normal 0 -1 0
    outer loop
      vertex -21.8321 75 18
      vertex -30 75 24
      vertex -20.916 75 16.4134
    endloop
  endfacet
  facet normal 0 -1 0
    outer loop
      vertex -20.916 75 19.5866
      vertex -30 75 24
      vertex -21.8321 75 18
    endloop
  endfacet
  facet normal 0 -1 0
    outer loop
      vertex -10 75 24
      vertex -30 75 24
      vertex -20.916 75 19.5866
    endloop
  endfacet
  facet normal 0 -1 0
    outer loop
      vertex -10 75 24
      vertex -20.916 75 19.5866
      vertex -19.084 75 19.5866
    endloop
  endfacet
  facet normal 0 -1 0
    outer loop
      vertex -10 75 24
      vertex -18.1679 75 18
      vertex -10 75 0
    endloop
  endfacet
  facet normal 0 -1 0
    outer loop
      vertex -18.1679 75 18
      vertex -19.084 75 16.4134
      vertex -10 75 0
    endloop
  endfacet
  facet normal 0 -1 0
    outer loop
      vertex -21.8321 75 6
      vertex -20.916 75 7.5866
      vertex -30 75 24
    endloop
  endfacet
  facet normal 0 -1 0
    outer loop
      vertex -19.084 75 19.5866
      vertex -18.1679 75 18
      vertex -10 75 24
    endloop
  endfacet
  facet normal 0 0 -1
    outer loop
      vertex -30 75 0
      vertex -30 89 0
      vertex -10 75 0
    endloop
  endfacet
  facet normal 0 0 -1
    outer loop
      vertex -10 75 0
      vertex -30 89 0
      vertex -5.5 89 0
    endloop
  endfacet
  facet normal 0 0 -1
    outer loop
      vertex -5.5 89 0
      vertex -5.5 124 0
      vertex 5.5 124 0
    endloop
  endfacet
  facet normal 0 0 -1
    outer loop
      vertex -5.5 89 0
      vertex 5.5 124 0
      vertex 5.5 89 0
    endloop
  endfacet
  facet normal 0 0 -1
    outer loop
      vertex -5.5 89 0
      vertex 5.5 89 0
      vertex -10 75 0
    endloop
  endfacet
  facet normal 0 0 -1
    outer loop
      vertex 0.916 76.587 0
      vertex 79.326 88.315 0
      vertex 82 87.124 0
    endloop
  endfacet
  facet normal 0 0 -1
    outer loop
      vertex 75.799 82.599 0
      vertex 84.368 85.404 0
      vertex 86.326 83.229 0
    endloop
  endfacet
  facet normal 0 0 -1
    outer loop
      vertex 80.113 80.679 0
      vertex 86.326 83.229 0
      vertex 87.79 80.694 0
    endloop
  endfacet
  facet normal 0 0 -1
    outer loop
      vertex 81.981 78.108 0
      vertex 87.79 80.694 0
      vertex 88.694 77.911 0
    endloop
  endfacet
  facet normal 0 0 -1
    outer loop
      vertex 82.474 76.589 0
      vertex 88.694 77.911 0
      vertex 82.641 75 0
    endloop
  endfacet
  facet normal 0 0 -1
    outer loop
      vertex 82.5 73.658 0
      vertex 89 75 0
      vertex 89 43 0
    endloop
  endfacet
  facet normal 0 0 -1
    outer loop
      vertex 82.5 73.658 0
      vertex 89 43 0
      vertex 82.5 43 0
    endloop
  endfacet
  facet normal 0 0 -1
    outer loop
      vertex 61 61 0
      vertex 79.5 40 0
      vertex 75 30 0
    endloop
  endfacet
  facet normal 0 0 -1
    outer loop
      vertex 82.641 75 0
      vertex 89 75 0
      vertex 82.5 73.658 0
    endloop
  endfacet
  facet normal 0 0 -1
    outer loop
      vertex 81.981 78.108 0
      vertex 88.694 77.911 0
      vertex 82.474 76.589 0
    endloop
  endfacet
  facet normal 0 0 -1
    outer loop
      vertex 88.694 77.911 0
      vertex 89 75 0
      vertex 82.641 75 0
    endloop
  endfacet
  facet normal 0 0 -1
    outer loop
      vertex 49.084 73.413 0
      vertex 26.832 75 0
      vertex 48.168 75 0
    endloop
  endfacet
  facet normal 0 0 -1
    outer loop
      vertex 67.526 73.411 0
      vertex 51.832 75 0
      vertex 67.359 75 0
    endloop
  endfacet
  facet normal 0 0 -1
    outer loop
      vertex 81.182 79.491 0
      vertex 87.79 80.694 0
      vertex 81.981 78.108 0
    endloop
  endfacet
  facet normal 0 0 -1
    outer loop
      vertex 80.113 80.679 0
      vertex 87.79 80.694 0
      vertex 81.182 79.491 0
    endloop
  endfacet
  facet normal 0 0 -1
    outer loop
      vertex 78.821 81.618 0
      vertex 86.326 83.229 0
      vertex 80.113 80.679 0
    endloop
  endfacet
  facet normal 0 0 -1
    outer loop
      vertex 75.799 82.599 0
      vertex 86.326 83.229 0
      vertex 77.361 82.267 0
    endloop
  endfacet
  facet normal 0 0 -1
    outer loop
      vertex 77.361 82.267 0
      vertex 86.326 83.229 0
      vertex 78.821 81.618 0
    endloop
  endfacet
  facet normal 0 0 -1
    outer loop
      vertex 68.019 78.108 0
      vertex 24.084 76.587 0
      vertex 68.818 79.491 0
    endloop
  endfacet
  facet normal 0 0 -1
    outer loop
      vertex 74.201 82.599 0
      vertex 84.368 85.404 0
      vertex 75.799 82.599 0
    endloop
  endfacet
  facet normal 0 0 -1
    outer loop
      vertex 24.084 73.413 0
      vertex 1.832 75 0
      vertex 23.168 75 0
    endloop
  endfacet
  facet normal 0 0 -1
    outer loop
      vertex 79.5 40 0
      vertex 75.799 67.401 0
      vertex 77.361 67.733 0
    endloop
  endfacet
  facet normal 0 0 -1
    outer loop
      vertex -10 61 0
      vertex -10 75 0
      vertex 61 61 0
    endloop
  endfacet
  facet normal 0 0 -1
    outer loop
      vertex 79.5 40 0
      vertex 77.361 67.733 0
      vertex 78.821 68.382 0
    endloop
  endfacet
  facet normal 0 0 -1
    outer loop
      vertex 49.084 73.413 0
      vertex 67.526 73.411 0
      vertex 68.019 71.892 0
    endloop
  endfacet
  facet normal 0 0 -1
    outer loop
      vertex 24.084 73.413 0
      vertex 68.019 71.892 0
      vertex 68.818 70.509 0
    endloop
  endfacet
  facet normal 0 0 -1
    outer loop
      vertex 0.916 76.587 0
      vertex 68.818 79.491 0
      vertex 24.084 76.587 0
    endloop
  endfacet
  facet normal 0 0 -1
    outer loop
      vertex 79.5 40 0
      vertex 78.821 68.382 0
      vertex 79.5 68.875 0
    endloop
  endfacet
  facet normal 0 0 -1
    outer loop
      vertex 67.359 75 0
      vertex 51.832 75 0
      vertex 67.526 76.589 0
    endloop
  endfacet
  facet normal 0 0 -1
    outer loop
      vertex -0.916 73.413 0
      vertex -10 75 0
      vertex -1.832 75 0
    endloop
  endfacet
  facet normal 0 0 -1
    outer loop
      vertex 67.526 76.589 0
      vertex 50.916 76.587 0
      vertex 49.084 76.587 0
    endloop
  endfacet
  facet normal 0 0 -1
    outer loop
      vertex 61 61 0
      vertex 75 30 0
      vertex 75 10 0
    endloop
  endfacet
  facet normal 0 0 -1
    outer loop
      vertex 89 40 0
      vertex 89 30 0
      vertex 79.5 40 0
    endloop
  endfacet
  facet normal 0 0 -1
    outer loop
      vertex 61 61 0
      vertex 75 10 0
      vertex 61 10 0
    endloop
  endfacet
  facet normal 0 0 -1
    outer loop
      vertex -0.916 73.413 0
      vertex 68.818 70.509 0
      vertex 61 61 0
    endloop
  endfacet
  facet normal 0 0 -1
    outer loop
      vertex 25.916 76.587 0
      vertex 68.019 78.108 0
      vertex 49.084 76.587 0
    endloop
  endfacet
  facet normal 0 0 -1
    outer loop
      vertex 0.916 76.587 0
      vertex 82 87.124 0
      vertex 84.368 85.404 0
    endloop
  endfacet
  facet normal 0 0 -1
    outer loop
      vertex -1.832 75 0
      vertex -10 75 0
      vertex -0.916 76.587 0
    endloop
  endfacet
  facet normal 0 0 -1
    outer loop
      vertex 50.916 76.587 0
      vertex 67.526 76.589 0
      vertex 51.832 75 0
    endloop
  endfacet
  facet normal 0 0 -1
    outer loop
      vertex 79.5 40 0
      vertex 61 61 0
      vertex 68.818 70.509 0
    endloop
  endfacet
  facet normal 0 0 -1
    outer loop
      vertex 0.916 73.413 0
      vertex 68.818 70.509 0
      vertex -0.916 73.413 0
    endloop
  endfacet
  facet normal 0 0 -1
    outer loop
      vertex -10 75 0
      vertex -0.916 73.413 0
      vertex 61 61 0
    endloop
  endfacet
  facet normal 0 0 -1
    outer loop
      vertex 26.832 75 0
      vertex 68.019 71.892 0
      vertex 25.916 73.413 0
    endloop
  endfacet
  facet normal 0 0 -1
    outer loop
      vertex 79.5 40 0
      vertex 68.818 70.509 0
      vertex 69.887 69.321 0
    endloop
  endfacet
  facet normal 0 0 -1
    outer loop
      vertex 5.5 89 0
      vertex 75 89 0
      vertex -0.916 76.587 0
    endloop
  endfacet
  facet normal 0 0 -1
    outer loop
      vertex 5.5 89 0
      vertex -0.916 76.587 0
      vertex -10 75 0
    endloop
  endfacet
  facet normal 0 0 -1
    outer loop
      vertex 79.5 40 0
      vertex 69.887 69.321 0
      vertex 71.179 68.382 0
    endloop
  endfacet
  facet normal 0 0 -1
    outer loop
      vertex 25.916 73.413 0
      vertex 68.019 71.892 0
      vertex 24.084 73.413 0
    endloop
  endfacet
  facet normal 0 0 -1
    outer loop
      vertex 26.832 75 0
      vertex 49.084 73.413 0
      vertex 68.019 71.892 0
    endloop
  endfacet
  facet normal 0 0 -1
    outer loop
      vertex 51.832 75 0
      vertex 67.526 73.411 0
      vertex 50.916 73.413 0
    endloop
  endfacet
  facet normal 0 0 -1
    outer loop
      vertex 79.5 40 0
      vertex 71.179 68.382 0
      vertex 72.639 67.733 0
    endloop
  endfacet
  facet normal 0 0 -1
    outer loop
      vertex 67.526 76.589 0
      vertex 49.084 76.587 0
      vertex 68.019 78.108 0
    endloop
  endfacet
  facet normal 0 0 -1
    outer loop
      vertex 0.916 76.587 0
      vertex 24.084 76.587 0
      vertex 1.832 75 0
    endloop
  endfacet
  facet normal 0 0 -1
    outer loop
      vertex 79.5 40 0
      vertex 72.639 67.733 0
      vertex 74.201 67.401 0
    endloop
  endfacet
  facet normal 0 0 -1
    outer loop
      vertex 50.916 73.413 0
      vertex 67.526 73.411 0
      vertex 49.084 73.413 0
    endloop
  endfacet
  facet normal 0 0 -1
    outer loop
      vertex 24.084 73.413 0
      vertex 68.818 70.509 0
      vertex 0.916 73.413 0
    endloop
  endfacet
  facet normal 0 0 -1
    outer loop
      vertex 1.832 75 0
      vertex 24.084 73.413 0
      vertex 0.916 73.413 0
    endloop
  endfacet
  facet normal 0 0 -1
    outer loop
      vertex 79.5 40 0
      vertex 74.201 67.401 0
      vertex 75.799 67.401 0
    endloop
  endfacet
  facet normal 0 0 -1
    outer loop
      vertex 25.916 76.587 0
      vertex 49.084 76.587 0
      vertex 26.832 75 0
    endloop
  endfacet
  facet normal 0 0 -1
    outer loop
      vertex 68.019 78.108 0
      vertex 25.916 76.587 0
      vertex 24.084 76.587 0
    endloop
  endfacet
  facet normal 0 0 -1
    outer loop
      vertex 79.5 40 0
      vertex 89 30 0
      vertex 75 30 0
    endloop
  endfacet
  facet normal 0 0 -1
    outer loop
      vertex -0.916 76.587 0
      vertex 75 88.923 0
      vertex 76.463 88.923 0
    endloop
  endfacet
  facet normal 0 0 -1
    outer loop
      vertex -0.916 76.587 0
      vertex 76.463 88.923 0
      vertex 79.326 88.315 0
    endloop
  endfacet
  facet normal 0 0 -1
    outer loop
      vertex -0.916 76.587 0
      vertex 79.326 88.315 0
      vertex 0.916 76.587 0
    endloop
  endfacet
  facet normal 0 0 -1
    outer loop
      vertex -0.916 76.587 0
      vertex 75 89 0
      vertex 75 88.923 0
    endloop
  endfacet
  facet normal 0 0 -1
    outer loop
      vertex 0.916 76.587 0
      vertex 84.368 85.404 0
      vertex 74.201 82.599 0
    endloop
  endfacet
  facet normal 0 0 -1
    outer loop
      vertex 0.916 76.587 0
      vertex 74.201 82.599 0
      vertex 72.639 82.267 0
    endloop
  endfacet
  facet normal 0 0 -1
    outer loop
      vertex 0.916 76.587 0
      vertex 72.639 82.267 0
      vertex 71.179 81.618 0
    endloop
  endfacet
  facet normal 0 0 -1
    outer loop
      vertex 0.916 76.587 0
      vertex 71.179 81.618 0
      vertex 69.887 80.679 0
    endloop
  endfacet
  facet normal 0 0 -1
    outer loop
      vertex 0.916 76.587 0
      vertex 69.887 80.679 0
      vertex 68.818 79.491 0
    endloop
  endfacet
  facet normal 0 0 -1
    outer loop
      vertex 48.168 75 0
      vertex 26.832 75 0
      vertex 49.084 76.587 0
    endloop
  endfacet
  facet normal 0 0 -1
    outer loop
      vertex 23.168 75 0
      vertex 1.832 75 0
      vertex 24.084 76.587 0
    endloop
  endfacet
  facet normal -1 0 0
    outer loop
      vertex -30 75 0
      vertex -30 75 24
      vertex -30 89 0
    endloop
  endfacet
  facet normal -1 0 0
    outer loop
      vertex -30 89 0
      vertex -30 75 24
      vertex -30 89 24
    endloop
  endfacet
  facet normal 0 0 1
    outer loop
      vertex -30 89 24
      vertex -30 75 24
      vertex -10 75 24
    endloop
  endfacet
  facet normal 0 0 1
    outer loop
      vertex -0.916 73.413 24
      vertex -30 89 24
      vertex -10 75 24
    endloop
  endfacet
  facet normal 0 0 1
    outer loop
      vertex -10 61 24
      vertex 61 61 24
      vertex -10 75 24
    endloop
  endfacet
  facet normal 0 0 1
    outer loop
      vertex 61 10 24
      vertex 75 10 24
      vertex 61 61 24
    endloop
  endfacet
  facet normal 0 0 1
    outer loop
      vertex 75 10 24
      vertex 75 30 24
      vertex 61 61 24
    endloop
  endfacet
  facet normal 0 0 1
    outer loop
      vertex 50.916 76.587 24
      vertex 67.526 73.411 24
      vertex 67.359 75 24
    endloop
  endfacet
  facet normal 0 0 1
    outer loop
      vertex 75 30 24
      vertex 79.5 40 24
      vertex 61 61 24
    endloop
  endfacet
  facet normal 0 0 1
    outer loop
      vertex 75 30 24
      vertex 89 30 24
      vertex 79.5 40 24
    endloop
  endfacet
  facet normal 0 0 1
    outer loop
      vertex 72.639 67.733 24
      vertex 71.179 68.382 24
      vertex -30 89 24
    endloop
  endfacet
  facet normal 0 0 1
    outer loop
      vertex 77.361 82.267 24
      vertex 87.79 80.694 24
      vertex 75.799 82.599 24
    endloop
  endfacet
  facet normal 0 0 1
    outer loop
      vertex 77.361 67.733 24
      vertex 75.799 67.401 24
      vertex 61 61 24
    endloop
  endfacet
  facet normal 0 0 1
    outer loop
      vertex 25.916 76.587 24
      vertex 74.201 67.401 24
      vertex -30 89 24
    endloop
  endfacet
  facet normal 0 0 1
    outer loop
      vertex 61 61 24
      vertex 75.799 67.401 24
      vertex 74.201 67.401 24
    endloop
  endfacet
  facet normal 0 0 1
    outer loop
      vertex 74.201 67.401 24
      vertex 72.639 67.733 24
      vertex -30 89 24
    endloop
  endfacet
  facet normal 0 0 1
    outer loop
      vertex 50.916 76.587 24
      vertex 67.359 75 24
      vertex -30 89 24
    endloop
  endfacet
  facet normal 0 0 1
    outer loop
      vertex 67.359 75 24
      vertex 67.526 76.589 24
      vertex -30 89 24
    endloop
  endfacet
  facet normal 0 0 1
    outer loop
      vertex 67.526 76.589 24
      vertex 68.019 78.108 24
      vertex -30 89 24
    endloop
  endfacet
  facet normal 0 0 1
    outer loop
      vertex 68.019 78.108 24
      vertex 68.818 79.491 24
      vertex -30 89 24
    endloop
  endfacet
  facet normal 0 0 1
    outer loop
      vertex 68.818 79.491 24
      vertex 69.887 80.679 24
      vertex -30 89 24
    endloop
  endfacet
  facet normal 0 0 1
    outer loop
      vertex 69.887 80.679 24
      vertex 71.179 81.618 24
      vertex -30 89 24
    endloop
  endfacet
  facet normal 0 0 1
    outer loop
      vertex 71.179 81.618 24
      vertex 72.639 82.267 24
      vertex -30 89 24
    endloop
  endfacet
  facet normal 0 0 1
    outer loop
      vertex 72.639 82.267 24
      vertex 74.201 82.599 24
      vertex -30 89 24
    endloop
  endfacet
  facet normal 0 0 1
    outer loop
      vertex 74.201 82.599 24
      vertex 75.799 82.599 24
      vertex -30 89 24
    endloop
  endfacet
  facet normal 0 0 1
    outer loop
      vertex 75.799 82.599 24
      vertex 86.326 83.229 24
      vertex -30 89 24
    endloop
  endfacet
  facet normal 0 0 1
    outer loop
      vertex 82.5 43 24
      vertex 82.641 75 24
      vertex 82.5 73.658 24
    endloop
  endfacet
  facet normal 0 0 1
    outer loop
      vertex 82.641 75 24
      vertex 89 43 24
      vertex 82.474 76.589 24
    endloop
  endfacet
  facet normal 0 0 1
    outer loop
      vertex 78.821 81.618 24
      vertex 88.694 77.911 24
      vertex 77.361 82.267 24
    endloop
  endfacet
  facet normal 0 0 1
    outer loop
      vertex 82.5 43 24
      vertex 89 43 24
      vertex 82.641 75 24
    endloop
  endfacet
  facet normal 0 0 1
    outer loop
      vertex 80.113 80.679 24
      vertex 89 75 24
      vertex 78.821 81.618 24
    endloop
  endfacet
  facet normal 0 0 1
    outer loop
      vertex 81.182 79.491 24
      vertex 89 75 24
      vertex 80.113 80.679 24
    endloop
  endfacet
  facet normal 0 0 1
    outer loop
      vertex 81.981 78.108 24
      vertex 89 75 24
      vertex 81.182 79.491 24
    endloop
  endfacet
  facet normal 0 0 1
    outer loop
      vertex 82.474 76.589 24
      vertex 89 75 24
      vertex 81.981 78.108 24
    endloop
  endfacet
  facet normal 0 0 1
    outer loop
      vertex 75 88.923 24
      vertex -5.5 89 24
      vertex -30 89 24
    endloop
  endfacet
  facet normal 0 0 1
    outer loop
      vertex 79.5 40 24
      vertex 77.361 67.733 24
      vertex 61 61 24
    endloop
  endfacet
  facet normal 0 0 1
    outer loop
      vertex 89 43 24
      vertex 89 75 24
      vertex 82.474 76.589 24
    endloop
  endfacet
  facet normal 0 0 1
    outer loop
      vertex 89 75 24
      vertex 88.694 77.911 24
      vertex 78.821 81.618 24
    endloop
  endfacet
  facet normal 0 0 1
    outer loop
      vertex 88.694 77.911 24
      vertex 87.79 80.694 24
      vertex 77.361 82.267 24
    endloop
  endfacet
  facet normal 0 0 1
    outer loop
      vertex 87.79 80.694 24
      vertex 86.326 83.229 24
      vertex 75.799 82.599 24
    endloop
  endfacet
  facet normal 0 0 1
    outer loop
      vertex 86.326 83.229 24
      vertex 84.368 85.404 24
      vertex -30 89 24
    endloop
  endfacet
  facet normal 0 0 1
    outer loop
      vertex 84.368 85.404 24
      vertex 82 87.124 24
      vertex -30 89 24
    endloop
  endfacet
  facet normal 0 0 1
    outer loop
      vertex 82 87.124 24
      vertex 79.326 88.315 24
      vertex -30 89 24
    endloop
  endfacet
  facet normal 0 0 1
    outer loop
      vertex 48.168 75 24
      vertex 49.084 76.587 24
      vertex -30 89 24
    endloop
  endfacet
  facet normal 0 0 1
    outer loop
      vertex 79.326 88.315 24
      vertex 75 88.923 24
      vertex -30 89 24
    endloop
  endfacet
  facet normal 0 0 1
    outer loop
      vertex 79.326 88.315 24
      vertex 76.463 88.923 24
      vertex 75 88.923 24
    endloop
  endfacet
  facet normal 0 0 1
    outer loop
      vertex -5.5 124 24
      vertex -5.5 89 24
      vertex 5.5 124 24
    endloop
  endfacet
  facet normal 0 0 1
    outer loop
      vertex 0.916 76.587 24
      vertex 1.832 75 24
      vertex 61 61 24
    endloop
  endfacet
  facet normal 0 0 1
    outer loop
      vertex 49.084 73.413 24
      vertex 48.168 75 24
      vertex -30 89 24
    endloop
  endfacet
  facet normal 0 0 1
    outer loop
      vertex 5.5 89 24
      vertex 5.5 124 24
      vertex -5.5 89 24
    endloop
  endfacet
  facet normal 0 0 1
    outer loop
      vertex 61 61 24
      vertex -0.916 73.413 24
      vertex -10 75 24
    endloop
  endfacet
  facet normal 0 0 1
    outer loop
      vertex -1.832 75 24
      vertex -30 89 24
      vertex -0.916 73.413 24
    endloop
  endfacet
  facet normal 0 0 1
    outer loop
      vertex -0.916 76.587 24
      vertex -30 89 24
      vertex -1.832 75 24
    endloop
  endfacet
  facet normal 0 0 1
    outer loop
      vertex 0.916 76.587 24
      vertex -30 89 24
      vertex -0.916 76.587 24
    endloop
  endfacet
  facet normal 0 0 1
    outer loop
      vertex 1.832 75 24
      vertex 0.916 73.413 24
      vertex 61 61 24
    endloop
  endfacet
  facet normal 0 0 1
    outer loop
      vertex 61 61 24
      vertex -30 89 24
      vertex 0.916 76.587 24
    endloop
  endfacet
  facet normal 0 0 1
    outer loop
      vertex 25.916 76.587 24
      vertex 26.832 75 24
      vertex 74.201 67.401 24
    endloop
  endfacet
  facet normal 0 0 1
    outer loop
      vertex 61 61 24
      vertex 0.916 73.413 24
      vertex -0.916 73.413 24
    endloop
  endfacet
  facet normal 0 0 1
    outer loop
      vertex 61 61 24
      vertex 24.084 73.413 24
      vertex -30 89 24
    endloop
  endfacet
  facet normal 0 0 1
    outer loop
      vertex 61 61 24
      vertex 74.201 67.401 24
      vertex 24.084 73.413 24
    endloop
  endfacet
  facet normal 0 0 1
    outer loop
      vertex 24.084 73.413 24
      vertex 23.168 75 24
      vertex -30 89 24
    endloop
  endfacet
  facet normal 0 0 1
    outer loop
      vertex 23.168 75 24
      vertex 24.084 76.587 24
      vertex -30 89 24
    endloop
  endfacet
  facet normal 0 0 1
    outer loop
      vertex 24.084 76.587 24
      vertex 25.916 76.587 24
      vertex -30 89 24
    endloop
  endfacet
  facet normal 0 0 1
    outer loop
      vertex 26.832 75 24
      vertex 25.916 73.413 24
      vertex 74.201 67.401 24
    endloop
  endfacet
  facet normal 0 0 1
    outer loop
      vertex 50.916 73.413 24
      vertex 49.084 73.413 24
      vertex 69.887 69.321 24
    endloop
  endfacet
  facet normal 0 0 1
    outer loop
      vertex 24.084 73.413 24
      vertex 74.201 67.401 24
      vertex 25.916 73.413 24
    endloop
  endfacet
  facet normal 0 0 1
    outer loop
      vertex 71.179 68.382 24
      vertex 49.084 73.413 24
      vertex -30 89 24
    endloop
  endfacet
  facet normal 0 0 1
    outer loop
      vertex 71.179 68.382 24
      vertex 69.887 69.321 24
      vertex 49.084 73.413 24
    endloop
  endfacet
  facet normal 0 0 1
    outer loop
      vertex 75 88.923 24
      vertex 5.5 89 24
      vertex -5.5 89 24
    endloop
  endfacet
  facet normal 0 0 1
    outer loop
      vertex 51.832 75 24
      vertex 68.818 70.509 24
      vertex 68.019 71.892 24
    endloop
  endfacet
  facet normal 0 0 1
    outer loop
      vertex 49.084 76.587 24
      vertex 50.916 76.587 24
      vertex -30 89 24
    endloop
  endfacet
  facet normal 0 0 1
    outer loop
      vertex 51.832 75 24
      vertex 50.916 73.413 24
      vertex 68.818 70.509 24
    endloop
  endfacet
  facet normal 0 0 1
    outer loop
      vertex 50.916 76.587 24
      vertex 51.832 75 24
      vertex 67.526 73.411 24
    endloop
  endfacet
  facet normal 0 0 1
    outer loop
      vertex 68.019 71.892 24
      vertex 67.526 73.411 24
      vertex 51.832 75 24
    endloop
  endfacet
  facet normal 0 0 1
    outer loop
      vertex 69.887 69.321 24
      vertex 68.818 70.509 24
      vertex 50.916 73.413 24
    endloop
  endfacet
  facet normal 0 0 1
    outer loop
      vertex 89 40 24
      vertex 79.5 40 24
      vertex 89 30 24
    endloop
  endfacet
  facet normal 0 0 1
    outer loop
      vertex 79.5 40 24
      vertex 78.821 68.382 24
      vertex 77.361 67.733 24
    endloop
  endfacet
  facet normal 0 0 1
    outer loop
      vertex 79.5 40 24
      vertex 79.5 68.875 24
      vertex 78.821 68.382 24
    endloop
  endfacet
  facet normal 0 0 1
    outer loop
      vertex 75 88.923 24
      vertex 75 89 24
      vertex 5.5 89 24
    endloop
  endfacet
  facet normal -1 0 0
    outer loop
      vertex -10 61 0
      vertex -10 61 24
      vertex -10 75 0
    endloop
  endfacet
  facet normal -1 0 0
    outer loop
      vertex -10 75 0
      vertex -10 61 24
      vertex -10 75 24
    endloop
  endfacet
  facet normal 0 -2.22045e-16 1
    outer loop
      vertex -19.084 75 4.4134
      vertex -19.084 89 4.4134
      vertex -20.916 89 4.4134
    endloop
  endfacet
  facet normal 0 -2.22045e-16 1
    outer loop
      vertex -20.916 75 4.4134
      vertex -19.084 75 4.4134
      vertex -20.916 89 4.4134
    endloop
  endfacet
  facet normal 0.866025 -1.11022e-16 0.5
    outer loop
      vertex -20.916 75 4.4134
      vertex -20.916 89 4.4134
      vertex -21.8321 89 6
    endloop
  endfacet
  facet normal 0.866025 -1.11022e-16 0.5
    outer loop
      vertex -21.8321 75 6
      vertex -20.916 75 4.4134
      vertex -21.8321 89 6
    endloop
  endfacet
  facet normal -0.866025 -1.11022e-16 0.5
    outer loop
      vertex -18.1679 89 6
      vertex -19.084 89 4.4134
      vertex -18.1679 75 6
    endloop
  endfacet
  facet normal -0.866025 -1.11022e-16 0.5
    outer loop
      vertex -18.1679 75 6
      vertex -19.084 89 4.4134
      vertex -19.084 75 4.4134
    endloop
  endfacet
  facet normal -0.866025 1.11022e-16 -0.5
    outer loop
      vertex -18.1679 89 6
      vertex -18.1679 75 6
      vertex -19.084 89 7.5866
    endloop
  endfacet
  facet normal -0.866025 1.11022e-16 -0.5
    outer loop
      vertex -19.084 89 7.5866
      vertex -18.1679 75 6
      vertex -19.084 75 7.5866
    endloop
  endfacet
  facet normal 0 2.22045e-16 -1
    outer loop
      vertex -19.084 89 7.5866
      vertex -19.084 75 7.5866
      vertex -20.916 89 7.5866
    endloop
  endfacet
  facet normal 0 2.22045e-16 -1
    outer loop
      vertex -20.916 89 7.5866
      vertex -19.084 75 7.5866
      vertex -20.916 75 7.5866
    endloop
  endfacet
  facet normal 0.866025 1.11022e-16 -0.5
    outer loop
      vertex -21.8321 89 6
      vertex -20.916 89 7.5866
      vertex -20.916 75 7.5866
    endloop
  endfacet
  facet normal 0.866025 1.11022e-16 -0.5
    outer loop
      vertex -21.8321 75 6
      vertex -21.8321 89 6
      vertex -20.916 75 7.5866
    endloop
  endfacet
  facet normal 0 -2.22045e-16 1
    outer loop
      vertex -19.084 75 16.4134
      vertex -19.084 89 16.4134
      vertex -20.916 89 16.4134
    endloop
  endfacet
  facet normal 0 -2.22045e-16 1
    outer loop
      vertex -20.916 75 16.4134
      vertex -19.084 75 16.4134
      vertex -20.916 89 16.4134
    endloop
  endfacet
  facet normal 0.866025 -1.11022e-16 0.5
    outer loop
      vertex -20.916 75 16.4134
      vertex -20.916 89 16.4134
      vertex -21.8321 89 18
    endloop
  endfacet
  facet normal 0.866025 -1.11022e-16 0.5
    outer loop
      vertex -21.8321 75 18
      vertex -20.916 75 16.4134
      vertex -21.8321 89 18
    endloop
  endfacet
  facet normal -0.866025 -1.11022e-16 0.5
    outer loop
      vertex -18.1679 89 18
      vertex -19.084 89 16.4134
      vertex -18.1679 75 18
    endloop
  endfacet
  facet normal -0.866025 -1.11022e-16 0.5
    outer loop
      vertex -18.1679 75 18
      vertex -19.084 89 16.4134
      vertex -19.084 75 16.4134
    endloop
  endfacet
  facet normal -0.866025 1.11022e-16 -0.5
    outer loop
      vertex -18.1679 89 18
      vertex -18.1679 75 18
      vertex -19.084 89 19.5866
    endloop
  endfacet
  facet normal -0.866025 1.11022e-16 -0.5
    outer loop
      vertex -19.084 89 19.5866
      vertex -18.1679 75 18
      vertex -19.084 75 19.5866
    endloop
  endfacet
  facet normal 0 2.22045e-16 -1
    outer loop
      vertex -19.084 89 19.5866
      vertex -19.084 75 19.5866
      vertex -20.916 89 19.5866
    endloop
  endfacet
  facet normal 0 2.22045e-16 -1
    outer loop
      vertex -20.916 89 19.5866
      vertex -19.084 75 19.5866
      vertex -20.916 75 19.5866
    endloop
  endfacet
  facet normal 0.866025 1.11022e-16 -0.5
    outer loop
      vertex -21.8321 89 18
      vertex -20.916 89 19.5866
      vertex -20.916 75 19.5866
    endloop
  endfacet
  facet normal 0.866025 1.11022e-16 -0.5
    outer loop
      vertex -21.8321 75 18
      vertex -21.8321 89 18
      vertex -20.916 75 19.5866
    endloop
  endfacet
  facet normal 0 -1 0
    outer loop
      vertex -10 61 24
      vertex -10 61 0
      vertex 61 61 0
    endloop
  endfacet
  facet normal 0 -1 0
    outer loop
      vertex 61 61 24
      vertex -10 61 24
      vertex 61 61 0
    endloop
  endfacet
  facet normal -1 0 0
    outer loop
      vertex 61 20 16.1679
      vertex 61 21.5866 6.91602
      vertex 61 18.4134 17.084
    endloop
  endfacet
  facet normal -1 0 0
    outer loop
      vertex 61 20 19.8321
      vertex 61 10 24
      vertex 61 61 24
    endloop
  endfacet
  facet normal -1 0 0
    outer loop
      vertex 61 10 0
      vertex 61 10 24
      vertex 61 18.4134 6.91602
    endloop
  endfacet
  facet normal -1 0 0
    outer loop
      vertex 61 56.5866 11.084
      vertex 61 61 0
      vertex 61 55 10.1679
    endloop
  endfacet
  facet normal -1 0 0
    outer loop
      vertex 61 10 0
      vertex 61 18.4134 6.91602
      vertex 61 18.4134 5.08397
    endloop
  endfacet
  facet normal -1 0 0
    outer loop
      vertex 61 10 0
      vertex 61 18.4134 5.08397
      vertex 61 20 4.16795
    endloop
  endfacet
  facet normal -1 0 0
    outer loop
      vertex 61 10 0
      vertex 61 20 4.16795
      vertex 61 61 0
    endloop
  endfacet
  facet normal -1 0 0
    outer loop
      vertex 61 21.5866 6.91602
      vertex 61 61 0
      vertex 61 21.5866 5.08397
    endloop
  endfacet
  facet normal -1 0 0
    outer loop
      vertex 61 20 7.83205
      vertex 61 10 24
      vertex 61 21.5866 6.91602
    endloop
  endfacet
  facet normal -1 0 0
    outer loop
      vertex 61 18.4134 18.916
      vertex 61 10 24
      vertex 61 20 19.8321
    endloop
  endfacet
  facet normal -1 0 0
    outer loop
      vertex 61 18.4134 6.91602
      vertex 61 10 24
      vertex 61 20 7.83205
    endloop
  endfacet
  facet normal -1 0 0
    outer loop
      vertex 61 18.4134 17.084
      vertex 61 10 24
      vertex 61 18.4134 18.916
    endloop
  endfacet
  facet normal -1 0 0
    outer loop
      vertex 61 21.5866 6.91602
      vertex 61 10 24
      vertex 61 18.4134 17.084
    endloop
  endfacet
  facet normal -1 0 0
    outer loop
      vertex 61 21.5866 18.916
      vertex 61 61 0
      vertex 61 21.5866 17.084
    endloop
  endfacet
  facet normal -1 0 0
    outer loop
      vertex 61 21.5866 6.91602
      vertex 61 20 16.1679
      vertex 61 61 0
    endloop
  endfacet
  facet normal -1 0 0
    outer loop
      vertex 61 20 16.1679
      vertex 61 21.5866 17.084
      vertex 61 61 0
    endloop
  endfacet
  facet normal -1 0 0
    outer loop
      vertex 61 53.4134 12.916
      vertex 61 21.5866 18.916
      vertex 61 61 24
    endloop
  endfacet
  facet normal -1 0 0
    outer loop
      vertex 61 21.5866 18.916
      vertex 61 20 19.8321
      vertex 61 61 24
    endloop
  endfacet
  facet normal -1 0 0
    outer loop
      vertex 61 53.4134 11.084
      vertex 61 21.5866 18.916
      vertex 61 53.4134 12.916
    endloop
  endfacet
  facet normal -1 0 0
    outer loop
      vertex 61 55 13.8321
      vertex 61 53.4134 12.916
      vertex 61 61 24
    endloop
  endfacet
  facet normal -1 0 0
    outer loop
      vertex 61 61 0
      vertex 61 21.5866 18.916
      vertex 61 53.4134 11.084
    endloop
  endfacet
  facet normal -1 0 0
    outer loop
      vertex 61 61 0
      vertex 61 53.4134 11.084
      vertex 61 55 10.1679
    endloop
  endfacet
  facet normal -1 0 0
    outer loop
      vertex 61 61 0
      vertex 61 56.5866 11.084
      vertex 61 61 24
    endloop
  endfacet
  facet normal -1 0 0
    outer loop
      vertex 61 56.5866 11.084
      vertex 61 56.5866 12.916
      vertex 61 61 24
    endloop
  endfacet
  facet normal -1 0 0
    outer loop
      vertex 61 56.5866 12.916
      vertex 61 55 13.8321
      vertex 61 61 24
    endloop
  endfacet
  facet normal -1 0 0
    outer loop
      vertex 61 21.5866 5.08397
      vertex 61 61 0
      vertex 61 20 4.16795
    endloop
  endfacet
  facet normal 0 -1 0
    outer loop
      vertex 61 10 24
      vertex 61 10 0
      vertex 75 10 0
    endloop
  endfacet
  facet normal 0 -1 0
    outer loop
      vertex 75 10 24
      vertex 61 10 24
      vertex 75 10 0
    endloop
  endfacet
  facet normal 1 0 0
    outer loop
      vertex 75 20 4.16795
      vertex 75 10 0
      vertex 75 30 0
    endloop
  endfacet
  facet normal 1 0 0
    outer loop
      vertex 75 18.4134 17.084
      vertex 75 10 24
      vertex 75 30 0
    endloop
  endfacet
  facet normal 1 0 0
    outer loop
      vertex 75 10 24
      vertex 75 10 0
      vertex 75 18.4134 5.08398
    endloop
  endfacet
  facet normal 1 0 0
    outer loop
      vertex 75 20 19.8321
      vertex 75 21.5866 18.916
      vertex 75 30 24
    endloop
  endfacet
  facet normal 1 0 0
    outer loop
      vertex 75 10 24
      vertex 75 18.4134 5.08398
      vertex 75 18.4134 6.91603
    endloop
  endfacet
  facet normal 1 0 0
    outer loop
      vertex 75 10 24
      vertex 75 18.4134 6.91603
      vertex 75 20 7.83205
    endloop
  endfacet
  facet normal 1 0 0
    outer loop
      vertex 75 10 24
      vertex 75 21.5866 6.91603
      vertex 75 30 0
    endloop
  endfacet
  facet normal 1 0 0
    outer loop
      vertex 75 10 24
      vertex 75 20 7.83205
      vertex 75 21.5866 6.91603
    endloop
  endfacet
  facet normal 1 0 0
    outer loop
      vertex 75 18.4134 5.08398
      vertex 75 10 0
      vertex 75 20 4.16795
    endloop
  endfacet
  facet normal 1 0 0
    outer loop
      vertex 75 20 16.1679
      vertex 75 18.4134 17.084
      vertex 75 30 0
    endloop
  endfacet
  facet normal 1 0 0
    outer loop
      vertex 75 18.4134 18.916
      vertex 75 10 24
      vertex 75 18.4134 17.084
    endloop
  endfacet
  facet normal 1 0 0
    outer loop
      vertex 75 20 19.8321
      vertex 75 10 24
      vertex 75 18.4134 18.916
    endloop
  endfacet
  facet normal 1 0 0
    outer loop
      vertex 75 30 24
      vertex 75 10 24
      vertex 75 20 19.8321
    endloop
  endfacet
  facet normal 1 0 0
    outer loop
      vertex 75 30 24
      vertex 75 21.5866 18.916
      vertex 75 30 0
    endloop
  endfacet
  facet normal 1 0 0
    outer loop
      vertex 75 21.5866 18.916
      vertex 75 21.5866 17.084
      vertex 75 30 0
    endloop
  endfacet
  facet normal 1 0 0
    outer loop
      vertex 75 21.5866 17.084
      vertex 75 20 16.1679
      vertex 75 30 0
    endloop
  endfacet
  facet normal 1 0 0
    outer loop
      vertex 75 21.5866 6.91603
      vertex 75 21.5866 5.08398
      vertex 75 30 0
    endloop
  endfacet
  facet normal 1 0 0
    outer loop
      vertex 75 21.5866 5.08398
      vertex 75 20 4.16795
      vertex 75 30 0
    endloop
  endfacet
  facet normal 0 -1 0
    outer loop
      vertex 75 30 24
      vertex 75 30 0
      vertex 89 30 0
    endloop
  endfacet
  facet normal 0 -1 0
    outer loop
      vertex 89 30 24
      vertex 75 30 24
      vertex 89 30 0
    endloop
  endfacet
  facet normal 1 0 0
    outer loop
      vertex 89 30 24
      vertex 89 30 0
      vertex 89 40 0
    endloop
  endfacet
  facet normal 1 0 0
    outer loop
      vertex 89 40 24
      vertex 89 30 24
      vertex 89 40 0
    endloop
  endfacet
  facet normal 0 1 0
    outer loop
      vertex 79.5 40 0
      vertex 79.5 40 24
      vertex 89 40 0
    endloop
  endfacet
  facet normal 0 1 0
    outer loop
      vertex 89 40 0
      vertex 79.5 40 24
      vertex 89 40 24
    endloop
  endfacet
  facet normal 1 0 0
    outer loop
      vertex 79.5 53.4134 11.084
      vertex 79.5 40 0
      vertex 79.5 68.875 0
    endloop
  endfacet
  facet normal 1 0 0
    outer loop
      vertex 79.5 55 10.1679
      vertex 79.5 53.4134 11.084
      vertex 79.5 68.875 0
    endloop
  endfacet
  facet normal 1 0 0
    outer loop
      vertex 79.5 40 24
      vertex 79.5 40 0
      vertex 79.5 53.4134 11.084
    endloop
  endfacet
  facet normal 1 0 0
    outer loop
      vertex 79.5 68.875 24
      vertex 79.5 40 24
      vertex 79.5 53.4134 12.916
    endloop
  endfacet
  facet normal 1 0 0
    outer loop
      vertex 79.5 56.5866 11.084
      vertex 79.5 55 10.1679
      vertex 79.5 68.875 0
    endloop
  endfacet
  facet normal 1 0 0
    outer loop
      vertex 79.5 68.875 24
      vertex 79.5 53.4134 12.916
      vertex 79.5 55 13.8321
    endloop
  endfacet
  facet normal 1 0 0
    outer loop
      vertex 79.5 68.875 24
      vertex 79.5 56.5866 12.916
      vertex 79.5 68.875 0
    endloop
  endfacet
  facet normal 1 0 0
    outer loop
      vertex 79.5 68.875 24
      vertex 79.5 55 13.8321
      vertex 79.5 56.5866 12.916
    endloop
  endfacet
  facet normal 1 0 0
    outer loop
      vertex 79.5 56.5866 12.916
      vertex 79.5 56.5866 11.084
      vertex 79.5 68.875 0
    endloop
  endfacet
  facet normal 1 0 0
    outer loop
      vertex 79.5 53.4134 11.084
      vertex 79.5 53.4134 12.916
      vertex 79.5 40 24
    endloop
  endfacet
  facet normal -0.587534 0.8092 0
    outer loop
      vertex 78.821 68.382 0
      vertex 78.821 68.382 24
      vertex 79.5 68.875 0
    endloop
  endfacet
  facet normal -0.587534 0.8092 0
    outer loop
      vertex 79.5 68.875 0
      vertex 78.821 68.382 24
      vertex 79.5 68.875 24
    endloop
  endfacet
  facet normal -0.406197 0.913786 0
    outer loop
      vertex 77.361 67.733 0
      vertex 77.361 67.733 24
      vertex 78.821 68.382 0
    endloop
  endfacet
  facet normal -0.406197 0.913786 0
    outer loop
      vertex 78.821 68.382 0
      vertex 77.361 67.733 24
      vertex 78.821 68.382 24
    endloop
  endfacet
  facet normal -0.207904 0.978149 0
    outer loop
      vertex 75.799 67.401 0
      vertex 75.799 67.401 24
      vertex 77.361 67.733 0
    endloop
  endfacet
  facet normal -0.207904 0.978149 0
    outer loop
      vertex 77.361 67.733 0
      vertex 75.799 67.401 24
      vertex 77.361 67.733 24
    endloop
  endfacet
  facet normal 0 1 0
    outer loop
      vertex 74.201 67.401 0
      vertex 74.201 67.401 24
      vertex 75.799 67.401 0
    endloop
  endfacet
  facet normal 0 1 0
    outer loop
      vertex 75.799 67.401 0
      vertex 74.201 67.401 24
      vertex 75.799 67.401 24
    endloop
  endfacet
  facet normal 0.207904 0.978149 0
    outer loop
      vertex 72.639 67.733 0
      vertex 72.639 67.733 24
      vertex 74.201 67.401 0
    endloop
  endfacet
  facet normal 0.207904 0.978149 0
    outer loop
      vertex 74.201 67.401 0
      vertex 72.639 67.733 24
      vertex 74.201 67.401 24
    endloop
  endfacet
  facet normal 0.406197 0.913786 0
    outer loop
      vertex 71.179 68.382 0
      vertex 71.179 68.382 24
      vertex 72.639 67.733 0
    endloop
  endfacet
  facet normal 0.406197 0.913786 0
    outer loop
      vertex 72.639 67.733 0
      vertex 71.179 68.382 24
      vertex 72.639 67.733 24
    endloop
  endfacet
  facet normal 0.587911 0.808926 0
    outer loop
      vertex 69.887 69.321 0
      vertex 69.887 69.321 24
      vertex 71.179 68.382 0
    endloop
  endfacet
  facet normal 0.587911 0.808926 0
    outer loop
      vertex 71.179 68.382 0
      vertex 69.887 69.321 24
      vertex 71.179 68.382 24
    endloop
  endfacet
  facet normal 0.743356 0.668896 0
    outer loop
      vertex 69.887 69.321 0
      vertex 68.818 70.509 0
      vertex 68.818 70.509 24
    endloop
  endfacet
  facet normal 0.743356 0.668896 0
    outer loop
      vertex 69.887 69.321 24
      vertex 69.887 69.321 0
      vertex 68.818 70.509 24
    endloop
  endfacet
  facet normal 0.865883 0.500246 0
    outer loop
      vertex 68.818 70.509 0
      vertex 68.019 71.892 0
      vertex 68.019 71.892 24
    endloop
  endfacet
  facet normal 0.865883 0.500246 0
    outer loop
      vertex 68.818 70.509 24
      vertex 68.818 70.509 0
      vertex 68.019 71.892 24
    endloop
  endfacet
  facet normal 0.951158 0.308704 0
    outer loop
      vertex 68.019 71.892 0
      vertex 67.526 73.411 0
      vertex 67.526 73.411 24
    endloop
  endfacet
  facet normal 0.951158 0.308704 0
    outer loop
      vertex 68.019 71.892 24
      vertex 68.019 71.892 0
      vertex 67.526 73.411 24
    endloop
  endfacet
  facet normal 0.994523 0.104522 0
    outer loop
      vertex 67.526 73.411 0
      vertex 67.359 75 0
      vertex 67.359 75 24
    endloop
  endfacet
  facet normal 0.994523 0.104522 0
    outer loop
      vertex 67.526 73.411 24
      vertex 67.526 73.411 0
      vertex 67.359 75 24
    endloop
  endfacet
  facet normal 0.994523 -0.104522 0
    outer loop
      vertex 67.359 75 24
      vertex 67.359 75 0
      vertex 67.526 76.589 0
    endloop
  endfacet
  facet normal 0.994523 -0.104522 0
    outer loop
      vertex 67.526 76.589 24
      vertex 67.359 75 24
      vertex 67.526 76.589 0
    endloop
  endfacet
  facet normal 0.951158 -0.308704 0
    outer loop
      vertex 67.526 76.589 24
      vertex 67.526 76.589 0
      vertex 68.019 78.108 0
    endloop
  endfacet
  facet normal 0.951158 -0.308704 0
    outer loop
      vertex 68.019 78.108 24
      vertex 67.526 76.589 24
      vertex 68.019 78.108 0
    endloop
  endfacet
  facet normal 0.865883 -0.500246 0
    outer loop
      vertex 68.019 78.108 24
      vertex 68.019 78.108 0
      vertex 68.818 79.491 0
    endloop
  endfacet
  facet normal 0.865883 -0.500246 0
    outer loop
      vertex 68.818 79.491 24
      vertex 68.019 78.108 24
      vertex 68.818 79.491 0
    endloop
  endfacet
  facet normal 0.743356 -0.668896 0
    outer loop
      vertex 68.818 79.491 24
      vertex 68.818 79.491 0
      vertex 69.887 80.679 0
    endloop
  endfacet
  facet normal 0.743356 -0.668896 0
    outer loop
      vertex 69.887 80.679 24
      vertex 68.818 79.491 24
      vertex 69.887 80.679 0
    endloop
  endfacet
  facet normal 0.587911 -0.808926 0
    outer loop
      vertex 69.887 80.679 24
      vertex 69.887 80.679 0
      vertex 71.179 81.618 0
    endloop
  endfacet
  facet normal 0.587911 -0.808926 0
    outer loop
      vertex 71.179 81.618 24
      vertex 69.887 80.679 24
      vertex 71.179 81.618 0
    endloop
  endfacet
  facet normal 0.406197 -0.913786 0
    outer loop
      vertex 71.179 81.618 24
      vertex 71.179 81.618 0
      vertex 72.639 82.267 0
    endloop
  endfacet
  facet normal 0.406197 -0.913786 0
    outer loop
      vertex 72.639 82.267 24
      vertex 71.179 81.618 24
      vertex 72.639 82.267 0
    endloop
  endfacet
  facet normal 0.207904 -0.978149 0
    outer loop
      vertex 72.639 82.267 24
      vertex 72.639 82.267 0
      vertex 74.201 82.599 0
    endloop
  endfacet
  facet normal 0.207904 -0.978149 0
    outer loop
      vertex 74.201 82.599 24
      vertex 72.639 82.267 24
      vertex 74.201 82.599 0
    endloop
  endfacet
  facet normal 0 -1 0
    outer loop
      vertex 74.201 82.599 24
      vertex 74.201 82.599 0
      vertex 75.799 82.599 0
    endloop
  endfacet
  facet normal 0 -1 0
    outer loop
      vertex 75.799 82.599 24
      vertex 74.201 82.599 24
      vertex 75.799 82.599 0
    endloop
  endfacet
  facet normal -0.207904 -0.978149 0
    outer loop
      vertex 75.799 82.599 24
      vertex 75.799 82.599 0
      vertex 77.361 82.267 0
    endloop
  endfacet
  facet normal -0.207904 -0.978149 0
    outer loop
      vertex 77.361 82.267 24
      vertex 75.799 82.599 24
      vertex 77.361 82.267 0
    endloop
  endfacet
  facet normal -0.406197 -0.913786 0
    outer loop
      vertex 77.361 82.267 24
      vertex 77.361 82.267 0
      vertex 78.821 81.618 0
    endloop
  endfacet
  facet normal -0.406197 -0.913786 0
    outer loop
      vertex 78.821 81.618 24
      vertex 77.361 82.267 24
      vertex 78.821 81.618 0
    endloop
  endfacet
  facet normal -0.587911 -0.808926 0
    outer loop
      vertex 78.821 81.618 24
      vertex 78.821 81.618 0
      vertex 80.113 80.679 0
    endloop
  endfacet
  facet normal -0.587911 -0.808926 0
    outer loop
      vertex 80.113 80.679 24
      vertex 78.821 81.618 24
      vertex 80.113 80.679 0
    endloop
  endfacet
  facet normal -0.743356 -0.668896 0
    outer loop
      vertex 80.113 80.679 0
      vertex 81.182 79.491 0
      vertex 80.113 80.679 24
    endloop
  endfacet
  facet normal -0.743356 -0.668896 0
    outer loop
      vertex 80.113 80.679 24
      vertex 81.182 79.491 0
      vertex 81.182 79.491 24
    endloop
  endfacet
  facet normal -0.865883 -0.500246 0
    outer loop
      vertex 81.182 79.491 0
      vertex 81.981 78.108 0
      vertex 81.182 79.491 24
    endloop
  endfacet
  facet normal -0.865883 -0.500246 0
    outer loop
      vertex 81.182 79.491 24
      vertex 81.981 78.108 0
      vertex 81.981 78.108 24
    endloop
  endfacet
  facet normal -0.951158 -0.308704 0
    outer loop
      vertex 81.981 78.108 0
      vertex 82.474 76.589 0
      vertex 81.981 78.108 24
    endloop
  endfacet
  facet normal -0.951158 -0.308704 0
    outer loop
      vertex 81.981 78.108 24
      vertex 82.474 76.589 0
      vertex 82.474 76.589 24
    endloop
  endfacet
  facet normal -0.994523 -0.104522 0
    outer loop
      vertex 82.474 76.589 0
      vertex 82.641 75 0
      vertex 82.474 76.589 24
    endloop
  endfacet
  facet normal -0.994523 -0.104522 0
    outer loop
      vertex 82.474 76.589 24
      vertex 82.641 75 0
      vertex 82.641 75 24
    endloop
  endfacet
  facet normal -0.994526 0.104492 0
    outer loop
      vertex 82.5 73.658 0
      vertex 82.5 73.658 24
      vertex 82.641 75 0
    endloop
  endfacet
  facet normal -0.994526 0.104492 0
    outer loop
      vertex 82.641 75 0
      vertex 82.5 73.658 24
      vertex 82.641 75 24
    endloop
  endfacet
  facet normal -1 0 0
    outer loop
      vertex 82.5 56.5866 12.916
      vertex 82.5 43 24
      vertex 82.5 73.658 0
    endloop
  endfacet
  facet normal -1 0 0
    outer loop
      vertex 82.5 73.658 0
      vertex 82.5 43 24
      vertex 82.5 73.658 24
    endloop
  endfacet
  facet normal -1 0 0
    outer loop
      vertex 82.5 43 0
      vertex 82.5 43 24
      vertex 82.5 53.4134 12.916
    endloop
  endfacet
  facet normal -1 0 0
    outer loop
      vertex 82.5 43 0
      vertex 82.5 53.4134 12.916
      vertex 82.5 53.4134 11.084
    endloop
  endfacet
  facet normal -1 0 0
    outer loop
      vertex 82.5 43 0
      vertex 82.5 53.4134 11.084
      vertex 82.5 55 10.1679
    endloop
  endfacet
  facet normal -1 0 0
    outer loop
      vertex 82.5 43 0
      vertex 82.5 55 10.1679
      vertex 82.5 73.658 0
    endloop
  endfacet
  facet normal -1 0 0
    outer loop
      vertex 82.5 56.5866 11.084
      vertex 82.5 73.658 0
      vertex 82.5 55 10.1679
    endloop
  endfacet
  facet normal -1 0 0
    outer loop
      vertex 82.5 55 13.8321
      vertex 82.5 43 24
      vertex 82.5 56.5866 12.916
    endloop
  endfacet
  facet normal -1 0 0
    outer loop
      vertex 82.5 56.5866 11.084
      vertex 82.5 56.5866 12.916
      vertex 82.5 73.658 0
    endloop
  endfacet
  facet normal -1 0 0
    outer loop
      vertex 82.5 53.4134 12.916
      vertex 82.5 43 24
      vertex 82.5 55 13.8321
    endloop
  endfacet
  facet normal 0 -1 0
    outer loop
      vertex 82.5 43 24
      vertex 82.5 43 0
      vertex 89 43 0
    endloop
  endfacet
  facet normal 0 -1 0
    outer loop
      vertex 89 43 24
      vertex 82.5 43 24
      vertex 89 43 0
    endloop
  endfacet
  facet normal 1 0 0
    outer loop
      vertex 89 55 10.1679
      vertex 89 43 0
      vertex 89 75 0
    endloop
  endfacet
  facet normal 1 0 0
    outer loop
      vertex 89 75 24
      vertex 89 43 24
      vertex 89 75 0
    endloop
  endfacet
  facet normal 1 0 0
    outer loop
      vertex 89 43 24
      vertex 89 43 0
      vertex 89 53.4134 11.084
    endloop
  endfacet
  facet normal 1 0 0
    outer loop
      vertex 89 43 24
      vertex 89 53.4134 11.084
      vertex 89 53.4134 12.916
    endloop
  endfacet
  facet normal 1 0 0
    outer loop
      vertex 89 43 24
      vertex 89 53.4134 12.916
      vertex 89 55 13.8321
    endloop
  endfacet
  facet normal 1 0 0
    outer loop
      vertex 89 43 24
      vertex 89 56.5866 12.916
      vertex 89 75 0
    endloop
  endfacet
  facet normal 1 0 0
    outer loop
      vertex 89 43 24
      vertex 89 55 13.8321
      vertex 89 56.5866 12.916
    endloop
  endfacet
  facet normal 1 0 0
    outer loop
      vertex 89 53.4134 11.084
      vertex 89 43 0
      vertex 89 55 10.1679
    endloop
  endfacet
  facet normal 1 0 0
    outer loop
      vertex 89 56.5866 12.916
      vertex 89 56.5866 11.084
      vertex 89 75 0
    endloop
  endfacet
  facet normal 1 0 0
    outer loop
      vertex 89 56.5866 11.084
      vertex 89 55 10.1679
      vertex 89 75 0
    endloop
  endfacet
  facet normal 0.99452 0.104543 0
    outer loop
      vertex 89 75 0
      vertex 88.694 77.911 0
      vertex 88.694 77.911 24
    endloop
  endfacet
  facet normal 0.99452 0.104543 0
    outer loop
      vertex 89 75 24
      vertex 89 75 0
      vertex 88.694 77.911 24
    endloop
  endfacet
  facet normal 0.951082 0.308939 0
    outer loop
      vertex 88.694 77.911 0
      vertex 87.79 80.694 0
      vertex 87.79 80.694 24
    endloop
  endfacet
  facet normal 0.951082 0.308939 0
    outer loop
      vertex 88.694 77.911 24
      vertex 88.694 77.911 0
      vertex 87.79 80.694 24
    endloop
  endfacet
  facet normal 0.865964 0.500107 0
    outer loop
      vertex 87.79 80.694 0
      vertex 86.326 83.229 0
      vertex 86.326 83.229 24
    endloop
  endfacet
  facet normal 0.865964 0.500107 0
    outer loop
      vertex 87.79 80.694 24
      vertex 87.79 80.694 0
      vertex 86.326 83.229 24
    endloop
  endfacet
  facet normal 0.743209 0.669059 0
    outer loop
      vertex 86.326 83.229 0
      vertex 84.368 85.404 0
      vertex 84.368 85.404 24
    endloop
  endfacet
  facet normal 0.743209 0.669059 0
    outer loop
      vertex 86.326 83.229 24
      vertex 86.326 83.229 0
      vertex 84.368 85.404 24
    endloop
  endfacet
  facet normal 0.587684 0.809091 0
    outer loop
      vertex 82 87.124 0
      vertex 82 87.124 24
      vertex 84.368 85.404 0
    endloop
  endfacet
  facet normal 0.587684 0.809091 0
    outer loop
      vertex 84.368 85.404 0
      vertex 82 87.124 24
      vertex 84.368 85.404 24
    endloop
  endfacet
  facet normal 0.406867 0.913487 0
    outer loop
      vertex 79.326 88.315 0
      vertex 79.326 88.315 24
      vertex 82 87.124 0
    endloop
  endfacet
  facet normal 0.406867 0.913487 0
    outer loop
      vertex 82 87.124 0
      vertex 79.326 88.315 24
      vertex 82 87.124 24
    endloop
  endfacet
  facet normal 0.207732 0.978186 0
    outer loop
      vertex 76.463 88.923 0
      vertex 76.463 88.923 24
      vertex 79.326 88.315 0
    endloop
  endfacet
  facet normal 0.207732 0.978186 0
    outer loop
      vertex 79.326 88.315 0
      vertex 76.463 88.923 24
      vertex 79.326 88.315 24
    endloop
  endfacet
  facet normal 0 1 0
    outer loop
      vertex 75 88.923 0
      vertex 75 88.923 24
      vertex 76.463 88.923 0
    endloop
  endfacet
  facet normal 0 1 0
    outer loop
      vertex 76.463 88.923 0
      vertex 75 88.923 24
      vertex 76.463 88.923 24
    endloop
  endfacet
  facet normal 1 0 0
    outer loop
      vertex 75 88.923 24
      vertex 75 88.923 0
      vertex 75 89 0
    endloop
  endfacet
  facet normal 1 0 0
    outer loop
      vertex 75 89 24
      vertex 75 88.923 24
      vertex 75 89 0
    endloop
  endfacet
  facet normal 0 1 0
    outer loop
      vertex 5.5 89 0
      vertex 5.5 89 24
      vertex 75 89 0
    endloop
  endfacet
  facet normal 0 1 0
    outer loop
      vertex 75 89 0
      vertex 5.5 89 24
      vertex 75 89 24
    endloop
  endfacet
  facet normal 1 0 0
    outer loop
      vertex 5.5 96 10.1679
      vertex 5.5 89 0
      vertex 5.5 124 0
    endloop
  endfacet
  facet normal 1 0 0
    outer loop
      vertex 5.5 114.413 11.084
      vertex 5.5 89 24
      vertex 5.5 124 0
    endloop
  endfacet
  facet normal 1 0 0
    outer loop
      vertex 5.5 116 13.8321
      vertex 5.5 117.587 12.916
      vertex 5.5 124 24
    endloop
  endfacet
  facet normal 1 0 0
    outer loop
      vertex 5.5 89 24
      vertex 5.5 89 0
      vertex 5.5 94.4134 11.084
    endloop
  endfacet
  facet normal 1 0 0
    outer loop
      vertex 5.5 97.5866 11.084
      vertex 5.5 96 10.1679
      vertex 5.5 124 0
    endloop
  endfacet
  facet normal 1 0 0
    outer loop
      vertex 5.5 89 24
      vertex 5.5 94.4134 11.084
      vertex 5.5 94.4134 12.916
    endloop
  endfacet
  facet normal 1 0 0
    outer loop
      vertex 5.5 89 24
      vertex 5.5 96 13.8321
      vertex 5.5 124 0
    endloop
  endfacet
  facet normal 1 0 0
    outer loop
      vertex 5.5 89 24
      vertex 5.5 94.4134 12.916
      vertex 5.5 96 13.8321
    endloop
  endfacet
  facet normal 1 0 0
    outer loop
      vertex 5.5 96 13.8321
      vertex 5.5 97.5866 12.916
      vertex 5.5 124 0
    endloop
  endfacet
  facet normal 1 0 0
    outer loop
      vertex 5.5 94.4134 11.084
      vertex 5.5 89 0
      vertex 5.5 96 10.1679
    endloop
  endfacet
  facet normal 1 0 0
    outer loop
      vertex 5.5 116 10.1679
      vertex 5.5 114.413 11.084
      vertex 5.5 124 0
    endloop
  endfacet
  facet normal 1 0 0
    outer loop
      vertex 5.5 114.413 12.916
      vertex 5.5 89 24
      vertex 5.5 114.413 11.084
    endloop
  endfacet
  facet normal 1 0 0
    outer loop
      vertex 5.5 124 24
      vertex 5.5 89 24
      vertex 5.5 114.413 12.916
    endloop
  endfacet
  facet normal 1 0 0
    outer loop
      vertex 5.5 124 24
      vertex 5.5 114.413 12.916
      vertex 5.5 116 13.8321
    endloop
  endfacet
  facet normal 1 0 0
    outer loop
      vertex 5.5 124 24
      vertex 5.5 117.587 12.916
      vertex 5.5 124 0
    endloop
  endfacet
  facet normal 1 0 0
    outer loop
      vertex 5.5 117.587 12.916
      vertex 5.5 117.587 11.084
      vertex 5.5 124 0
    endloop
  endfacet
  facet normal 1 0 0
    outer loop
      vertex 5.5 117.587 11.084
      vertex 5.5 116 10.1679
      vertex 5.5 124 0
    endloop
  endfacet
  facet normal 1 0 0
    outer loop
      vertex 5.5 97.5866 12.916
      vertex 5.5 97.5866 11.084
      vertex 5.5 124 0
    endloop
  endfacet
  facet normal 0 1 0
    outer loop
      vertex -5.5 124 0
      vertex -5.5 124 24
      vertex 5.5 124 0
    endloop
  endfacet
  facet normal 0 1 0
    outer loop
      vertex 5.5 124 0
      vertex -5.5 124 24
      vertex 5.5 124 24
    endloop
  endfacet
  facet normal -1 0 0
    outer loop
      vertex -5.5 97.5866 12.916
      vertex -5.5 89 24
      vertex -5.5 124 0
    endloop
  endfacet
  facet normal -1 0 0
    outer loop
      vertex -5.5 114.413 12.916
      vertex -5.5 89 24
      vertex -5.5 124 24
    endloop
  endfacet
  facet normal -1 0 0
    outer loop
      vertex -5.5 89 0
      vertex -5.5 89 24
      vertex -5.5 94.4134 12.916
    endloop
  endfacet
  facet normal -1 0 0
    outer loop
      vertex -5.5 89 0
      vertex -5.5 94.4134 12.916
      vertex -5.5 94.4134 11.084
    endloop
  endfacet
  facet normal -1 0 0
    outer loop
      vertex -5.5 89 0
      vertex -5.5 94.4134 11.084
      vertex -5.5 96 10.1679
    endloop
  endfacet
  facet normal -1 0 0
    outer loop
      vertex -5.5 89 0
      vertex -5.5 96 10.1679
      vertex -5.5 124 0
    endloop
  endfacet
  facet normal -1 0 0
    outer loop
      vertex -5.5 97.5866 12.916
      vertex -5.5 124 0
      vertex -5.5 97.5866 11.084
    endloop
  endfacet
  facet normal -1 0 0
    outer loop
      vertex -5.5 96 13.8321
      vertex -5.5 89 24
      vertex -5.5 97.5866 12.916
    endloop
  endfacet
  facet normal -1 0 0
    outer loop
      vertex -5.5 117.587 11.084
      vertex -5.5 124 0
      vertex -5.5 116 10.1679
    endloop
  endfacet
  facet normal -1 0 0
    outer loop
      vertex -5.5 94.4134 12.916
      vertex -5.5 89 24
      vertex -5.5 96 13.8321
    endloop
  endfacet
  facet normal -1 0 0
    outer loop
      vertex -5.5 114.413 11.084
      vertex -5.5 89 24
      vertex -5.5 114.413 12.916
    endloop
  endfacet
  facet normal -1 0 0
    outer loop
      vertex -5.5 116 13.8321
      vertex -5.5 114.413 12.916
      vertex -5.5 124 24
    endloop
  endfacet
  facet normal -1 0 0
    outer loop
      vertex -5.5 124 0
      vertex -5.5 89 24
      vertex -5.5 114.413 11.084
    endloop
  endfacet
  facet normal -1 0 0
    outer loop
      vertex -5.5 124 0
      vertex -5.5 114.413 11.084
      vertex -5.5 116 10.1679
    endloop
  endfacet
  facet normal -1 0 0
    outer loop
      vertex -5.5 124 0
      vertex -5.5 117.587 11.084
      vertex -5.5 124 24
    endloop
  endfacet
  facet normal -1 0 0
    outer loop
      vertex -5.5 117.587 11.084
      vertex -5.5 117.587 12.916
      vertex -5.5 124 24
    endloop
  endfacet
  facet normal -1 0 0
    outer loop
      vertex -5.5 117.587 12.916
      vertex -5.5 116 13.8321
      vertex -5.5 124 24
    endloop
  endfacet
  facet normal -1 0 0
    outer loop
      vertex -5.5 97.5866 11.084
      vertex -5.5 124 0
      vertex -5.5 96 10.1679
    endloop
  endfacet
  facet normal 0 1 0
    outer loop
      vertex -19.084 89 7.5866
      vertex -30 89 24
      vertex -5.5 89 0
    endloop
  endfacet
  facet normal 0 1 0
    outer loop
      vertex -19.084 89 19.5866
      vertex -30 89 24
      vertex -5.5 89 24
    endloop
  endfacet
  facet normal 0 1 0
    outer loop
      vertex -30 89 0
      vertex -30 89 24
      vertex -21.8321 89 6
    endloop
  endfacet
  facet normal 0 1 0
    outer loop
      vertex -30 89 0
      vertex -21.8321 89 6
      vertex -20.916 89 4.4134
    endloop
  endfacet
  facet normal 0 1 0
    outer loop
      vertex -30 89 0
      vertex -20.916 89 4.4134
      vertex -5.5 89 0
    endloop
  endfacet
  facet normal 0 1 0
    outer loop
      vertex -20.916 89 4.4134
      vertex -19.084 89 4.4134
      vertex -5.5 89 0
    endloop
  endfacet
  facet normal 0 1 0
    outer loop
      vertex -19.084 89 16.4134
      vertex -5.5 89 0
      vertex -20.916 89 16.4134
    endloop
  endfacet
  facet normal 0 1 0
    outer loop
      vertex -20.916 89 7.5866
      vertex -30 89 24
      vertex -19.084 89 7.5866
    endloop
  endfacet
  facet normal 0 1 0
    outer loop
      vertex -18.1679 89 6
      vertex -19.084 89 7.5866
      vertex -5.5 89 0
    endloop
  endfacet
  facet normal 0 1 0
    outer loop
      vertex -21.8321 89 6
      vertex -30 89 24
      vertex -20.916 89 7.5866
    endloop
  endfacet
  facet normal 0 1 0
    outer loop
      vertex -20.916 89 16.4134
      vertex -30 89 24
      vertex -21.8321 89 18
    endloop
  endfacet
  facet normal 0 1 0
    outer loop
      vertex -5.5 89 0
      vertex -30 89 24
      vertex -20.916 89 16.4134
    endloop
  endfacet
  facet normal 0 1 0
    outer loop
      vertex -19.084 89 19.5866
      vertex -5.5 89 24
      vertex -18.1679 89 18
    endloop
  endfacet
  facet normal 0 1 0
    outer loop
      vertex -5.5 89 0
      vertex -19.084 89 16.4134
      vertex -5.5 89 24
    endloop
  endfacet
  facet normal 0 1 0
    outer loop
      vertex -19.084 89 16.4134
      vertex -18.1679 89 18
      vertex -5.5 89 24
    endloop
  endfacet
  facet normal 0 1 0
    outer loop
      vertex -20.916 89 19.5866
      vertex -30 89 24
      vertex -19.084 89 19.5866
    endloop
  endfacet
  facet normal 0 1 0
    outer loop
      vertex -21.8321 89 18
      vertex -30 89 24
      vertex -20.916 89 19.5866
    endloop
  endfacet
  facet normal 0 1 0
    outer loop
      vertex -18.1679 89 6
      vertex -5.5 89 0
      vertex -19.084 89 4.4134
    endloop
  endfacet
  facet normal 0.866086 0.499896 0
    outer loop
      vertex -0.916 73.413 0
      vertex -1.832 75 0
      vertex -1.832 75 24
    endloop
  endfacet
  facet normal 0.866086 0.499896 0
    outer loop
      vertex -0.916 73.413 24
      vertex -0.916 73.413 0
      vertex -1.832 75 24
    endloop
  endfacet
  facet normal 0.866086 -0.499896 0
    outer loop
      vertex -1.832 75 24
      vertex -1.832 75 0
      vertex -0.916 76.587 0
    endloop
  endfacet
  facet normal 0.866086 -0.499896 0
    outer loop
      vertex -0.916 76.587 24
      vertex -1.832 75 24
      vertex -0.916 76.587 0
    endloop
  endfacet
  facet normal 0 -1 0
    outer loop
      vertex -0.916 76.587 24
      vertex -0.916 76.587 0
      vertex 0.916 76.587 0
    endloop
  endfacet
  facet normal 0 -1 0
    outer loop
      vertex 0.916 76.587 24
      vertex -0.916 76.587 24
      vertex 0.916 76.587 0
    endloop
  endfacet
  facet normal -0.866086 -0.499896 0
    outer loop
      vertex 0.916 76.587 0
      vertex 1.832 75 0
      vertex 0.916 76.587 24
    endloop
  endfacet
  facet normal -0.866086 -0.499896 0
    outer loop
      vertex 0.916 76.587 24
      vertex 1.832 75 0
      vertex 1.832 75 24
    endloop
  endfacet
  facet normal -0.866086 0.499896 0
    outer loop
      vertex 0.916 73.413 0
      vertex 0.916 73.413 24
      vertex 1.832 75 0
    endloop
  endfacet
  facet normal -0.866086 0.499896 0
    outer loop
      vertex 1.832 75 0
      vertex 0.916 73.413 24
      vertex 1.832 75 24
    endloop
  endfacet
  facet normal 0 1 0
    outer loop
      vertex -0.916 73.413 0
      vertex -0.916 73.413 24
      vertex 0.916 73.413 0
    endloop
  endfacet
  facet normal 0 1 0
    outer loop
      vertex 0.916 73.413 0
      vertex -0.916 73.413 24
      vertex 0.916 73.413 24
    endloop
  endfacet
  facet normal 0.866086 0.499896 0
    outer loop
      vertex 24.084 73.413 0
      vertex 23.168 75 0
      vertex 23.168 75 24
    endloop
  endfacet
  facet normal 0.866086 0.499896 0
    outer loop
      vertex 24.084 73.413 24
      vertex 24.084 73.413 0
      vertex 23.168 75 24
    endloop
  endfacet
  facet normal 0.866086 -0.499896 0
    outer loop
      vertex 23.168 75 24
      vertex 23.168 75 0
      vertex 24.084 76.587 0
    endloop
  endfacet
  facet normal 0.866086 -0.499896 0
    outer loop
      vertex 24.084 76.587 24
      vertex 23.168 75 24
      vertex 24.084 76.587 0
    endloop
  endfacet
  facet normal 0 -1 0
    outer loop
      vertex 24.084 76.587 24
      vertex 24.084 76.587 0
      vertex 25.916 76.587 0
    endloop
  endfacet
  facet normal 0 -1 0
    outer loop
      vertex 25.916 76.587 24
      vertex 24.084 76.587 24
      vertex 25.916 76.587 0
    endloop
  endfacet
  facet normal -0.866086 -0.499896 0
    outer loop
      vertex 25.916 76.587 0
      vertex 26.832 75 0
      vertex 25.916 76.587 24
    endloop
  endfacet
  facet normal -0.866086 -0.499896 0
    outer loop
      vertex 25.916 76.587 24
      vertex 26.832 75 0
      vertex 26.832 75 24
    endloop
  endfacet
  facet normal -0.866086 0.499896 0
    outer loop
      vertex 25.916 73.413 0
      vertex 25.916 73.413 24
      vertex 26.832 75 0
    endloop
  endfacet
  facet normal -0.866086 0.499896 0
    outer loop
      vertex 26.832 75 0
      vertex 25.916 73.413 24
      vertex 26.832 75 24
    endloop
  endfacet
  facet normal 0 1 0
    outer loop
      vertex 24.084 73.413 0
      vertex 24.084 73.413 24
      vertex 25.916 73.413 0
    endloop
  endfacet
  facet normal 0 1 0
    outer loop
      vertex 25.916 73.413 0
      vertex 24.084 73.413 24
      vertex 25.916 73.413 24
    endloop
  endfacet
  facet normal 0.866086 0.499896 0
    outer loop
      vertex 49.084 73.413 0
      vertex 48.168 75 0
      vertex 48.168 75 24
    endloop
  endfacet
  facet normal 0.866086 0.499896 0
    outer loop
      vertex 49.084 73.413 24
      vertex 49.084 73.413 0
      vertex 48.168 75 24
    endloop
  endfacet
  facet normal 0.866086 -0.499896 0
    outer loop
      vertex 48.168 75 24
      vertex 48.168 75 0
      vertex 49.084 76.587 0
    endloop
  endfacet
  facet normal 0.866086 -0.499896 0
    outer loop
      vertex 49.084 76.587 24
      vertex 48.168 75 24
      vertex 49.084 76.587 0
    endloop
  endfacet
  facet normal 0 -1 0
    outer loop
      vertex 49.084 76.587 24
      vertex 49.084 76.587 0
      vertex 50.916 76.587 0
    endloop
  endfacet
  facet normal 0 -1 0
    outer loop
      vertex 50.916 76.587 24
      vertex 49.084 76.587 24
      vertex 50.916 76.587 0
    endloop
  endfacet
  facet normal -0.866086 -0.499896 0
    outer loop
      vertex 50.916 76.587 0
      vertex 51.832 75 0
      vertex 50.916 76.587 24
    endloop
  endfacet
  facet normal -0.866086 -0.499896 0
    outer loop
      vertex 50.916 76.587 24
      vertex 51.832 75 0
      vertex 51.832 75 24
    endloop
  endfacet
  facet normal -0.866086 0.499896 0
    outer loop
      vertex 50.916 73.413 0
      vertex 50.916 73.413 24
      vertex 51.832 75 0
    endloop
  endfacet
  facet normal -0.866086 0.499896 0
    outer loop
      vertex 51.832 75 0
      vertex 50.916 73.413 24
      vertex 51.832 75 24
    endloop
  endfacet
  facet normal 0 1 0
    outer loop
      vertex 49.084 73.413 0
      vertex 49.084 73.413 24
      vertex 50.916 73.413 0
    endloop
  endfacet
  facet normal 0 1 0
    outer loop
      vertex 50.916 73.413 0
      vertex 49.084 73.413 24
      vertex 50.916 73.413 24
    endloop
  endfacet
  facet normal 0 1 0
    outer loop
      vertex 75 18.4134 6.91603
      vertex 75 18.4134 5.08398
      vertex 61 18.4134 6.91602
    endloop
  endfacet
  facet normal 0 1 0
    outer loop
      vertex 61 18.4134 6.91602
      vertex 75 18.4134 5.08398
      vertex 61 18.4134 5.08397
    endloop
  endfacet
  facet normal 1.92296e-16 0.5 -0.866025
    outer loop
      vertex 75 20 7.83205
      vertex 75 18.4134 6.91603
      vertex 61 20 7.83205
    endloop
  endfacet
  facet normal 1.92296e-16 0.5 -0.866025
    outer loop
      vertex 61 20 7.83205
      vertex 75 18.4134 6.91603
      vertex 61 18.4134 6.91602
    endloop
  endfacet
  facet normal 1.92296e-16 -0.5 -0.866025
    outer loop
      vertex 75 21.5866 6.91603
      vertex 75 20 7.83205
      vertex 61 21.5866 6.91602
    endloop
  endfacet
  facet normal 1.92296e-16 -0.5 -0.866025
    outer loop
      vertex 61 21.5866 6.91602
      vertex 75 20 7.83205
      vertex 61 20 7.83205
    endloop
  endfacet
  facet normal 0 -1 0
    outer loop
      vertex 75 21.5866 5.08398
      vertex 75 21.5866 6.91603
      vertex 61 21.5866 6.91602
    endloop
  endfacet
  facet normal 0 -1 0
    outer loop
      vertex 61 21.5866 5.08397
      vertex 75 21.5866 5.08398
      vertex 61 21.5866 6.91602
    endloop
  endfacet
  facet normal -1.92296e-16 -0.5 0.866025
    outer loop
      vertex 75 20 4.16795
      vertex 75 21.5866 5.08398
      vertex 61 21.5866 5.08397
    endloop
  endfacet
  facet normal -1.92296e-16 -0.5 0.866025
    outer loop
      vertex 61 20 4.16795
      vertex 75 20 4.16795
      vertex 61 21.5866 5.08397
    endloop
  endfacet
  facet normal -1.92296e-16 0.5 0.866025
    outer loop
      vertex 75 18.4134 5.08398
      vertex 75 20 4.16795
      vertex 61 20 4.16795
    endloop
  endfacet
  facet normal -1.92296e-16 0.5 0.866025
    outer loop
      vertex 61 18.4134 5.08397
      vertex 75 18.4134 5.08398
      vertex 61 20 4.16795
    endloop
  endfacet
  facet normal 1.92296e-16 0.5 -0.866025
    outer loop
      vertex 75 20 19.8321
      vertex 75 18.4134 18.916
      vertex 61 20 19.8321
    endloop
  endfacet
  facet normal 1.92296e-16 0.5 -0.866025
    outer loop
      vertex 61 20 19.8321
      vertex 75 18.4134 18.916
      vertex 61 18.4134 18.916
    endloop
  endfacet
  facet normal 0 1 0
    outer loop
      vertex 75 18.4134 18.916
      vertex 75 18.4134 17.084
      vertex 61 18.4134 18.916
    endloop
  endfacet
  facet normal 0 1 0
    outer loop
      vertex 61 18.4134 18.916
      vertex 75 18.4134 17.084
      vertex 61 18.4134 17.084
    endloop
  endfacet
  facet normal 1.92296e-16 -0.5 -0.866025
    outer loop
      vertex 75 21.5866 18.916
      vertex 75 20 19.8321
      vertex 61 21.5866 18.916
    endloop
  endfacet
  facet normal 1.92296e-16 -0.5 -0.866025
    outer loop
      vertex 61 21.5866 18.916
      vertex 75 20 19.8321
      vertex 61 20 19.8321
    endloop
  endfacet
  facet normal 0 -1 0
    outer loop
      vertex 75 21.5866 17.084
      vertex 75 21.5866 18.916
      vertex 61 21.5866 18.916
    endloop
  endfacet
  facet normal 0 -1 0
    outer loop
      vertex 61 21.5866 17.084
      vertex 75 21.5866 17.084
      vertex 61 21.5866 18.916
    endloop
  endfacet
  facet normal -1.92296e-16 -0.5 0.866025
    outer loop
      vertex 75 20 16.1679
      vertex 75 21.5866 17.084
      vertex 61 21.5866 17.084
    endloop
  endfacet
  facet normal -1.92296e-16 -0.5 0.866025
    outer loop
      vertex 61 20 16.1679
      vertex 75 20 16.1679
      vertex 61 21.5866 17.084
    endloop
  endfacet
  facet normal -1.92296e-16 0.5 0.866025
    outer loop
      vertex 75 18.4134 17.084
      vertex 75 20 16.1679
      vertex 61 20 16.1679
    endloop
  endfacet
  facet normal -1.92296e-16 0.5 0.866025
    outer loop
      vertex 61 18.4134 17.084
      vertex 75 18.4134 17.084
      vertex 61 20 16.1679
    endloop
  endfacet
  facet normal 1.92296e-16 0.5 -0.866025
    outer loop
      vertex 79.5 55 13.8321
      vertex 79.5 53.4134 12.916
      vertex 61 55 13.8321
    endloop
  endfacet
  facet normal 1.92296e-16 0.5 -0.866025
    outer loop
      vertex 61 55 13.8321
      vertex 79.5 53.4134 12.916
      vertex 61 53.4134 12.916
    endloop
  endfacet
  facet normal 0 1 0
    outer loop
      vertex 79.5 53.4134 12.916
      vertex 79.5 53.4134 11.084
      vertex 61 53.4134 12.916
    endloop
  endfacet
  facet normal 0 1 0
    outer loop
      vertex 61 53.4134 12.916
      vertex 79.5 53.4134 11.084
      vertex 61 53.4134 11.084
    endloop
  endfacet
  facet normal 1.92296e-16 -0.5 -0.866025
    outer loop
      vertex 79.5 56.5866 12.916
      vertex 79.5 55 13.8321
      vertex 61 56.5866 12.916
    endloop
  endfacet
  facet normal 1.92296e-16 -0.5 -0.866025
    outer loop
      vertex 61 56.5866 12.916
      vertex 79.5 55 13.8321
      vertex 61 55 13.8321
    endloop
  endfacet
  facet normal 0 -1 0
    outer loop
      vertex 79.5 56.5866 11.084
      vertex 79.5 56.5866 12.916
      vertex 61 56.5866 12.916
    endloop
  endfacet
  facet normal 0 -1 0
    outer loop
      vertex 61 56.5866 11.084
      vertex 79.5 56.5866 11.084
      vertex 61 56.5866 12.916
    endloop
  endfacet
  facet normal -1.92296e-16 -0.5 0.866025
    outer loop
      vertex 79.5 55 10.1679
      vertex 79.5 56.5866 11.084
      vertex 61 56.5866 11.084
    endloop
  endfacet
  facet normal -1.92296e-16 -0.5 0.866025
    outer loop
      vertex 61 55 10.1679
      vertex 79.5 55 10.1679
      vertex 61 56.5866 11.084
    endloop
  endfacet
  facet normal -1.92296e-16 0.5 0.866025
    outer loop
      vertex 79.5 53.4134 11.084
      vertex 79.5 55 10.1679
      vertex 61 55 10.1679
    endloop
  endfacet
  facet normal -1.92296e-16 0.5 0.866025
    outer loop
      vertex 61 53.4134 11.084
      vertex 79.5 53.4134 11.084
      vertex 61 55 10.1679
    endloop
  endfacet
  facet normal 1.92296e-16 0.5 -0.866025
    outer loop
      vertex 89 55 13.8321
      vertex 89 53.4134 12.916
      vertex 82.5 55 13.8321
    endloop
  endfacet
  facet normal 1.92296e-16 0.5 -0.866025
    outer loop
      vertex 82.5 55 13.8321
      vertex 89 53.4134 12.916
      vertex 82.5 53.4134 12.916
    endloop
  endfacet
  facet normal 0 1 0
    outer loop
      vertex 89 53.4134 12.916
      vertex 89 53.4134 11.084
      vertex 82.5 53.4134 12.916
    endloop
  endfacet
  facet normal 0 1 0
    outer loop
      vertex 82.5 53.4134 12.916
      vertex 89 53.4134 11.084
      vertex 82.5 53.4134 11.084
    endloop
  endfacet
  facet normal 1.92296e-16 -0.5 -0.866025
    outer loop
      vertex 89 56.5866 12.916
      vertex 89 55 13.8321
      vertex 82.5 56.5866 12.916
    endloop
  endfacet
  facet normal 1.92296e-16 -0.5 -0.866025
    outer loop
      vertex 82.5 56.5866 12.916
      vertex 89 55 13.8321
      vertex 82.5 55 13.8321
    endloop
  endfacet
  facet normal 0 -1 0
    outer loop
      vertex 89 56.5866 11.084
      vertex 89 56.5866 12.916
      vertex 82.5 56.5866 12.916
    endloop
  endfacet
  facet normal 0 -1 0
    outer loop
      vertex 82.5 56.5866 11.084
      vertex 89 56.5866 11.084
      vertex 82.5 56.5866 12.916
    endloop
  endfacet
  facet normal -1.92296e-16 -0.5 0.866025
    outer loop
      vertex 89 55 10.1679
      vertex 89 56.5866 11.084
      vertex 82.5 56.5866 11.084
    endloop
  endfacet
  facet normal -1.92296e-16 -0.5 0.866025
    outer loop
      vertex 82.5 55 10.1679
      vertex 89 55 10.1679
      vertex 82.5 56.5866 11.084
    endloop
  endfacet
  facet normal -1.92296e-16 0.5 0.866025
    outer loop
      vertex 89 53.4134 11.084
      vertex 89 55 10.1679
      vertex 82.5 55 10.1679
    endloop
  endfacet
  facet normal -1.92296e-16 0.5 0.866025
    outer loop
      vertex 82.5 53.4134 11.084
      vertex 89 53.4134 11.084
      vertex 82.5 55 10.1679
    endloop
  endfacet
  facet normal 0 1 0
    outer loop
      vertex 5.5 94.4134 12.916
      vertex 5.5 94.4134 11.084
      vertex -5.5 94.4134 12.916
    endloop
  endfacet
  facet normal 0 1 0
    outer loop
      vertex -5.5 94.4134 12.916
      vertex 5.5 94.4134 11.084
      vertex -5.5 94.4134 11.084
    endloop
  endfacet
  facet normal -1.92296e-16 0.5 0.866025
    outer loop
      vertex 5.5 94.4134 11.084
      vertex 5.5 96 10.1679
      vertex -5.5 96 10.1679
    endloop
  endfacet
  facet normal -1.92296e-16 0.5 0.866025
    outer loop
      vertex -5.5 94.4134 11.084
      vertex 5.5 94.4134 11.084
      vertex -5.5 96 10.1679
    endloop
  endfacet
  facet normal -1.92296e-16 -0.5 0.866025
    outer loop
      vertex 5.5 96 10.1679
      vertex 5.5 97.5866 11.084
      vertex -5.5 97.5866 11.084
    endloop
  endfacet
  facet normal -1.92296e-16 -0.5 0.866025
    outer loop
      vertex -5.5 96 10.1679
      vertex 5.5 96 10.1679
      vertex -5.5 97.5866 11.084
    endloop
  endfacet
  facet normal 0 -1 0
    outer loop
      vertex 5.5 97.5866 11.084
      vertex 5.5 97.5866 12.916
      vertex -5.5 97.5866 12.916
    endloop
  endfacet
  facet normal 0 -1 0
    outer loop
      vertex -5.5 97.5866 11.084
      vertex 5.5 97.5866 11.084
      vertex -5.5 97.5866 12.916
    endloop
  endfacet
  facet normal 1.92296e-16 -0.5 -0.866025
    outer loop
      vertex 5.5 97.5866 12.916
      vertex 5.5 96 13.8321
      vertex -5.5 97.5866 12.916
    endloop
  endfacet
  facet normal 1.92296e-16 -0.5 -0.866025
    outer loop
      vertex -5.5 97.5866 12.916
      vertex 5.5 96 13.8321
      vertex -5.5 96 13.8321
    endloop
  endfacet
  facet normal 1.92296e-16 0.5 -0.866025
    outer loop
      vertex 5.5 96 13.8321
      vertex 5.5 94.4134 12.916
      vertex -5.5 96 13.8321
    endloop
  endfacet
  facet normal 1.92296e-16 0.5 -0.866025
    outer loop
      vertex -5.5 96 13.8321
      vertex 5.5 94.4134 12.916
      vertex -5.5 94.4134 12.916
    endloop
  endfacet
  facet normal 0 1 0
    outer loop
      vertex 5.5 114.413 12.916
      vertex 5.5 114.413 11.084
      vertex -5.5 114.413 12.916
    endloop
  endfacet
  facet normal 0 1 0
    outer loop
      vertex -5.5 114.413 12.916
      vertex 5.5 114.413 11.084
      vertex -5.5 114.413 11.084
    endloop
  endfacet
  facet normal -1.92296e-16 0.5 0.866025
    outer loop
      vertex 5.5 114.413 11.084
      vertex 5.5 116 10.1679
      vertex -5.5 116 10.1679
    endloop
  endfacet
  facet normal -1.92296e-16 0.5 0.866025
    outer loop
      vertex -5.5 114.413 11.084
      vertex 5.5 114.413 11.084
      vertex -5.5 116 10.1679
    endloop
  endfacet
  facet normal -1.92296e-16 -0.5 0.866025
    outer loop
      vertex 5.5 116 10.1679
      vertex 5.5 117.587 11.084
      vertex -5.5 117.587 11.084
    endloop
  endfacet
  facet normal -1.92296e-16 -0.5 0.866025
    outer loop
      vertex -5.5 116 10.1679
      vertex 5.5 116 10.1679
      vertex -5.5 117.587 11.084
    endloop
  endfacet
  facet normal 0 -1 0
    outer loop
      vertex 5.5 117.587 11.084
      vertex 5.5 117.587 12.916
      vertex -5.5 117.587 12.916
    endloop
  endfacet
  facet normal 0 -1 0
    outer loop
      vertex -5.5 117.587 11.084
      vertex 5.5 117.587 11.084
      vertex -5.5 117.587 12.916
    endloop
  endfacet
  facet normal 1.92296e-16 -0.5 -0.866025
    outer loop
      vertex 5.5 117.587 12.916
      vertex 5.5 116 13.8321
      vertex -5.5 117.587 12.916
    endloop
  endfacet
  facet normal 1.92296e-16 -0.5 -0.866025
    outer loop
      vertex -5.5 117.587 12.916
      vertex 5.5 116 13.8321
      vertex -5.5 116 13.8321
    endloop
  endfacet
  facet normal 1.92296e-16 0.5 -0.866025
    outer loop
      vertex 5.5 116 13.8321
      vertex 5.5 114.413 12.916
      vertex -5.5 116 13.8321
    endloop
  endfacet
  facet normal 1.92296e-16 0.5 -0.866025
    outer loop
      vertex -5.5 116 13.8321
      vertex 5.5 114.413 12.916
      vertex -5.5 114.413 12.916
    endloop
  endfacet
endsolid OpenSCAD_Model
