  0
SECTION
  2
BLOCKS
  0
ENDSEC
  0
SECTION
  2
ENTITIES
  0
LINE
  8
0
 10
-76.832
 11
-76.587
 20
0
 21
0
  0
LINE
  8
0
 10
-76.587
 11
-76.587
 20
0
 21
0.916
  0
LINE
  8
0
 10
-76.587
 11
-75
 20
0.916
 21
1.832
  0
LINE
  8
0
 10
-75
 11
-73.413
 20
1.832
 21
0.916
  0
LINE
  8
0
 10
-73.413
 11
-73.413
 20
0.916
 21
0
  0
LINE
  8
0
 10
-73.413
 11
-73.168
 20
0
 21
0
  0
LINE
  8
0
 10
-73.168
 11
-74.084
 20
0
 21
-1.587
  0
LINE
  8
0
 10
-74.084
 11
-75.916
 20
-1.587
 21
-1.587
  0
LINE
  8
0
 10
-75.916
 11
-76.832
 20
-1.587
 21
0
  0
LINE
  8
0
 10
-76.587
 11
-76.587
 20
24.084
 21
25.916
  0
LINE
  8
0
 10
-76.587
 11
-75
 20
25.916
 21
26.832
  0
LINE
  8
0
 10
-75
 11
-73.413
 20
26.832
 21
25.916
  0
LINE
  8
0
 10
-73.413
 11
-73.413
 20
25.916
 21
24.084
  0
LINE
  8
0
 10
-73.413
 11
-75
 20
24.084
 21
23.168
  0
LINE
  8
0
 10
-75
 11
-76.587
 20
23.168
 21
24.084
  0
LINE
  8
0
 10
-76.587
 11
-76.587
 20
49.084
 21
50.916
  0
LINE
  8
0
 10
-76.587
 11
-75
 20
50.916
 21
51.832
  0
LINE
  8
0
 10
-75
 11
-73.413
 20
51.832
 21
50.916
  0
LINE
  8
0
 10
-73.413
 11
-73.413
 20
50.916
 21
49.084
  0
LINE
  8
0
 10
-73.413
 11
-75
 20
49.084
 21
48.168
  0
LINE
  8
0
 10
-75
 11
-76.587
 20
48.168
 21
49.084
  0
LINE
  8
0
 10
-89
 11
-89
 20
-61
 21
61
  0
LINE
  8
0
 10
-89
 11
-61
 20
61
 21
61
  0
LINE
  8
0
 10
-61
 11
-61
 20
61
 21
89
  0
LINE
  8
0
 10
-61
 11
61
 20
89
 21
89
  0
LINE
  8
0
 10
61
 11
61
 20
89
 21
61
  0
LINE
  8
0
 10
61
 11
89
 20
61
 21
61
  0
LINE
  8
0
 10
89
 11
89
 20
61
 21
-61
  0
LINE
  8
0
 10
89
 11
61
 20
-61
 21
-61
  0
LINE
  8
0
 10
61
 11
61
 20
-61
 21
-89
  0
LINE
  8
0
 10
61
 11
-61
 20
-89
 21
-89
  0
LINE
  8
0
 10
-61
 11
-61
 20
-89
 21
-61
  0
LINE
  8
0
 10
-61
 11
-89
 20
-61
 21
-61
  0
LINE
  8
0
 10
-51.832
 11
-50.916
 20
-75
 21
-73.413
  0
LINE
  8
0
 10
-50.916
 11
-49.084
 20
-73.413
 21
-73.413
  0
LINE
  8
0
 10
-49.084
 11
-48.168
 20
-73.413
 21
-75
  0
LINE
  8
0
 10
-48.168
 11
-49.084
 20
-75
 21
-76.587
  0
LINE
  8
0
 10
-49.084
 11
-50.916
 20
-76.587
 21
-76.587
  0
LINE
  8
0
 10
-50.916
 11
-51.832
 20
-76.587
 21
-75
  0
LINE
  8
0
 10
-49.474
 11
-49.474
 20
-48.507
 21
-46.743
  0
LINE
  8
0
 10
-49.474
 11
-47.796
 20
-46.743
 21
-46.198
  0
LINE
  8
0
 10
-47.796
 11
-46.76
 20
-46.198
 21
-47.625
  0
LINE
  8
0
 10
-46.76
 11
-47.796
 20
-47.625
 21
-49.052
  0
LINE
  8
0
 10
-47.796
 11
-49.474
 20
-49.052
 21
-48.507
  0
LINE
  8
0
 10
-49.474
 11
-49.474
 20
46.743
 21
48.507
  0
LINE
  8
0
 10
-49.474
 11
-47.796
 20
48.507
 21
49.052
  0
LINE
  8
0
 10
-47.796
 11
-46.76
 20
49.052
 21
47.625
  0
LINE
  8
0
 10
-46.76
 11
-47.796
 20
47.625
 21
46.198
  0
LINE
  8
0
 10
-47.796
 11
-49.474
 20
46.198
 21
46.743
  0
LINE
  8
0
 10
-26.832
 11
-25.916
 20
-75
 21
-73.413
  0
LINE
  8
0
 10
-25.916
 11
-24.084
 20
-73.413
 21
-73.413
  0
LINE
  8
0
 10
-24.084
 11
-23.168
 20
-73.413
 21
-75
  0
LINE
  8
0
 10
-23.168
 11
-24.084
 20
-75
 21
-76.587
  0
LINE
  8
0
 10
-24.084
 11
-25.916
 20
-76.587
 21
-76.587
  0
LINE
  8
0
 10
-25.916
 11
-26.832
 20
-76.587
 21
-75
  0
LINE
  8
0
 10
-1.832
 11
-0.916
 20
-75
 21
-73.413
  0
LINE
  8
0
 10
-0.916
 11
0
 20
-73.413
 21
-73.413
  0
LINE
  8
0
 10
0
 11
0
 20
-73.413
 21
-73.168
  0
LINE
  8
0
 10
0
 11
1.587
 20
-73.168
 21
-74.084
  0
LINE
  8
0
 10
1.587
 11
1.587
 20
-74.084
 21
-75.916
  0
LINE
  8
0
 10
1.587
 11
0
 20
-75.916
 21
-76.832
  0
LINE
  8
0
 10
0
 11
0
 20
-76.832
 21
-76.587
  0
LINE
  8
0
 10
0
 11
-0.916
 20
-76.587
 21
-76.587
  0
LINE
  8
0
 10
-0.916
 11
-1.832
 20
-76.587
 21
-75
  0
LINE
  8
0
 10
-1.587
 11
-1.587
 20
74.084
 21
75.916
  0
LINE
  8
0
 10
-1.587
 11
0
 20
75.916
 21
76.832
  0
LINE
  8
0
 10
0
 11
0
 20
76.832
 21
76.587
  0
LINE
  8
0
 10
0
 11
0.916
 20
76.587
 21
76.587
  0
LINE
  8
0
 10
0.916
 11
1.832
 20
76.587
 21
75
  0
LINE
  8
0
 10
1.832
 11
0.916
 20
75
 21
73.413
  0
LINE
  8
0
 10
0.916
 11
0
 20
73.413
 21
73.413
  0
LINE
  8
0
 10
0
 11
0
 20
73.413
 21
73.168
  0
LINE
  8
0
 10
0
 11
-1.587
 20
73.168
 21
74.084
  0
LINE
  8
0
 10
23.168
 11
24.084
 20
75
 21
76.587
  0
LINE
  8
0
 10
24.084
 11
25.916
 20
76.587
 21
76.587
  0
LINE
  8
0
 10
25.916
 11
26.832
 20
76.587
 21
75
  0
LINE
  8
0
 10
26.832
 11
25.916
 20
75
 21
73.413
  0
LINE
  8
0
 10
25.916
 11
24.084
 20
73.413
 21
73.413
  0
LINE
  8
0
 10
24.084
 11
23.168
 20
73.413
 21
75
  0
LINE
  8
0
 10
47.046
 11
47.046
 20
-48.507
 21
-46.743
  0
LINE
  8
0
 10
47.046
 11
48.724
 20
-46.743
 21
-46.198
  0
LINE
  8
0
 10
48.724
 11
49.76
 20
-46.198
 21
-47.625
  0
LINE
  8
0
 10
49.76
 11
48.724
 20
-47.625
 21
-49.052
  0
LINE
  8
0
 10
48.724
 11
47.046
 20
-49.052
 21
-48.507
  0
LINE
  8
0
 10
47.046
 11
47.046
 20
46.743
 21
48.507
  0
LINE
  8
0
 10
47.046
 11
48.724
 20
48.507
 21
49.052
  0
LINE
  8
0
 10
48.724
 11
49.76
 20
49.052
 21
47.625
  0
LINE
  8
0
 10
49.76
 11
48.724
 20
47.625
 21
46.198
  0
LINE
  8
0
 10
48.724
 11
47.046
 20
46.198
 21
46.743
  0
LINE
  8
0
 10
48.168
 11
49.084
 20
75
 21
76.587
  0
LINE
  8
0
 10
49.084
 11
50.916
 20
76.587
 21
76.587
  0
LINE
  8
0
 10
50.916
 11
51.832
 20
76.587
 21
75
  0
LINE
  8
0
 10
51.832
 11
50.916
 20
75
 21
73.413
  0
LINE
  8
0
 10
50.916
 11
49.084
 20
73.413
 21
73.413
  0
LINE
  8
0
 10
49.084
 11
48.168
 20
73.413
 21
75
  0
LINE
  8
0
 10
73.168
 11
74.084
 20
0
 21
1.587
  0
LINE
  8
0
 10
74.084
 11
75.916
 20
1.587
 21
1.587
  0
LINE
  8
0
 10
75.916
 11
76.832
 20
1.587
 21
0
  0
LINE
  8
0
 10
76.832
 11
76.587
 20
0
 21
0
  0
LINE
  8
0
 10
76.587
 11
76.587
 20
0
 21
-0.916
  0
LINE
  8
0
 10
76.587
 11
75
 20
-0.916
 21
-1.832
  0
LINE
  8
0
 10
75
 11
73.413
 20
-1.832
 21
-0.916
  0
LINE
  8
0
 10
73.413
 11
73.413
 20
-0.916
 21
0
  0
LINE
  8
0
 10
73.413
 11
73.168
 20
0
 21
0
  0
LINE
  8
0
 10
73.413
 11
73.413
 20
-50.916
 21
-49.084
  0
LINE
  8
0
 10
73.413
 11
75
 20
-49.084
 21
-48.168
  0
LINE
  8
0
 10
75
 11
76.587
 20
-48.168
 21
-49.084
  0
LINE
  8
0
 10
76.587
 11
76.587
 20
-49.084
 21
-50.916
  0
LINE
  8
0
 10
76.587
 11
75
 20
-50.916
 21
-51.832
  0
LINE
  8
0
 10
75
 11
73.413
 20
-51.832
 21
-50.916
  0
LINE
  8
0
 10
73.413
 11
73.413
 20
-25.916
 21
-24.084
  0
LINE
  8
0
 10
73.413
 11
75
 20
-24.084
 21
-23.168
  0
LINE
  8
0
 10
75
 11
76.587
 20
-23.168
 21
-24.084
  0
LINE
  8
0
 10
76.587
 11
76.587
 20
-24.084
 21
-25.916
  0
LINE
  8
0
 10
76.587
 11
75
 20
-25.916
 21
-26.832
  0
LINE
  8
0
 10
75
 11
73.413
 20
-26.832
 21
-25.916
  0
ENDSEC
  0
SECTION
  2
OBJECTS
  0
DICTIONARY
  0
ENDSEC
  0
EOF
